{
.appVersion = "895";
copyright = "Copyright (c) 1998-2011 SIL International";
customParameters = (
{
name = hheaAscender;
value = 1662;
},
{
name = hheaDescender;
value = -648;
},
{
name = hheaLineGap;
value = 0;
},
{
name = description;
value = "Copyright (c) 1998-2011 SIL International";
},
{
name = license;

glyphs = (
{
glyphname = .notdef;
layers = (
{
layerId = "450B03F6-B4AD-41C0-900A-B61992C84FEB";
paths = (
{
closed = 1;
nodes = (
"128 1400 LINE",
"896 1400 LINE",
"896 0 LINE",
"128 0 LINE"
);
},
{
closed = 1;
nodes = (
"768 128 LINE",
"768 1272 LINE",
"256 1272 LINE",
"256 128 LINE"
);
}
);
width = 1024;
},
{
layerId = "B00507B9-787D-4BFE-8F64-5743BFDB1312";
paths = (
{
closed = 1;
nodes = (
"128 1400 LINE",
"896 1400 LINE",
"896 0 LINE",
"128 0 LINE"
);
},
{
closed = 1;
nodes = (
"768 128 LINE",
"768 1272 LINE",
"256 1272 LINE",
"256 128 LINE"
);
}
);
width = 1024;
}
);
},
{
glyphname = dollar;
layers = (
{
background = {
paths = (
{
closed = 1;
nodes = (
"400 76 OFFCURVE",
"323 5 OFFCURVE",
"220 -7 CURVE",
"216 -32 OFFCURVE",
"212 -54 OFFCURVE",
"208 -73 CURVE SMOOTH",
"206 -83 OFFCURVE",
"196 -83 OFFCURVE",
"178 -83 CURVE SMOOTH",
"160 -83 OFFCURVE",
"150 -83 OFFCURVE",
"152 -73 CURVE SMOOTH",
"156 -54 OFFCURVE",
"160 -32 OFFCURVE",
"166 -7 CURVE",
"97 0 OFFCURVE",
"54 35 OFFCURVE",
"32 69 CURVE SMOOTH",
"27 78 OFFCURVE",
"30 83 OFFCURVE",
"49 103 CURVE SMOOTH",
"64 118 OFFCURVE",
"76 126 OFFCURVE",
"78 121 CURVE SMOOTH",
"89 82 OFFCURVE",
"131 41 OFFCURVE",
"174 33 CURVE",
"196 141 OFFCURVE",
"220 250 OFFCURVE",
"241 358 CURVE",
"175 419 OFFCURVE",
"114 467 OFFCURVE",
"135 573 CURVE SMOOTH",
"148 641 OFFCURVE",
"207 719 OFFCURVE",
"309 730 CURVE",
"312 749 OFFCURVE",
"315 766 OFFCURVE",
"318 779 CURVE SMOOTH",
"320 788 OFFCURVE",
"329 789 OFFCURVE",
"348 789 CURVE SMOOTH",
"366 789 OFFCURVE",
"375 788 OFFCURVE",
"374 779 CURVE SMOOTH",
"371 765 OFFCURVE",
"368 749 OFFCURVE",
"364 730 CURVE",
"427 723 OFFCURVE",
"459 693 OFFCURVE",
"480 659 CURVE SMOOTH",
"485 650 OFFCURVE",
"478 645 OFFCURVE",
"459 630 CURVE SMOOTH",
"438 614 OFFCURVE",
"429 613 OFFCURVE",
"427 619 CURVE SMOOTH",
"416 655 OFFCURVE",
"392 683 OFFCURVE",
"356 690 CURVE",
"337 600 OFFCURVE",
"312 481 OFFCURVE",
"296 402 CURVE",
"364 342 OFFCURVE",
"440 284 OFFCURVE",
"419 173 CURVE SMOOTH",
"419 173 LINE SMOOTH"
);
},
{
closed = 1;
nodes = (
"270 516 OFFCURVE",
"287 613 OFFCURVE",
"301 689 CURVE",
"239 678 OFFCURVE",
"211 637 OFFCURVE",
"203 595 CURVE SMOOTH",
"193 548 OFFCURVE",
"196 505 OFFCURVE",
"256 440 CURVE",
"256 440 LINE"
);
},
{
closed = 1;
nodes = (
"360 200 OFFCURVE",
"346 249 OFFCURVE",
"280 320 CURVE",
"265 244 OFFCURVE",
"245 130 OFFCURVE",
"228 35 CURVE",
"303 50 OFFCURVE",
"342 107 OFFCURVE",
"351 157 CURVE SMOOTH",
"351 157 LINE SMOOTH"
);
}
);
};
layerId = "450B03F6-B4AD-41C0-900A-B61992C84FEB";
paths = (
{
closed = 1;
nodes = (
"993 1332 OFFCURVE",
"979 1322 OFFCURVE",
"940 1291 CURVE SMOOTH",
"898 1258 OFFCURVE",
"878 1256 OFFCURVE",
"874 1267 CURVE SMOOTH",
"852 1342 OFFCURVE",
"803 1399 OFFCURVE",
"728 1413 CURVE",
"690 1229 OFFCURVE",
"639 985 OFFCURVE",
"606 823 CURVE",
"729 714 OFFCURVE",
"865 594 OFFCURVE",
"865 411 CURVE SMOOTH",
"866 173 OFFCURVE",
"681 12 OFFCURVE",
"451 -14 CURVE",
"442 -65 OFFCURVE",
"433 -111 OFFCURVE",
"426 -150 CURVE SMOOTH",
"422 -169 OFFCURVE",
"401 -171 OFFCURVE",
"365 -171 CURVE SMOOTH",
"328 -171 OFFCURVE",
"308 -169 OFFCURVE",
"312 -150 CURVE SMOOTH",
"319 -112 OFFCURVE",
"329 -65 OFFCURVE",
"339 -14 CURVE",
"214 0 OFFCURVE",
"110 71 OFFCURVE",
"66 142 CURVE SMOOTH",
"55 160 OFFCURVE",
"61 170 OFFCURVE",
"100 210 CURVE SMOOTH",
"130 242 OFFCURVE",
"156 258 OFFCURVE",
"159 247 CURVE SMOOTH",
"182 168 OFFCURVE",
"268 84 OFFCURVE",
"356 67 CURVE",
"402 289 OFFCURVE",
"451 511 OFFCURVE",
"494 734 CURVE",
"379 839 OFFCURVE",
"268 940 OFFCURVE",
"268 1101 CURVE SMOOTH",
"268 1316 OFFCURVE",
"418 1472 OFFCURVE",
"632 1495 CURVE",
"639 1534 OFFCURVE",
"646 1568 OFFCURVE",
"651 1595 CURVE SMOOTH",
"655 1614 OFFCURVE",
"674 1615 OFFCURVE",
"712 1615 CURVE SMOOTH",
"749 1615 OFFCURVE",
"769 1614 OFFCURVE",
"765 1595 CURVE SMOOTH",
"760 1568 OFFCURVE",
"753 1534 OFFCURVE",
"745 1495 CURVE",
"856 1481 OFFCURVE",
"939 1420 OFFCURVE",
"982 1350 CURVE SMOOTH",
"982 1350 LINE SMOOTH"
);
},
{
closed = 1;
nodes = (
"475 1386 OFFCURVE",
"407 1280 OFFCURVE",
"407 1146 CURVE SMOOTH",
"407 1075 OFFCURVE",
"432 1001 OFFCURVE",
"525 901 CURVE",
"553 1057 OFFCURVE",
"588 1255 OFFCURVE",
"617 1411 CURVE",
"617 1411 LINE"
);
},
{
closed = 1;
nodes = (
"724 445 OFFCURVE",
"685 535 OFFCURVE",
"573 655 CURVE",
"544 500 OFFCURVE",
"502 266 OFFCURVE",
"467 72 CURVE",
"607 100 OFFCURVE",
"724 222 OFFCURVE",
"724 367 CURVE SMOOTH",
"724 367 LINE SMOOTH"
);
}
);
userData = {
com.adobe.type.autohint = "b''";
};
width = 998;
},
{
background = {
paths = (
{
closed = 1;
nodes = (
"425 81 OFFCURVE",
"347 8 OFFCURVE",
"230 -6 CURVE",
"226 -32 OFFCURVE",
"221 -55 OFFCURVE",
"218 -73 CURVE SMOOTH",
"216 -83 OFFCURVE",
"196 -83 OFFCURVE",
"178 -83 CURVE SMOOTH",
"160 -83 OFFCURVE",
"141 -83 OFFCURVE",
"143 -73 CURVE SMOOTH",
"146 -55 OFFCURVE",
"151 -32 OFFCURVE",
"156 -6 CURVE",
"79 3 OFFCURVE",
"28 46 OFFCURVE",
"16 79 CURVE SMOOTH",
"10 93 OFFCURVE",
"20 105 OFFCURVE",
"56 124 CURVE SMOOTH",
"107 150 OFFCURVE",
"125 150 OFFCURVE",
"127 144 CURVE SMOOTH",
"134 122 OFFCURVE",
"127 52 OFFCURVE",
"163 29 CURVE",
"184 126 OFFCURVE",
"209 249 OFFCURVE",
"225 327 CURVE",
"152 392 OFFCURVE",
"86 440 OFFCURVE",
"109 559 CURVE SMOOTH",
"124 638 OFFCURVE",
"198 713 OFFCURVE",
"299 729 CURVE",
"302 748 OFFCURVE",
"305 765 OFFCURVE",
"308 779 CURVE SMOOTH",
"310 788 OFFCURVE",
"329 789 OFFCURVE",
"348 789 CURVE SMOOTH",
"366 789 OFFCURVE",
"385 788 OFFCURVE",
"383 779 CURVE SMOOTH",
"381 765 OFFCURVE",
"377 748 OFFCURVE",
"373 729 CURVE",
"440 721 OFFCURVE",
"499 691 OFFCURVE",
"512 652 CURVE SMOOTH",
"517 637 OFFCURVE",
"511 629 OFFCURVE",
"484 612 CURVE SMOOTH",
"427 576 OFFCURVE",
"415 579 OFFCURVE",
"409 593 CURVE SMOOTH",
"403 606 OFFCURVE",
"404 674 OFFCURVE",
"367 696 CURVE",
"351 618 OFFCURVE",
"328 515 OFFCURVE",
"312 434 CURVE",
"386 370 OFFCURVE",
"469 310 OFFCURVE",
"446 190 CURVE SMOOTH",
"446 190 LINE SMOOTH"
);
},
{
closed = 1;
nodes = (
"267 554 OFFCURVE",
"281 633 OFFCURVE",
"293 696 CURVE",
"246 684 OFFCURVE",
"204 652 OFFCURVE",
"196 609 CURVE SMOOTH",
"186 558 OFFCURVE",
"197 535 OFFCURVE",
"255 483 CURVE",
"255 483 LINE"
);
},
{
closed = 1;
nodes = (
"367 187 OFFCURVE",
"345 217 OFFCURVE",
"281 276 CURVE",
"267 201 OFFCURVE",
"250 105 OFFCURVE",
"236 26 CURVE",
"303 43 OFFCURVE",
"349 94 OFFCURVE",
"357 137 CURVE SMOOTH",
"357 137 LINE SMOOTH"
);
}
);
};
layerId = "B00507B9-787D-4BFE-8F64-5743BFDB1312";
paths = (
{
closed = 1;
nodes = (
"1058 1305 OFFCURVE",
"1048 1288 OFFCURVE",
"992 1253 CURVE SMOOTH",
"875 1180 OFFCURVE",
"849 1186 OFFCURVE",
"837 1215 CURVE SMOOTH",
"825 1242 OFFCURVE",
"827 1380 OFFCURVE",
"751 1425 CURVE",
"718 1265 OFFCURVE",
"673 1054 OFFCURVE",
"639 888 CURVE",
"769 777 OFFCURVE",
"921 657 OFFCURVE",
"921 472 CURVE SMOOTH",
"921 199 OFFCURVE",
"733 20 OFFCURVE",
"472 -12 CURVE",
"462 -65 OFFCURVE",
"453 -112 OFFCURVE",
"446 -150 CURVE SMOOTH",
"442 -169 OFFCURVE",
"401 -171 OFFCURVE",
"365 -171 CURVE SMOOTH",
"328 -171 OFFCURVE",
"288 -169 OFFCURVE",
"292 -150 CURVE SMOOTH",
"299 -112 OFFCURVE",
"308 -65 OFFCURVE",
"319 -13 CURVE",
"161 6 OFFCURVE",
"57 94 OFFCURVE",
"32 161 CURVE SMOOTH",
"21 191 OFFCURVE",
"40 215 OFFCURVE",
"115 254 CURVE SMOOTH",
"218 308 OFFCURVE",
"257 306 OFFCURVE",
"260 295 CURVE SMOOTH",
"274 249 OFFCURVE",
"260 107 OFFCURVE",
"334 59 CURVE",
"375 259 OFFCURVE",
"428 509 OFFCURVE",
"460 669 CURVE",
"333 785 OFFCURVE",
"213 888 OFFCURVE",
"213 1069 CURVE SMOOTH",
"213 1302 OFFCURVE",
"387 1458 OFFCURVE",
"612 1492 CURVE",
"619 1532 OFFCURVE",
"626 1567 OFFCURVE",
"631 1595 CURVE SMOOTH",
"635 1614 OFFCURVE",
"674 1615 OFFCURVE",
"712 1615 CURVE SMOOTH",
"749 1615 OFFCURVE",
"789 1614 OFFCURVE",
"785 1595 CURVE SMOOTH",
"780 1568 OFFCURVE",
"772 1533 OFFCURVE",
"764 1493 CURVE",
"901 1476 OFFCURVE",
"1021 1416 OFFCURVE",
"1048 1335 CURVE SMOOTH",
"1048 1335 LINE SMOOTH"
);
},
{
closed = 1;
nodes = (
"479 1393 OFFCURVE",
"394 1314 OFFCURVE",
"394 1185 CURVE SMOOTH",
"394 1119 OFFCURVE",
"429 1073 OFFCURVE",
"521 990 CURVE",
"547 1136 OFFCURVE",
"576 1297 OFFCURVE",
"599 1426 CURVE",
"599 1426 LINE"
);
},
{
closed = 1;
nodes = (
"736 403 OFFCURVE",
"686 463 OFFCURVE",
"576 565 CURVE",
"548 412 OFFCURVE",
"512 216 OFFCURVE",
"483 54 CURVE",
"605 84 OFFCURVE",
"736 190 OFFCURVE",
"736 325 CURVE SMOOTH",
"736 325 LINE SMOOTH"
);
}
);
userData = {
com.adobe.type.autohint = "b''";
};
width = 998;
}
);
unicode = 0024;
},
{
glyphname = percent;
layers = (
{
background = {
paths = (
{
closed = 1;
nodes = (
"148 1 LINE SMOOTH",
"141 -8 OFFCURVE",
"137 -8 OFFCURVE",
"111 -8 CURVE SMOOTH",
"84 -8 OFFCURVE",
"81 -8 OFFCURVE",
"87 1 CURVE SMOOTH",
"582 722 LINE SMOOTH",
"589 731 OFFCURVE",
"594 731 OFFCURVE",
"616 731 CURVE SMOOTH",
"640 731 OFFCURVE",
"646 731 OFFCURVE",
"640 722 CURVE SMOOTH",
"640 722 LINE"
);
},
{
closed = 1;
nodes = (
"375 483 OFFCURVE",
"313 397 OFFCURVE",
"218 397 CURVE SMOOTH",
"122 397 OFFCURVE",
"95 487 OFFCURVE",
"110 564 CURVE SMOOTH",
"124 636 OFFCURVE",
"187 731 OFFCURVE",
"283 731 CURVE SMOOTH",
"384 731 OFFCURVE",
"405 639 OFFCURVE",
"391 564 CURVE SMOOTH",
"391 564 LINE SMOOTH"
);
},
{
closed = 1;
nodes = (
"226 692 OFFCURVE",
"189 631 OFFCURVE",
"176 564 CURVE SMOOTH",
"160 485 OFFCURVE",
"182 437 OFFCURVE",
"225 437 CURVE SMOOTH",
"277 437 OFFCURVE",
"311 488 OFFCURVE",
"326 564 CURVE SMOOTH",
"341 640 OFFCURVE",
"323 692 OFFCURVE",
"275 692 CURVE SMOOTH",
"275 692 LINE SMOOTH"
);
},
{
closed = 1;
nodes = (
"594 78 OFFCURVE",
"532 -8 OFFCURVE",
"437 -8 CURVE SMOOTH",
"341 -8 OFFCURVE",
"314 82 OFFCURVE",
"329 159 CURVE SMOOTH",
"343 231 OFFCURVE",
"406 326 OFFCURVE",
"502 326 CURVE SMOOTH",
"603 326 OFFCURVE",
"625 234 OFFCURVE",
"610 159 CURVE SMOOTH",
"610 159 LINE SMOOTH"
);
},
{
closed = 1;
nodes = (
"445 287 OFFCURVE",
"408 226 OFFCURVE",
"395 159 CURVE SMOOTH",
"379 80 OFFCURVE",
"401 31 OFFCURVE",
"445 31 CURVE SMOOTH",
"496 31 OFFCURVE",
"530 83 OFFCURVE",
"545 159 CURVE SMOOTH",
"560 235 OFFCURVE",
"543 287 OFFCURVE",
"494 287 CURVE SMOOTH",
"494 287 LINE SMOOTH"
);
}
);
};
layerId = "450B03F6-B4AD-41C0-900A-B61992C84FEB";
paths = (
{
closed = 1;
nodes = (
"808 1033 OFFCURVE",
"673 813 OFFCURVE",
"456 813 CURVE SMOOTH",
"289 813 OFFCURVE",
"217 953 OFFCURVE",
"217 1092 CURVE SMOOTH",
"217 1282 OFFCURVE",
"363 1498 OFFCURVE",
"569 1498 CURVE SMOOTH",
"740 1498 OFFCURVE",
"808 1364 OFFCURVE",
"808 1231 CURVE SMOOTH",
"808 1231 LINE SMOOTH"
);
},
{
closed = 1;
nodes = (
"303 3 LINE SMOOTH",
"290 -16 OFFCURVE",
"280 -17 OFFCURVE",
"227 -17 CURVE SMOOTH",
"172 -17 OFFCURVE",
"166 -16 OFFCURVE",
"179 3 CURVE SMOOTH",
"1192 1478 LINE SMOOTH",
"1205 1497 OFFCURVE",
"1216 1498 OFFCURVE",
"1262 1498 CURVE SMOOTH",
"1311 1498 OFFCURVE",
"1323 1496 OFFCURVE",
"1311 1478 CURVE SMOOTH",
"1311 1478 LINE"
);
},
{
closed = 1;
nodes = (
"1257 203 OFFCURVE",
"1122 -17 OFFCURVE",
"905 -17 CURVE SMOOTH",
"738 -17 OFFCURVE",
"666 123 OFFCURVE",
"666 262 CURVE SMOOTH",
"666 452 OFFCURVE",
"812 668 OFFCURVE",
"1018 668 CURVE SMOOTH",
"1189 668 OFFCURVE",
"1257 534 OFFCURVE",
"1257 401 CURVE SMOOTH",
"1257 401 LINE SMOOTH"
);
},
{
closed = 1;
nodes = (
"677 1353 OFFCURVE",
"632 1417 OFFCURVE",
"563 1417 CURVE SMOOTH",
"418 1417 OFFCURVE",
"351 1178 OFFCURVE",
"351 1055 CURVE SMOOTH",
"351 954 OFFCURVE",
"400 894 OFFCURVE",
"462 894 CURVE SMOOTH",
"615 894 OFFCURVE",
"677 1127 OFFCURVE",
"677 1251 CURVE SMOOTH",
"677 1251 LINE SMOOTH"
);
},
{
closed = 1;
nodes = (
"1125 523 OFFCURVE",
"1081 587 OFFCURVE",
"1012 587 CURVE SMOOTH",
"867 587 OFFCURVE",
"799 348 OFFCURVE",
"799 225 CURVE SMOOTH",
"799 124 OFFCURVE",
"848 64 OFFCURVE",
"910 64 CURVE SMOOTH",
"1063 64 OFFCURVE",
"1125 297 OFFCURVE",
"1125 421 CURVE SMOOTH",
"1125 421 LINE SMOOTH"
);
}
);
userData = {
com.adobe.type.autohint = "b''";
};
width = 1386;
},
{
background = {
paths = (
{
closed = 1;
nodes = (
"395 483 OFFCURVE",
"322 397 OFFCURVE",
"228 397 CURVE SMOOTH",
"131 397 OFFCURVE",
"95 487 OFFCURVE",
"110 564 CURVE SMOOTH",
"124 636 OFFCURVE",
"194 731 OFFCURVE",
"293 731 CURVE SMOOTH",
"394 731 OFFCURVE",
"425 639 OFFCURVE",
"410 564 CURVE SMOOTH",
"410 564 LINE SMOOTH"
);
},
{
closed = 1;
nodes = (
"177 1 LINE SMOOTH",
"170 -8 OFFCURVE",
"165 -8 OFFCURVE",
"131 -8 CURVE SMOOTH",
"95 -8 OFFCURVE",
"91 -7 OFFCURVE",
"96 1 CURVE SMOOTH",
"592 722 LINE SMOOTH",
"598 730 OFFCURVE",
"606 731 OFFCURVE",
"636 731 CURVE SMOOTH",
"668 731 OFFCURVE",
"675 730 OFFCURVE",
"670 722 CURVE SMOOTH",
"670 722 LINE"
);
},
{
closed = 1;
nodes = (
"321 640 OFFCURVE",
"330 702 OFFCURVE",
"287 702 CURVE SMOOTH",
"251 702 OFFCURVE",
"229 639 OFFCURVE",
"215 564 CURVE SMOOTH",
"199 485 OFFCURVE",
"197 427 OFFCURVE",
"233 427 CURVE SMOOTH",
"276 427 OFFCURVE",
"292 488 OFFCURVE",
"306 564 CURVE SMOOTH",
"306 564 LINE SMOOTH"
);
},
{
closed = 1;
nodes = (
"633 78 OFFCURVE",
"561 -8 OFFCURVE",
"466 -8 CURVE SMOOTH",
"370 -8 OFFCURVE",
"333 82 OFFCURVE",
"348 159 CURVE SMOOTH",
"362 231 OFFCURVE",
"433 326 OFFCURVE",
"531 326 CURVE SMOOTH",
"632 326 OFFCURVE",
"664 234 OFFCURVE",
"649 159 CURVE SMOOTH",
"649 159 LINE SMOOTH"
);
},
{
closed = 1;
nodes = (
"560 235 OFFCURVE",
"568 296 OFFCURVE",
"525 296 CURVE SMOOTH",
"489 296 OFFCURVE",
"468 233 OFFCURVE",
"453 159 CURVE SMOOTH",
"438 80 OFFCURVE",
"436 21 OFFCURVE",
"472 21 CURVE SMOOTH",
"515 21 OFFCURVE",
"530 83 OFFCURVE",
"545 159 CURVE SMOOTH",
"545 159 LINE SMOOTH"
);
}
);
};
layerId = "B00507B9-787D-4BFE-8F64-5743BFDB1312";
paths = (
{
closed = 1;
nodes = (
"847 993 OFFCURVE",
"680 813 OFFCURVE",
"476 813 CURVE SMOOTH",
"306 813 OFFCURVE",
"218 947 OFFCURVE",
"218 1097 CURVE SMOOTH",
"218 1309 OFFCURVE",
"386 1498 OFFCURVE",
"589 1498 CURVE SMOOTH",
"770 1498 OFFCURVE",
"847 1362 OFFCURVE",
"847 1205 CURVE SMOOTH",
"847 1205 LINE SMOOTH"
);
},
{
closed = 1;
nodes = (
"362 3 LINE SMOOTH",
"349 -15 OFFCURVE",
"339 -17 OFFCURVE",
"268 -17 CURVE SMOOTH",
"194 -17 OFFCURVE",
"186 -14 OFFCURVE",
"198 3 CURVE SMOOTH",
"1212 1478 LINE SMOOTH",
"1224 1495 OFFCURVE",
"1241 1498 OFFCURVE",
"1302 1498 CURVE SMOOTH",
"1367 1498 OFFCURVE",
"1383 1496 OFFCURVE",
"1371 1478 CURVE SMOOTH",
"1371 1478 LINE"
);
},
{
closed = 1;
nodes = (
"1336 163 OFFCURVE",
"1169 -17 OFFCURVE",
"965 -17 CURVE SMOOTH",
"795 -17 OFFCURVE",
"707 117 OFFCURVE",
"707 267 CURVE SMOOTH {name = hr01;}",
"707 479 OFFCURVE",
"875 668 OFFCURVE",
"1078 668 CURVE SMOOTH",
"1259 668 OFFCURVE",
"1336 532 OFFCURVE",
"1336 375 CURVE SMOOTH",
"1336 375 LINE SMOOTH"
);
},
{
closed = 1;
nodes = (
"652 1398 OFFCURVE",
"636 1437 OFFCURVE",
"587 1437 CURVE SMOOTH",
"473 1437 OFFCURVE",
"418 1091 OFFCURVE",
"418 988 CURVE SMOOTH",
"418 920 OFFCURVE",
"433 874 OFFCURVE",
"478 874 CURVE SMOOTH",
"601 874 OFFCURVE",
"652 1229 OFFCURVE",
"652 1336 CURVE SMOOTH",
"652 1336 LINE SMOOTH {name = hr02;}"
);
},
{
closed = 1;
nodes = (
"1141 568 OFFCURVE",
"1125 607 OFFCURVE",
"1076 607 CURVE SMOOTH",
"962 607 OFFCURVE",
"907 261 OFFCURVE",
"907 158 CURVE SMOOTH {name = hr03;}",
"907 90 OFFCURVE",
"922 44 OFFCURVE",
"967 44 CURVE SMOOTH",
"1090 44 OFFCURVE",
"1141 399 OFFCURVE",
"1141 506 CURVE SMOOTH",
"1141 506 LINE SMOOTH"
);
}
);
userData = {
com.adobe.type.autohint = "b''";
};
width = 1466;
}
);
unicode = 0025;
},
{
glyphname = ampersand;
layers = (
{
background = {
paths = (
{
closed = 1;
nodes = (
"529 18 OFFCURVE",
"519 9 OFFCURVE",
"486 -5 CURVE SMOOTH",
"455 -18 OFFCURVE",
"447 -20 OFFCURVE",
"440 -14 CURVE SMOOTH",
"413 10 OFFCURVE",
"386 42 OFFCURVE",
"359 78 CURVE",
"301 26 OFFCURVE",
"238 -8 OFFCURVE",
"175 -8 CURVE SMOOTH",
"77 -8 OFFCURVE",
"5 23 OFFCURVE",
"29 147 CURVE SMOOTH",
"47 243 OFFCURVE",
"127 314 OFFCURVE",
"211 376 CURVE",
"194 438 OFFCURVE",
"188 498 OFFCURVE",
"197 548 CURVE SMOOTH",
"222 676 OFFCURVE",
"311 731 OFFCURVE",
"384 731 CURVE SMOOTH",
"472 731 OFFCURVE",
"515 684 OFFCURVE",
"499 599 CURVE SMOOTH",
"484 525 OFFCURVE",
"379 452 OFFCURVE",
"279 372 CURVE",
"300 300 OFFCURVE",
"336 227 OFFCURVE",
"380 163 CURVE",
"461 263 OFFCURVE",
"520 393 OFFCURVE",
"517 444 CURVE SMOOTH",
"517 449 OFFCURVE",
"528 448 OFFCURVE",
"561 437 CURVE SMOOTH",
"589 427 OFFCURVE",
"596 425 OFFCURVE",
"594 420 CURVE SMOOTH",
"556 331 OFFCURVE",
"489 215 OFFCURVE",
"408 126 CURVE",
"443 82 OFFCURVE",
"483 46 OFFCURVE",
"523 21 CURVE SMOOTH",
"523 21 LINE SMOOTH"
);
},
{
closed = 1;
nodes = (
"443 649 OFFCURVE",
"421 692 OFFCURVE",
"377 692 CURVE SMOOTH",
"332 692 OFFCURVE",
"277 618 OFFCURVE",
"265 555 CURVE SMOOTH",
"257 514 OFFCURVE",
"259 467 OFFCURVE",
"268 418 CURVE",
"348 475 OFFCURVE",
"419 527 OFFCURVE",
"432 590 CURVE SMOOTH",
"432 590 LINE SMOOTH"
);
},
{
closed = 1;
nodes = (
"291 178 OFFCURVE",
"252 254 OFFCURVE",
"226 328 CURVE",
"163 274 OFFCURVE",
"110 216 OFFCURVE",
"98 153 CURVE SMOOTH",
"85 85 OFFCURVE",
"109 34 OFFCURVE",
"181 34 CURVE SMOOTH",
"233 34 OFFCURVE",
"286 66 OFFCURVE",
"334 113 CURVE",
"334 113 LINE"
);
}
);
};
layerId = "450B03F6-B4AD-41C0-900A-B61992C84FEB";
paths = (
{
closed = 1;
nodes = (
"1139 678 OFFCURVE",
"1001 440 OFFCURVE",
"835 258 CURVE",
"907 169 OFFCURVE",
"989 94 OFFCURVE",
"1072 44 CURVE SMOOTH",
"1084 37 OFFCURVE",
"1063 19 OFFCURVE",
"995 -10 CURVE SMOOTH",
"932 -37 OFFCURVE",
"916 -41 OFFCURVE",
"902 -28 CURVE SMOOTH",
"847 21 OFFCURVE",
"791 85 OFFCURVE",
"736 159 CURVE",
"617 53 OFFCURVE",
"498 -17 OFFCURVE",
"369 -17 CURVE SMOOTH {name = hr01;}",
"196 -17 OFFCURVE",
"50 38 OFFCURVE",
"50 212 CURVE SMOOTH",
"50 464 OFFCURVE",
"249 634 OFFCURVE",
"432 770 CURVE",
"408 856 OFFCURVE",
"395 945 OFFCURVE",
"395 1025 CURVE SMOOTH",
"395 1252 OFFCURVE",
"534 1498 OFFCURVE",
"787 1498 CURVE SMOOTH",
"945 1498 OFFCURVE",
"1027 1412 OFFCURVE",
"1027 1275 CURVE SMOOTH",
"1027 1057 OFFCURVE",
"724 884 OFFCURVE",
"572 763 CURVE",
"614 615 OFFCURVE",
"687 463 OFFCURVE",
"778 334 CURVE",
"945 539 OFFCURVE",
"1066 805 OFFCURVE",
"1059 910 CURVE SMOOTH",
"1058 920 OFFCURVE",
"1082 917 OFFCURVE",
"1148 895 CURVE SMOOTH",
"1207 875 OFFCURVE",
"1221 870 OFFCURVE",
"1217 860 CURVE SMOOTH",
"1217 860 LINE SMOOTH"
);
},
{
closed = 1;
nodes = (
"890 1351 OFFCURVE",
"850 1417 OFFCURVE",
"771 1417 CURVE SMOOTH",
"623 1417 OFFCURVE",
"533 1161 OFFCURVE",
"533 1031 CURVE SMOOTH",
"533 975 OFFCURVE",
"538 915 OFFCURVE",
"550 855 CURVE",
"681 949 OFFCURVE",
"890 1074 OFFCURVE",
"890 1253 CURVE SMOOTH",
"890 1253 LINE SMOOTH"
);
},
{
closed = 1;
nodes = (
"595 365 OFFCURVE",
"515 519 OFFCURVE",
"462 672 CURVE",
"336 563 OFFCURVE",
"194 420 OFFCURVE",
"194 241 CURVE SMOOTH",
"194 140 OFFCURVE",
"250 70 OFFCURVE",
"372 70 CURVE SMOOTH",
"477 70 OFFCURVE",
"585 136 OFFCURVE",
"684 232 CURVE",
"684 232 LINE"
);
}
);
userData = {
com.adobe.type.autohint = "b''";
};
width = 1267;
},
{
background = {
paths = (
{
closed = 1;
nodes = (
"553 62 OFFCURVE",
"548 51 OFFCURVE",
"507 21 CURVE SMOOTH",
"474 -4 OFFCURVE",
"429 -15 OFFCURVE",
"422 -8 CURVE SMOOTH",
"398 13 OFFCURVE",
"375 39 OFFCURVE",
"352 68 CURVE",
"296 22 OFFCURVE",
"236 -8 OFFCURVE",
"175 -8 CURVE SMOOTH",
"77 -8 OFFCURVE",
"-5 23 OFFCURVE",
"19 147 CURVE SMOOTH",
"40 256 OFFCURVE",
"116 320 OFFCURVE",
"195 376 CURVE",
"178 438 OFFCURVE",
"173 497 OFFCURVE",
"183 548 CURVE SMOOTH",
"208 676 OFFCURVE",
"311 731 OFFCURVE",
"384 731 CURVE SMOOTH",
"472 731 OFFCURVE",
"525 684 OFFCURVE",
"509 599 CURVE SMOOTH",
"493 518 OFFCURVE",
"385 459 OFFCURVE",
"292 381 CURVE",
"305 316 OFFCURVE",
"334 249 OFFCURVE",
"391 186 CURVE",
"448 277 OFFCURVE",
"482 394 OFFCURVE",
"478 444 CURVE SMOOTH",
"477 453 OFFCURVE",
"484 456 OFFCURVE",
"536 437 CURVE SMOOTH",
"591 417 OFFCURVE",
"594 410 OFFCURVE",
"591 405 CURVE SMOOTH",
"557 326 OFFCURVE",
"500 227 OFFCURVE",
"431 147 CURVE",
"463 118 OFFCURVE",
"501 91 OFFCURVE",
"547 65 CURVE SMOOTH",
"547 65 LINE SMOOTH"
);
},
{
closed = 1;
nodes = (
"409 649 OFFCURVE",
"413 702 OFFCURVE",
"379 702 CURVE SMOOTH",
"334 702 OFFCURVE",
"310 647 OFFCURVE",
"292 555 CURVE SMOOTH",
"286 520 OFFCURVE",
"282 481 OFFCURVE",
"284 439 CURVE",
"340 481 OFFCURVE",
"385 526 OFFCURVE",
"397 590 CURVE SMOOTH",
"397 590 LINE SMOOTH"
);
},
{
closed = 1;
nodes = (
"282 166 OFFCURVE",
"243 236 OFFCURVE",
"217 307 CURVE",
"186 270 OFFCURVE",
"162 228 OFFCURVE",
"153 177 CURVE SMOOTH",
"139 107 OFFCURVE",
"163 65 OFFCURVE",
"231 65 CURVE SMOOTH",
"265 65 OFFCURVE",
"296 80 OFFCURVE",
"324 105 CURVE",
"324 105 LINE"
);
}
);
};
layerId = "B00507B9-787D-4BFE-8F64-5743BFDB1312";
paths = (
{
closed = 1;
nodes = (
"1141 667 OFFCURVE",
"1025 465 OFFCURVE",
"883 300 CURVE",
"948 242 OFFCURVE",
"1026 186 OFFCURVE",
"1120 134 CURVE SMOOTH",
"1132 127 OFFCURVE",
"1122 104 OFFCURVE",
"1039 42 CURVE SMOOTH",
"971 -9 OFFCURVE",
"878 -30 OFFCURVE",
"864 -17 CURVE SMOOTH {name = hr01;}",
"816 27 OFFCURVE",
"767 80 OFFCURVE",
"720 139 CURVE",
"606 45 OFFCURVE",
"493 -17 OFFCURVE",
"369 -17 CURVE SMOOTH",
"196 -17 OFFCURVE",
"32 35 OFFCURVE",
"32 211 CURVE SMOOTH",
"32 468 OFFCURVE",
"208 634 OFFCURVE",
"399 770 CURVE",
"376 856 OFFCURVE",
"364 945 OFFCURVE",
"364 1026 CURVE SMOOTH",
"364 1262 OFFCURVE",
"519 1498 OFFCURVE",
"777 1498 CURVE SMOOTH",
"936 1498 OFFCURVE",
"1047 1414 OFFCURVE",
"1047 1276 CURVE SMOOTH",
"1047 1057 OFFCURVE",
"744 903 OFFCURVE",
"597 780 CURVE",
"623 648 OFFCURVE",
"685 511 OFFCURVE",
"802 381 CURVE",
"919 567 OFFCURVE",
"988 807 OFFCURVE",
"979 910 CURVE SMOOTH",
"977 928 OFFCURVE",
"992 934 OFFCURVE",
"1098 895 CURVE SMOOTH",
"1210 854 OFFCURVE",
"1215 840 OFFCURVE",
"1211 830 CURVE SMOOTH",
"1211 830 LINE SMOOTH"
);
},
{
closed = 1;
nodes = (
"830 1394 OFFCURVE",
"821 1438 OFFCURVE",
"776 1438 CURVE SMOOTH",
"632 1438 OFFCURVE",
"588 1110 OFFCURVE",
"581 985 CURVE SMOOTH",
"580 957 OFFCURVE",
"580 928 OFFCURVE",
"582 899 CURVE",
"745 1021 OFFCURVE",
"830 1128 OFFCURVE",
"830 1331 CURVE SMOOTH",
"830 1331 LINE SMOOTH"
);
},
{
closed = 1;
nodes = (
"576 339 OFFCURVE",
"499 484 OFFCURVE",
"444 629 CURVE",
"364 552 OFFCURVE",
"305 418 OFFCURVE",
"305 293 CURVE SMOOTH",
"305 192 OFFCURVE",
"359 133 OFFCURVE",
"474 133 CURVE SMOOTH",
"542 133 OFFCURVE",
"606 164 OFFCURVE",
"664 214 CURVE",
"664 214 LINE"
);
}
);
userData = {
com.adobe.type.autohint = "b''";
};
width = 1267;
}
);
unicode = 0026;
},
{
glyphname = quotesingle;
layers = (
{
background = {
paths = (
{
closed = 1;
nodes = (
"226 639 OFFCURVE",
"218 617 OFFCURVE",
"199 563 CURVE SMOOTH",
"144 405 LINE SMOOTH",
"141 397 OFFCURVE",
"117 398 OFFCURVE",
"117 405 CURVE SMOOTH",
"124 563 LINE SMOOTH",
"126 610 OFFCURVE",
"124 629 OFFCURVE",
"128 646 CURVE SMOOTH",
"136 692 OFFCURVE",
"155 711 OFFCURVE",
"191 711 CURVE SMOOTH",
"225 711 OFFCURVE",
"235 685 OFFCURVE",
"229 654 CURVE SMOOTH",
"229 654 LINE SMOOTH"
);
}
);
};
layerId = "450B03F6-B4AD-41C0-900A-B61992C84FEB";
paths = (
{
closed = 1;
nodes = (
"462 1308 OFFCURVE",
"447 1264 OFFCURVE",
"408 1154 CURVE SMOOTH",
"294 830 LINE SMOOTH",
"289 814 OFFCURVE",
"239 816 OFFCURVE",
"239 830 CURVE SMOOTH",
"254 1154 LINE SMOOTH",
"259 1248 OFFCURVE",
"254 1288 OFFCURVE",
"261 1323 CURVE SMOOTH",
"279 1417 OFFCURVE",
"318 1457 OFFCURVE",
"390 1457 CURVE SMOOTH",
"460 1457 OFFCURVE",
"481 1403 OFFCURVE",
"468 1339 CURVE SMOOTH",
"468 1339 LINE SMOOTH"
);
}
);
width = 412;
},
{
background = {
paths = (
{
closed = 1;
nodes = (
"371 172 OFFCURVE",
"371 170 OFFCURVE",
"371 170 CURVE",
"371 172 LINE"
);
},
{
closed = 1;
nodes = (
"328 -188 OFFCURVE",
"312 -166 OFFCURVE",
"290 -166 CURVE SMOOTH",
"263 -166 OFFCURVE",
"249 -186 OFFCURVE",
"249 -208 CURVE SMOOTH",
"249 -227 OFFCURVE",
"268 -245 OFFCURVE",
"290 -245 CURVE SMOOTH",
"314 -245 OFFCURVE",
"328 -230 OFFCURVE",
"328 -205 CURVE SMOOTH",
"328 -205 LINE SMOOTH"
);
},
{
closed = 1;
nodes = (
"420 -202 OFFCURVE",
"354 -278 OFFCURVE",
"293 -278 CURVE SMOOTH",
"250 -278 OFFCURVE",
"218 -248 OFFCURVE",
"218 -205 CURVE SMOOTH",
"218 -167 OFFCURVE",
"248 -138 OFFCURVE",
"288 -138 CURVE SMOOTH",
"323 -138 OFFCURVE",
"349 -166 OFFCURVE",
"350 -189 CURVE",
"363 -142 OFFCURVE",
"373 -62 OFFCURVE",
"373 59 CURVE",
"342 19 OFFCURVE",
"295 -8 OFFCURVE",
"228 -8 CURVE SMOOTH",
"105 -8 OFFCURVE",
"36 97 OFFCURVE",
"36 216 CURVE SMOOTH",
"36 348 OFFCURVE",
"107 442 OFFCURVE",
"228 442 CURVE SMOOTH",
"360 442 OFFCURVE",
"419 345 OFFCURVE",
"419 216 CURVE SMOOTH",
"419 208 OFFCURVE",
"418 201 OFFCURVE",
"418 194 CURVE SMOOTH",
"417 162 OFFCURVE",
"420 119 OFFCURVE",
"420 76 CURVE SMOOTH",
"420 76 LINE SMOOTH"
);
},
{
closed = 1;
nodes = (
"358 339 OFFCURVE",
"304 405 OFFCURVE",
"228 405 CURVE SMOOTH",
"152 405 OFFCURVE",
"97 341 OFFCURVE",
"97 216 CURVE SMOOTH",
"97 90 OFFCURVE",
"154 29 OFFCURVE",
"228 29 CURVE SMOOTH",
"306 29 OFFCURVE",
"358 94 OFFCURVE",
"358 216 CURVE SMOOTH",
"358 216 LINE SMOOTH"
);
}
);
};
layerId = "B00507B9-787D-4BFE-8F64-5743BFDB1312";
paths = (
{
closed = 1;
nodes = (
"480 1287 OFFCURVE",
"457 1207 OFFCURVE",
"413 1103 CURVE SMOOTH",
"278 776 LINE SMOOTH",
"272 762 OFFCURVE",
"232 764 OFFCURVE",
"232 776 CURVE SMOOTH",
"224 1105 LINE SMOOTH",
"222 1194 OFFCURVE",
"231 1267 OFFCURVE",
"238 1302 CURVE SMOOTH",
"261 1420 OFFCURVE",
"318 1457 OFFCURVE",
"388 1457 CURVE SMOOTH",
"459 1457 OFFCURVE",
"503 1407 OFFCURVE",
"486 1315 CURVE SMOOTH",
"486 1315 LINE SMOOTH"
);
}
);
width = 412;
}
);
unicode = 0027;
},
{
glyphname = parenleft;
layers = (
{
background = {
paths = (
{
closed = 1;
nodes = (
"278 -306 OFFCURVE",
"253 -306 OFFCURVE",
"227 -293 CURVE SMOOTH",
"115 -241 OFFCURVE",
"14 -82 OFFCURVE",
"75 231 CURVE SMOOTH",
"139 561 OFFCURVE",
"305 703 OFFCURVE",
"433 767 CURVE SMOOTH",
"463 782 OFFCURVE",
"490 787 OFFCURVE",
"498 782 CURVE SMOOTH",
"503 779 OFFCURVE",
"494 770 OFFCURVE",
"456 752 CURVE SMOOTH",
"372 712 OFFCURVE",
"204 540 OFFCURVE",
"145 235 CURVE SMOOTH",
"86 -69 OFFCURVE",
"182 -242 OFFCURVE",
"256 -273 CURVE SMOOTH",
"290 -288 OFFCURVE",
"293 -297 OFFCURVE",
"287 -300 CURVE SMOOTH",
"287 -300 LINE SMOOTH"
);
}
);
};
layerId = "450B03F6-B4AD-41C0-900A-B61992C84FEB";
paths = (
{
closed = 1;
nodes = (
"570 -627 OFFCURVE",
"518 -626 OFFCURVE",
"464 -601 CURVE SMOOTH",
"284 -517 OFFCURVE",
"116 -283 OFFCURVE",
"116 127 CURVE SMOOTH",
"116 695 OFFCURVE",
"358 1304 OFFCURVE",
"886 1571 CURVE SMOOTH",
"948 1602 OFFCURVE",
"1004 1612 OFFCURVE",
"1019 1602 CURVE SMOOTH",
"1029 1596 OFFCURVE",
"1011 1577 OFFCURVE",
"933 1540 CURVE SMOOTH",
"512 1341 OFFCURVE",
"259 578 OFFCURVE",
"259 119 CURVE SMOOTH",
"259 -280 OFFCURVE",
"406 -510 OFFCURVE",
"525 -560 CURVE SMOOTH",
"593 -589 OFFCURVE",
"600 -607 OFFCURVE",
"588 -615 CURVE SMOOTH",
"588 -615 LINE SMOOTH"
);
}
);
userData = {
com.adobe.type.autohint = "b''";
};
width = 705;
},
{
background = {
paths = (
{
closed = 1;
nodes = (
"285 -306 OFFCURVE",
"264 -303 OFFCURVE",
"238 -291 CURVE SMOOTH",
"127 -239 OFFCURVE",
"12 -82 OFFCURVE",
"75 231 CURVE SMOOTH",
"139 554 OFFCURVE",
"325 712 OFFCURVE",
"444 772 CURVE SMOOTH",
"472 786 OFFCURVE",
"504 787 OFFCURVE",
"508 777 CURVE SMOOTH",
"511 771 OFFCURVE",
"502 766 OFFCURVE",
"465 747 CURVE SMOOTH",
"386 704 OFFCURVE",
"248 519 OFFCURVE",
"193 236 CURVE SMOOTH",
"141 -33 OFFCURVE",
"210 -236 OFFCURVE",
"268 -266 CURVE SMOOTH",
"298 -281 OFFCURVE",
"307 -293 OFFCURVE",
"299 -298 CURVE SMOOTH",
"299 -298 LINE SMOOTH"
);
}
);
};
layerId = "B00507B9-787D-4BFE-8F64-5743BFDB1312";
paths = (
{
closed = 1;
nodes = (
"584 -627 OFFCURVE",
"541 -621 OFFCURVE",
"487 -596 CURVE SMOOTH",
"302 -509 OFFCURVE",
"117 -254 OFFCURVE",
"117 183 CURVE SMOOTH",
"117 746 OFFCURVE",
"390 1322 OFFCURVE",
"910 1581 CURVE SMOOTH",
"967 1609 OFFCURVE",
"1032 1611 OFFCURVE",
"1041 1591 CURVE SMOOTH",
"1046 1580 OFFCURVE",
"1029 1570 OFFCURVE",
"952 1529 CURVE SMOOTH",
"590 1336 OFFCURVE",
"357 495 OFFCURVE",
"357 74 CURVE SMOOTH",
"357 -268 OFFCURVE",
"461 -499 OFFCURVE",
"549 -544 CURVE SMOOTH",
"611 -575 OFFCURVE",
"628 -599 OFFCURVE",
"611 -610 CURVE SMOOTH",
"611 -610 LINE SMOOTH"
);
}
);
userData = {
com.adobe.type.autohint = "b''";
};
width = 728;
}
);
unicode = 0028;
},
{
glyphname = parenright;
layers = (
{
background = {
paths = (
{
closed = 1;
nodes = (
"205 -63 OFFCURVE",
"38 -204 OFFCURVE",
"-89 -269 CURVE SMOOTH",
"-119 -284 OFFCURVE",
"-147 -289 OFFCURVE",
"-154 -284 CURVE SMOOTH",
"-159 -281 OFFCURVE",
"-151 -271 OFFCURVE",
"-113 -253 CURVE SMOOTH",
"-29 -214 OFFCURVE",
"139 -42 OFFCURVE",
"198 263 CURVE SMOOTH",
"257 567 OFFCURVE",
"161 741 OFFCURVE",
"87 772 CURVE SMOOTH",
"54 786 OFFCURVE",
"50 795 OFFCURVE",
"56 799 CURVE SMOOTH",
"65 805 OFFCURVE",
"91 804 OFFCURVE",
"117 792 CURVE SMOOTH",
"228 740 OFFCURVE",
"330 581 OFFCURVE",
"269 268 CURVE SMOOTH",
"269 268 LINE SMOOTH"
);
}
);
};
layerId = "450B03F6-B4AD-41C0-900A-B61992C84FEB";
paths = (
{
closed = 1;
nodes = (
"-244 -581 OFFCURVE",
"-301 -591 OFFCURVE",
"-316 -581 CURVE SMOOTH",
"-326 -575 OFFCURVE",
"-309 -556 OFFCURVE",
"-231 -519 CURVE SMOOTH",
"193 -320 OFFCURVE",
"443 445 OFFCURVE",
"443 906 CURVE SMOOTH",
"443 1302 OFFCURVE",
"297 1531 OFFCURVE",
"178 1581 CURVE SMOOTH",
"110 1610 OFFCURVE",
"102 1628 OFFCURVE",
"114 1636 CURVE SMOOTH",
"132 1648 OFFCURVE",
"186 1647 OFFCURVE",
"239 1622 CURVE SMOOTH",
"420 1537 OFFCURVE",
"588 1303 OFFCURVE",
"588 891 CURVE SMOOTH",
"588 323 OFFCURVE",
"344 -284 OFFCURVE",
"-183 -550 CURVE SMOOTH",
"-183 -550 LINE SMOOTH"
);
}
);
userData = {
com.adobe.type.autohint = "b''";
};
width = 705;
},
{
background = {
paths = (
{
closed = 1;
nodes = (
"212 -75 OFFCURVE",
"26 -233 OFFCURVE",
"-94 -293 CURVE SMOOTH",
"-121 -307 OFFCURVE",
"-154 -308 OFFCURVE",
"-158 -298 CURVE SMOOTH",
"-160 -292 OFFCURVE",
"-152 -287 OFFCURVE",
"-115 -268 CURVE SMOOTH",
"-35 -225 OFFCURVE",
"103 -40 OFFCURVE",
"158 244 CURVE SMOOTH",
"210 512 OFFCURVE",
"140 715 OFFCURVE",
"82 745 CURVE SMOOTH",
"52 760 OFFCURVE",
"44 772 OFFCURVE",
"52 777 CURVE SMOOTH",
"65 785 OFFCURVE",
"87 782 OFFCURVE",
"113 770 CURVE SMOOTH",
"224 718 OFFCURVE",
"339 561 OFFCURVE",
"276 248 CURVE SMOOTH",
"276 248 LINE SMOOTH"
);
}
);
};
layerId = "B00507B9-787D-4BFE-8F64-5743BFDB1312";
paths = (
{
closed = 1;
nodes = (
"-248 -628 OFFCURVE",
"-315 -630 OFFCURVE",
"-324 -610 CURVE SMOOTH",
"-329 -599 OFFCURVE",
"-311 -589 OFFCURVE",
"-235 -548 CURVE SMOOTH",
"124 -357 OFFCURVE",
"361 474 OFFCURVE",
"361 890 CURVE SMOOTH",
"361 1242 OFFCURVE",
"258 1480 OFFCURVE",
"168 1525 CURVE SMOOTH",
"107 1556 OFFCURVE",
"89 1580 OFFCURVE",
"106 1591 CURVE SMOOTH",
"133 1608 OFFCURVE",
"178 1602 OFFCURVE",
"232 1577 CURVE SMOOTH",
"403 1497 OFFCURVE",
"600 1273 OFFCURVE",
"600 893 CURVE SMOOTH",
"600 304 OFFCURVE",
"350 -331 OFFCURVE",
"-192 -600 CURVE SMOOTH",
"-192 -600 LINE SMOOTH"
);
}
);
userData = {
com.adobe.type.autohint = "b''";
};
width = 728;
}
);
unicode = 0029;
},
{
glyphname = asterisk;
layers = (
{
background = {
paths = (
{
closed = 1;
nodes = (
"395 588 OFFCURVE",
"444 622 OFFCURVE",
"505 641 CURVE SMOOTH",
"520 645 OFFCURVE",
"521 640 OFFCURVE",
"525 614 CURVE SMOOTH",
"528 585 OFFCURVE",
"529 579 OFFCURVE",
"513 575 CURVE SMOOTH",
"452 556 OFFCURVE",
"398 561 OFFCURVE",
"337 537 CURVE",
"359 484 OFFCURVE",
"399 454 OFFCURVE",
"424 406 CURVE SMOOTH",
"431 393 OFFCURVE",
"426 390 OFFCURVE",
"400 373 CURVE SMOOTH",
"372 355 OFFCURVE",
"367 353 OFFCURVE",
"360 365 CURVE SMOOTH",
"334 414 OFFCURVE",
"333 468 OFFCURVE",
"301 514 CURVE",
"252 467 OFFCURVE",
"227 414 OFFCURVE",
"182 366 CURVE SMOOTH",
"171 354 OFFCURVE",
"167 356 OFFCURVE",
"148 373 CURVE SMOOTH",
"126 391 OFFCURVE",
"123 394 OFFCURVE",
"134 407 CURVE SMOOTH",
"179 456 OFFCURVE",
"232 484 OFFCURVE",
"274 537 CURVE",
"222 560 OFFCURVE",
"167 558 OFFCURVE",
"113 576 CURVE SMOOTH",
"100 581 OFFCURVE",
"102 586 OFFCURVE",
"116 613 CURVE SMOOTH",
"131 642 OFFCURVE",
"134 647 OFFCURVE",
"147 642 CURVE SMOOTH",
"201 623 OFFCURVE",
"236 587 OFFCURVE",
"293 574 CURVE",
"310 635 OFFCURVE",
"301 686 OFFCURVE",
"312 746 CURVE SMOOTH",
"315 761 OFFCURVE",
"321 762 OFFCURVE",
"349 762 CURVE SMOOTH",
"379 762 OFFCURVE",
"385 761 OFFCURVE",
"382 746 CURVE SMOOTH",
"370 686 OFFCURVE",
"338 635 OFFCURVE",
"332 574 CURVE",
"332 574 LINE"
);
},
{
closed = 0;
nodes = (
"307 547 LINE"
);
}
);
};
layerId = "450B03F6-B4AD-41C0-900A-B61992C84FEB";
paths = (
{
closed = 1;
nodes = (
"1082 1197 OFFCURVE",
"1082 1186 OFFCURVE",
"1051 1177 CURVE SMOOTH",
"926 1139 OFFCURVE",
"815 1149 OFFCURVE",
"690 1099 CURVE",
"735 992 OFFCURVE",
"816 930 OFFCURVE",
"869 831 CURVE SMOOTH",
"883 806 OFFCURVE",
"873 798 OFFCURVE",
"820 765 CURVE SMOOTH",
"762 728 OFFCURVE",
"751 722 OFFCURVE",
"738 747 CURVE SMOOTH",
"685 848 OFFCURVE",
"682 958 OFFCURVE",
"616 1052 CURVE",
"516 956 OFFCURVE",
"465 849 OFFCURVE",
"374 749 CURVE SMOOTH",
"351 724 OFFCURVE",
"342 730 OFFCURVE",
"303 763 CURVE SMOOTH",
"259 800 OFFCURVE",
"252 808 OFFCURVE",
"275 833 CURVE SMOOTH",
"367 933 OFFCURVE",
"476 991 OFFCURVE",
"561 1099 CURVE",
"454 1147 OFFCURVE",
"341 1142 OFFCURVE",
"232 1180 CURVE SMOOTH",
"204 1190 OFFCURVE",
"209 1201 OFFCURVE",
"237 1255 CURVE SMOOTH",
"268 1315 OFFCURVE",
"274 1325 OFFCURVE",
"302 1315 CURVE SMOOTH",
"413 1277 OFFCURVE",
"483 1202 OFFCURVE",
"600 1175 CURVE",
"634 1300 OFFCURVE",
"616 1405 OFFCURVE",
"640 1528 CURVE SMOOTH",
"646 1559 OFFCURVE",
"657 1560 OFFCURVE",
"714 1560 CURVE SMOOTH",
"777 1560 OFFCURVE",
"788 1559 OFFCURVE",
"782 1528 CURVE SMOOTH",
"757 1404 OFFCURVE",
"692 1300 OFFCURVE",
"680 1175 CURVE",
"808 1205 OFFCURVE",
"909 1274 OFFCURVE",
"1034 1312 CURVE SMOOTH",
"1065 1322 OFFCURVE",
"1067 1311 OFFCURVE",
"1074 1257 CURVE SMOOTH",
"1074 1257 LINE SMOOTH"
);
}
);
userData = {
com.adobe.type.autohint = "b''";
};
width = 1025;
},
{
background = {
paths = (
{
closed = 1;
nodes = (
"535 566 OFFCURVE",
"526 555 OFFCURVE",
"511 550 CURVE SMOOTH",
"448 531 OFFCURVE",
"393 562 OFFCURVE",
"331 538 CURVE",
"355 487 OFFCURVE",
"417 474 OFFCURVE",
"444 425 CURVE SMOOTH",
"450 412 OFFCURVE",
"447 398 OFFCURVE",
"401 369 CURVE SMOOTH",
"354 339 OFFCURVE",
"341 343 OFFCURVE",
"335 355 CURVE SMOOTH",
"308 405 OFFCURVE",
"332 472 OFFCURVE",
"301 521 CURVE",
"253 471 OFFCURVE",
"249 406 OFFCURVE",
"203 357 CURVE SMOOTH",
"192 344 OFFCURVE",
"179 340 OFFCURVE",
"144 369 CURVE SMOOTH",
"108 399 OFFCURVE",
"109 414 OFFCURVE",
"121 426 CURVE SMOOTH",
"167 476 OFFCURVE",
"236 487 OFFCURVE",
"280 540 CURVE",
"225 561 OFFCURVE",
"161 533 OFFCURVE",
"106 552 CURVE SMOOTH",
"92 557 OFFCURVE",
"87 568 OFFCURVE",
"111 615 CURVE SMOOTH",
"137 664 OFFCURVE",
"151 669 OFFCURVE",
"164 665 CURVE SMOOTH",
"220 645 OFFCURVE",
"238 585 OFFCURVE",
"296 569 CURVE",
"310 632 OFFCURVE",
"275 680 OFFCURVE",
"287 741 CURVE SMOOTH",
"290 756 OFFCURVE",
"300 767 OFFCURVE",
"349 767 CURVE SMOOTH",
"401 767 OFFCURVE",
"408 756 OFFCURVE",
"405 741 CURVE SMOOTH",
"393 679 OFFCURVE",
"336 631 OFFCURVE",
"327 569 CURVE",
"391 586 OFFCURVE",
"434 643 OFFCURVE",
"496 662 CURVE SMOOTH",
"511 667 OFFCURVE",
"523 662 OFFCURVE",
"529 615 CURVE SMOOTH",
"529 615 LINE SMOOTH"
);
},
{
closed = 0;
nodes = (
"307 547 LINE"
);
}
);
};
layerId = "B00507B9-787D-4BFE-8F64-5743BFDB1312";
paths = (
{
closed = 1;
nodes = (
"1096 1160 OFFCURVE",
"1077 1136 OFFCURVE",
"1046 1126 CURVE SMOOTH",
"917 1087 OFFCURVE",
"806 1151 OFFCURVE",
"677 1103 CURVE",
"728 997 OFFCURVE",
"855 971 OFFCURVE",
"909 869 CURVE SMOOTH",
"922 844 OFFCURVE",
"915 816 OFFCURVE",
"821 756 CURVE SMOOTH",
"724 694 OFFCURVE",
"699 702 OFFCURVE",
"686 727 CURVE SMOOTH",
"631 830 OFFCURVE",
"680 967 OFFCURVE",
"617 1066 CURVE {name = hr01;}",
"519 965 OFFCURVE",
"509 832 OFFCURVE",
"415 730 CURVE SMOOTH",
"392 705 OFFCURVE",
"366 696 OFFCURVE",
"295 756 CURVE SMOOTH",
"222 818 OFFCURVE",
"224 847 OFFCURVE",
"247 872 CURVE SMOOTH",
"342 976 OFFCURVE",
"484 997 OFFCURVE",
"573 1105 CURVE",
"462 1149 OFFCURVE",
"329 1092 OFFCURVE",
"217 1131 CURVE SMOOTH",
"189 1141 OFFCURVE",
"178 1163 OFFCURVE",
"228 1259 CURVE SMOOTH",
"280 1360 OFFCURVE",
"309 1371 OFFCURVE",
"336 1361 CURVE SMOOTH",
"450 1322 OFFCURVE",
"488 1198 OFFCURVE",
"607 1166 CURVE",
"636 1294 OFFCURVE",
"563 1392 OFFCURVE",
"588 1518 CURVE SMOOTH",
"594 1549 OFFCURVE",
"614 1570 OFFCURVE",
"716 1570 CURVE SMOOTH {name = hr02;}",
"821 1570 OFFCURVE",
"836 1549 OFFCURVE",
"830 1518 CURVE SMOOTH",
"805 1390 OFFCURVE",
"687 1293 OFFCURVE",
"671 1164 CURVE",
"800 1200 OFFCURVE",
"888 1317 OFFCURVE",
"1016 1356 CURVE SMOOTH",
"1047 1366 OFFCURVE",
"1071 1357 OFFCURVE",
"1083 1260 CURVE SMOOTH",
"1083 1260 LINE SMOOTH"
);
}
);
userData = {
com.adobe.type.autohint = "b''";
};
width = 1025;
}
);
unicode = 002A;
},
{
glyphname = plus;
layers = (
{
layerId = "450B03F6-B4AD-41C0-900A-B61992C84FEB";
paths = (
{
closed = 1;
nodes = (
"1046 530 LINE",
"1046 0 LINE",
"924 0 LINE",
"924 530 LINE",
"394 530 LINE",
"394 652 LINE",
"924 652 LINE",
"924 1182 LINE",
"1046 1182 LINE",
"1046 652 LINE",
"1576 652 LINE",
"1576 530 LINE"
);
}
);
userData = {
com.adobe.type.autohint = "b''";
};
width = 1970;
},
{
layerId = "B00507B9-787D-4BFE-8F64-5743BFDB1312";
paths = (
{
closed = 1;
nodes = (
"1046 530 LINE",
"1046 0 LINE",
"924 0 LINE",
"924 530 LINE",
"394 530 LINE",
"394 652 LINE",
"924 652 LINE",
"924 1182 LINE",
"1046 1182 LINE",
"1046 652 LINE",
"1576 652 LINE",
"1576 530 LINE"
);
}
);
userData = {
com.adobe.type.autohint = "b''";
};
width = 1970;
}
);
unicode = 002B;
},
{
glyphname = comma;
layers = (
{
background = {
paths = (
{
closed = 1;
nodes = (
"82 -122 OFFCURVE",
"-35 -206 OFFCURVE",
"-37 -194 CURVE SMOOTH",
"-38 -184 OFFCURVE",
"55 -119 OFFCURVE",
"74 -17 CURVE SMOOTH",
"76 -6 OFFCURVE",
"73 6 OFFCURVE",
"69 6 CURVE SMOOTH",
"64 6 OFFCURVE",
"50 -8 OFFCURVE",
"38 -8 CURVE SMOOTH",
"16 -8 OFFCURVE",
"2 20 OFFCURVE",
"8 52 CURVE SMOOTH",
"15 90 OFFCURVE",
"46 110 OFFCURVE",
"66 110 CURVE SMOOTH",
"110 110 OFFCURVE",
"116 56 OFFCURVE",
"106 1 CURVE SMOOTH",
"106 1 LINE SMOOTH"
);
}
);
};
layerId = "450B03F6-B4AD-41C0-900A-B61992C84FEB";
paths = (
{
closed = 1;
nodes = (
"225 49 OFFCURVE",
"222 21 OFFCURVE",
"217 -7 CURVE SMOOTH",
"168 -260 OFFCURVE",
"-73 -423 OFFCURVE",
"-75 -397 CURVE SMOOTH",
"-77 -378 OFFCURVE",
"111 -244 OFFCURVE",
"152 -35 CURVE SMOOTH",
"153 -31 OFFCURVE",
"154 -25 OFFCURVE",
"154 -21 CURVE SMOOTH",
"155 -2 OFFCURVE",
"147 12 OFFCURVE",
"141 12 CURVE SMOOTH",
"131 12 OFFCURVE",
"108 -17 OFFCURVE",
"83 -17 CURVE SMOOTH",
"45 -17 OFFCURVE",
"15 30 OFFCURVE",
"14 84 CURVE SMOOTH",
"12 151 OFFCURVE",
"58 225 OFFCURVE",
"131 225 CURVE SMOOTH",
"199 225 OFFCURVE",
"225 157 OFFCURVE",
"225 76 CURVE SMOOTH",
"225 76 LINE SMOOTH"
);
}
);
userData = {
com.adobe.type.autohint = "b''";
};
width = 407;
},
{
background = {
paths = (
{
closed = 1;
nodes = (
"99 -140 OFFCURVE",
"-25 -206 OFFCURVE",
"-26 -194 CURVE SMOOTH",
"-27 -184 OFFCURVE",
"63 -111 OFFCURVE",
"79 -27 CURVE SMOOTH",
"83 -10 OFFCURVE",
"83 5 OFFCURVE",
"79 5 CURVE SMOOTH",
"74 5 OFFCURVE",
"68 -8 OFFCURVE",
"53 -8 CURVE SMOOTH",
"27 -8 OFFCURVE",
"2 18 OFFCURVE",
"11 67 CURVE SMOOTH",
"21 116 OFFCURVE",
"52 145 OFFCURVE",
"83 145 CURVE SMOOTH",
"130 145 OFFCURVE",
"144 91 OFFCURVE",
"131 27 CURVE SMOOTH",
"131 27 LINE SMOOTH"
);
}
);
};
layerId = "B00507B9-787D-4BFE-8F64-5743BFDB1312";
paths = (
{
closed = 1;
nodes = (
"277 105 OFFCURVE",
"275 76 OFFCURVE",
"269 46 CURVE SMOOTH",
"202 -296 OFFCURVE",
"-52 -423 OFFCURVE",
"-54 -397 CURVE SMOOTH",
"-56 -378 OFFCURVE",
"121 -242 OFFCURVE",
"162 -56 CURVE SMOOTH",
"165 -41 OFFCURVE",
"166 -22 OFFCURVE",
"167 -11 CURVE SMOOTH",
"168 5 OFFCURVE",
"167 10 OFFCURVE",
"162 10 CURVE SMOOTH",
"152 10 OFFCURVE",
"142 -17 OFFCURVE",
"112 -17 CURVE SMOOTH",
"66 -17 OFFCURVE",
"19 32 OFFCURVE",
"19 106 CURVE SMOOTH",
"19 194 OFFCURVE",
"69 296 OFFCURVE",
"165 296 CURVE SMOOTH",
"239 296 OFFCURVE",
"277 225 OFFCURVE",
"277 133 CURVE SMOOTH",
"277 133 LINE SMOOTH"
);
}
);
userData = {
com.adobe.type.autohint = "b''";
};
width = 449;
}
);
unicode = 002C;
},
{
glyphname = hyphen;
layers = (
{
background = {
paths = (
{
closed = 1;
nodes = (
"252 248 OFFCURVE",
"248 247 OFFCURVE",
"238 247 CURVE SMOOTH",
"69 247 LINE SMOOTH",
"59 247 OFFCURVE",
"57 248 OFFCURVE",
"61 269 CURVE SMOOTH",
"65 289 OFFCURVE",
"68 290 OFFCURVE",
"79 290 CURVE SMOOTH",
"246 290 LINE SMOOTH",
"256 290 OFFCURVE",
"260 289 OFFCURVE",
"256 269 CURVE SMOOTH",
"256 269 LINE SMOOTH"
);
}
);
};
layerId = "450B03F6-B4AD-41C0-900A-B61992C84FEB";
paths = (
{
closed = 1;
nodes = (
"516 507 OFFCURVE",
"509 505 OFFCURVE",
"488 505 CURVE SMOOTH",
"142 505 LINE SMOOTH",
"121 505 OFFCURVE",
"117 508 OFFCURVE",
"125 551 CURVE SMOOTH",
"133 591 OFFCURVE",
"139 594 OFFCURVE",
"162 594 CURVE SMOOTH",
"503 594 LINE SMOOTH",
"525 594 OFFCURVE",
"532 591 OFFCURVE",
"524 551 CURVE SMOOTH",
"524 551 LINE SMOOTH"
);
}
);
userData = {
com.adobe.type.autohint = "b''";
};
width = 635;
},
{
background = {
paths = (
{
closed = 1;
nodes = (
"310 295 OFFCURVE",
"310 308 OFFCURVE",
"302 308 CURVE SMOOTH",
"79 308 LINE SMOOTH",
"71 308 OFFCURVE",
"66 295 OFFCURVE",
"61 269 CURVE SMOOTH",
"56 241 OFFCURVE",
"55 230 OFFCURVE",
"63 230 CURVE SMOOTH",
"288 230 LINE SMOOTH",
"295 230 OFFCURVE",
"300 241 OFFCURVE",
"305 269 CURVE SMOOTH",
"305 269 LINE SMOOTH"
);
}
);
};
layerId = "B00507B9-787D-4BFE-8F64-5743BFDB1312";
paths = (
{
closed = 1;
nodes = (
"614 493 OFFCURVE",
"605 472 OFFCURVE",
"590 472 CURVE SMOOTH",
"129 472 LINE SMOOTH",
"113 472 OFFCURVE",
"114 493 OFFCURVE",
"125 551 CURVE SMOOTH",
"135 604 OFFCURVE",
"145 630 OFFCURVE",
"162 630 CURVE SMOOTH",
"618 630 LINE SMOOTH",
"634 630 OFFCURVE",
"635 604 OFFCURVE",
"625 551 CURVE SMOOTH",
"625 551 LINE SMOOTH"
);
}
);
width = 736;
}
);
unicode = 002D;
},
{
glyphname = period;
layers = (
{
background = {
paths = (
{
closed = 1;
nodes = (
"91 16 OFFCURVE",
"66 -9 OFFCURVE",
"41 -9 CURVE SMOOTH",
"16 -9 OFFCURVE",
"1 17 OFFCURVE",
"8 53 CURVE SMOOTH",
"16 92 OFFCURVE",
"43 112 OFFCURVE",
"65 112 CURVE SMOOTH",
"87 112 OFFCURVE",
"106 90 OFFCURVE",
"99 53 CURVE SMOOTH",
"99 53 LINE SMOOTH"
);
}
);
};
layerId = "450B03F6-B4AD-41C0-900A-B61992C84FEB";
paths = (
{
closed = 1;
nodes = (
"210 68 OFFCURVE",
"163 -18 OFFCURVE",
"85 -18 CURVE SMOOTH",
"41 -18 OFFCURVE",
"8 26 OFFCURVE",
"8 84 CURVE SMOOTH",
"8 153 OFFCURVE",
"55 230 OFFCURVE",
"133 230 CURVE SMOOTH",
"170 230 OFFCURVE",
"210 191 OFFCURVE",
"210 135 CURVE SMOOTH",
"210 135 LINE SMOOTH"
);
}
);
userData = {
com.adobe.type.autohint = "b''";
};
width = 378;
},
{
background = {
paths = (
{
closed = 1;
nodes = (
"114 22 OFFCURVE",
"83 -8 OFFCURVE",
"53 -8 CURVE SMOOTH",
"24 -8 OFFCURVE",
"2 21 OFFCURVE",
"11 69 CURVE SMOOTH",
"21 118 OFFCURVE",
"54 144 OFFCURVE",
"82 144 CURVE SMOOTH",
"113 144 OFFCURVE",
"133 118 OFFCURVE",
"123 69 CURVE SMOOTH",
"123 69 LINE SMOOTH"
);
}
);
};
layerId = "B00507B9-787D-4BFE-8F64-5743BFDB1312";
paths = (
{
closed = 1;
nodes = (
"262 88 OFFCURVE",
"201 -17 OFFCURVE",
"108 -17 CURVE SMOOTH",
"57 -17 OFFCURVE",
"14 24 OFFCURVE",
"14 113 CURVE SMOOTH",
"14 192 OFFCURVE",
"76 295 OFFCURVE",
"168 295 CURVE SMOOTH",
"222 295 OFFCURVE",
"262 246 OFFCURVE",
"262 169 CURVE SMOOTH",
"262 169 LINE SMOOTH"
);
}
);
userData = {
com.adobe.type.autohint = "b''";
};
width = 422;
}
);
unicode = 002E;
},
{
glyphname = slash;
layers = (
{
background = {
paths = (
{
closed = 1;
nodes = (
"9 -8 LINE SMOOTH",
"6 -14 OFFCURVE",
"-1 -17 OFFCURVE",
"-23 -17 CURVE SMOOTH",
"-46 -17 OFFCURVE",
"-50 -14 OFFCURVE",
"-46 -8 CURVE SMOOTH",
"365 764 LINE SMOOTH",
"369 771 OFFCURVE",
"375 773 OFFCURVE",
"397 773 CURVE SMOOTH",
"418 773 OFFCURVE",
"422 771 OFFCURVE",
"418 764 CURVE SMOOTH",
"418 764 LINE"
);
}
);
};
layerId = "450B03F6-B4AD-41C0-900A-B61992C84FEB";
paths = (
{
closed = 1;
nodes = (
"19 -16 LINE SMOOTH",
"13 -28 OFFCURVE",
"-2 -35 OFFCURVE",
"-48 -35 CURVE SMOOTH",
"-95 -35 OFFCURVE",
"-101 -28 OFFCURVE",
"-95 -16 CURVE SMOOTH",
"748 1564 LINE SMOOTH",
"756 1579 OFFCURVE",
"769 1584 OFFCURVE",
"813 1584 CURVE SMOOTH",
"856 1584 OFFCURVE",
"865 1579 OFFCURVE",
"857 1564 CURVE SMOOTH",
"857 1564 LINE"
);
}
);
width = 633;
},
{
background = {
paths = (
{
closed = 1;
nodes = (
"29 -8 LINE SMOOTH",
"26 -14 OFFCURVE",
"9 -17 OFFCURVE",
"-14 -17 CURVE SMOOTH",
"-37 -17 OFFCURVE",
"-50 -14 OFFCURVE",
"-46 -8 CURVE SMOOTH",
"365 764 LINE SMOOTH",
"369 771 OFFCURVE",
"385 773 OFFCURVE",
"407 773 CURVE SMOOTH",
"428 773 OFFCURVE",
"442 771 OFFCURVE",
"438 764 CURVE SMOOTH",
"438 764 LINE"
);
}
);
};
layerId = "B00507B9-787D-4BFE-8F64-5743BFDB1312";
paths = (
{
closed = 1;
nodes = (
"59 -16 LINE SMOOTH",
"53 -28 OFFCURVE",
"18 -35 OFFCURVE",
"-28 -35 CURVE SMOOTH",
"-75 -35 OFFCURVE",
"-101 -28 OFFCURVE",
"-95 -16 CURVE SMOOTH",
"748 1564 LINE SMOOTH",
"756 1579 OFFCURVE",
"789 1584 OFFCURVE",
"833 1584 CURVE SMOOTH",
"876 1584 OFFCURVE",
"905 1579 OFFCURVE",
"897 1564 CURVE SMOOTH",
"897 1564 LINE"
);
}
);
width = 697;
}
);
unicode = 002F;
},
{
glyphname = zero;
layers = (
{
background = {
paths = (
{
closed = 1;
nodes = (
"416 192 OFFCURVE",
"346 -8 OFFCURVE",
"183 -8 CURVE SMOOTH",
"37 -8 OFFCURVE",
"27 191 OFFCURVE",
"60 361 CURVE SMOOTH",
"97 549 OFFCURVE",
"185 731 OFFCURVE",
"327 731 CURVE SMOOTH",
"483 731 OFFCURVE",
"486 550 OFFCURVE",
"449 361 CURVE SMOOTH",
"449 361 LINE SMOOTH"
);
},
{
closed = 1;
nodes = (
"424 566 OFFCURVE",
"404 692 OFFCURVE",
"319 692 CURVE SMOOTH",
"237 692 OFFCURVE",
"166 566 OFFCURVE",
"126 361 CURVE SMOOTH",
"87 156 OFFCURVE",
"109 31 OFFCURVE",
"191 31 CURVE SMOOTH",
"278 31 OFFCURVE",
"345 162 OFFCURVE",
"384 361 CURVE SMOOTH",
"384 361 LINE SMOOTH"
);
}
);
};
layerId = "450B03F6-B4AD-41C0-900A-B61992C84FEB";
paths = (
{
closed = 1;
nodes = (
"957 735 OFFCURVE",
"816 -17 OFFCURVE",
"385 -17 CURVE SMOOTH",
"172 -17 OFFCURVE",
"94 194 OFFCURVE",
"94 442 CURVE SMOOTH",
"94 779 OFFCURVE",
"253 1498 OFFCURVE",
"659 1498 CURVE SMOOTH",
"878 1498 OFFCURVE",
"957 1320 OFFCURVE",
"957 1083 CURVE SMOOTH",
"957 1083 LINE SMOOTH"
);
},
{
closed = 1;
nodes = (
"827 1297 OFFCURVE",
"771 1417 OFFCURVE",
"653 1417 CURVE SMOOTH",
"358 1417 OFFCURVE",
"220 673 OFFCURVE",
"220 413 CURVE SMOOTH",
"220 191 OFFCURVE",
"272 64 OFFCURVE",
"390 64 CURVE SMOOTH",
"693 64 OFFCURVE",
"827 820 OFFCURVE",
"827 1086 CURVE SMOOTH",
"827 1086 LINE SMOOTH"
);
}
);
userData = {
com.adobe.type.autohint = "b''";
};
width = 956;
},
{
background = {
paths = (
{
closed = 1;
nodes = (
"426 192 OFFCURVE",
"340 -8 OFFCURVE",
"183 -8 CURVE SMOOTH",
"40 -8 OFFCURVE",
"18 191 OFFCURVE",
"51 361 CURVE SMOOTH",
"87 549 OFFCURVE",
"191 731 OFFCURVE",
"327 731 CURVE SMOOTH",
"479 731 OFFCURVE",
"496 550 OFFCURVE",
"459 361 CURVE SMOOTH",
"459 361 LINE SMOOTH"
);
},
{
closed = 1;
nodes = (
"372 566 OFFCURVE",
"389 702 OFFCURVE",
"321 702 CURVE SMOOTH",
"258 702 OFFCURVE",
"218 566 OFFCURVE",
"179 361 CURVE SMOOTH",
"139 156 OFFCURVE",
"124 21 OFFCURVE",
"189 21 CURVE SMOOTH",
"253 21 OFFCURVE",
"293 162 OFFCURVE",
"332 361 CURVE SMOOTH",
"332 361 LINE SMOOTH"
);
}
);
};
layerId = "B00507B9-787D-4BFE-8F64-5743BFDB1312";
paths = (
{
closed = 1;
nodes = (
"972 676 OFFCURVE",
"804 -17 OFFCURVE",
"385 -17 CURVE SMOOTH",
"164 -17 OFFCURVE",
"78 221 OFFCURVE",
"78 487 CURVE SMOOTH",
"78 821 OFFCURVE",
"264 1498 OFFCURVE",
"659 1498 CURVE SMOOTH",
"890 1498 OFFCURVE",
"972 1288 OFFCURVE",
"972 1021 CURVE SMOOTH",
"972 1021 LINE SMOOTH"
);
},
{
closed = 1;
nodes = (
"751 1368 OFFCURVE",
"728 1438 OFFCURVE",
"658 1438 CURVE SMOOTH",
"450 1438 OFFCURVE",
"296 468 OFFCURVE",
"296 240 CURVE SMOOTH",
"296 114 OFFCURVE",
"319 43 OFFCURVE",
"386 43 CURVE SMOOTH",
"595 43 OFFCURVE",
"751 1018 OFFCURVE",
"751 1245 CURVE SMOOTH",
"751 1245 LINE SMOOTH"
);
}
);
userData = {
com.adobe.type.autohint = "b''";
};
width = 956;
}
);
unicode = 0030;
},
{
glyphname = one;
layers = (
{
background = {
paths = (
{
closed = 1;
nodes = (
"272 -8 OFFCURVE",
"262 -8 OFFCURVE",
"237 -8 CURVE SMOOTH",
"211 -8 OFFCURVE",
"202 -8 OFFCURVE",
"205 12 CURVE SMOOTH",
"210 37 OFFCURVE",
"256 249 OFFCURVE",
"281 378 CURVE SMOOTH",
"295 449 OFFCURVE",
"313 551 OFFCURVE",
"324 617 CURVE",
"272 562 OFFCURVE",
"208 482 OFFCURVE",
"186 450 CURVE SMOOTH",
"180 441 OFFCURVE",
"170 447 OFFCURVE",
"157 459 CURVE SMOOTH",
"144 473 OFFCURVE",
"138 482 OFFCURVE",
"146 488 CURVE SMOOTH",
"176 515 OFFCURVE",
"336 685 OFFCURVE",
"340 707 CURVE SMOOTH",
"344 727 OFFCURVE",
"355 727 OFFCURVE",
"380 727 CURVE SMOOTH",
"404 727 OFFCURVE",
"415 727 OFFCURVE",
"411 707 CURVE SMOOTH",
"388 597 OFFCURVE",
"363 487 OFFCURVE",
"342 378 CURVE SMOOTH",
"317 249 OFFCURVE",
"281 37 OFFCURVE",
"276 12 CURVE SMOOTH",
"276 12 LINE SMOOTH"
);
}
);
};
layerId = "450B03F6-B4AD-41C0-900A-B61992C84FEB";
paths = (
{
closed = 1;
nodes = (
"795 1223 OFFCURVE",
"744 998 OFFCURVE",
"700 774 CURVE SMOOTH",
"649 510 OFFCURVE",
"575 76 OFFCURVE",
"565 24 CURVE SMOOTH",
"557 -17 OFFCURVE",
"537 -17 OFFCURVE",
"485 -17 CURVE SMOOTH",
"433 -17 OFFCURVE",
"413 -17 OFFCURVE",
"421 24 CURVE SMOOTH",
"431 76 OFFCURVE",
"525 510 OFFCURVE",
"576 774 CURVE SMOOTH",
"604 919 OFFCURVE",
"641 1129 OFFCURVE",
"664 1263 CURVE",
"557 1150 OFFCURVE",
"425 987 OFFCURVE",
"381 922 CURVE SMOOTH",
"368 902 OFFCURVE",
"348 916 OFFCURVE",
"322 941 CURVE SMOOTH",
"294 968 OFFCURVE",
"283 986 OFFCURVE",
"298 1000 CURVE SMOOTH",
"360 1054 OFFCURVE",
"689 1402 OFFCURVE",
"697 1447 CURVE SMOOTH",
"705 1488 OFFCURVE",
"727 1488 OFFCURVE",
"777 1488 CURVE SMOOTH",
"827 1488 OFFCURVE",
"849 1488 OFFCURVE",
"841 1447 CURVE SMOOTH",
"841 1447 LINE SMOOTH"
);
}
);
userData = {
com.adobe.type.autohint = "b''";
};
width = 956;
},
{
background = {
paths = (
{
closed = 1;
nodes = (
"293 -8 OFFCURVE",
"262 -8 OFFCURVE",
"237 -8 CURVE SMOOTH",
"211 -8 OFFCURVE",
"181 -8 OFFCURVE",
"184 12 CURVE SMOOTH",
"189 37 OFFCURVE",
"240 247 OFFCURVE",
"265 375 CURVE SMOOTH",
"281 457 OFFCURVE",
"296 556 OFFCURVE",
"307 626 CURVE",
"266 571 OFFCURVE",
"220 497 OFFCURVE",
"197 446 CURVE SMOOTH",
"192 436 OFFCURVE",
"176 439 OFFCURVE",
"157 455 CURVE SMOOTH",
"130 479 OFFCURVE",
"125 489 OFFCURVE",
"133 496 CURVE SMOOTH",
"162 519 OFFCURVE",
"313 684 OFFCURVE",
"319 707 CURVE SMOOTH",
"325 726 OFFCURVE",
"355 727 OFFCURVE",
"380 727 CURVE SMOOTH",
"404 727 OFFCURVE",
"436 727 OFFCURVE",
"432 707 CURVE SMOOTH",
"426 678 OFFCURVE",
"383 504 OFFCURVE",
"358 375 CURVE SMOOTH",
"333 247 OFFCURVE",
"302 37 OFFCURVE",
"297 12 CURVE SMOOTH",
"297 12 LINE SMOOTH"
);
}
);
};
layerId = "B00507B9-787D-4BFE-8F64-5743BFDB1312";
paths = (
{
closed = 1;
nodes = (
"873 1389 OFFCURVE",
"783 1033 OFFCURVE",
"732 769 CURVE SMOOTH",
"681 505 OFFCURVE",
"618 76 OFFCURVE",
"608 24 CURVE SMOOTH",
"600 -17 OFFCURVE",
"537 -17 OFFCURVE",
"485 -17 CURVE SMOOTH",
"433 -17 OFFCURVE",
"370 -17 OFFCURVE",
"378 24 CURVE SMOOTH",
"388 76 OFFCURVE",
"491 505 OFFCURVE",
"542 769 CURVE SMOOTH",
"574 936 OFFCURVE",
"606 1139 OFFCURVE",
"628 1281 CURVE",
"545 1168 OFFCURVE",
"451 1018 OFFCURVE",
"403 914 CURVE SMOOTH",
"393 893 OFFCURVE",
"360 898 OFFCURVE",
"322 931 CURVE SMOOTH",
"266 980 OFFCURVE",
"255 1002 OFFCURVE",
"272 1015 CURVE SMOOTH",
"332 1063 OFFCURVE",
"641 1400 OFFCURVE",
"654 1447 CURVE SMOOTH",
"665 1488 OFFCURVE",
"727 1488 OFFCURVE",
"777 1488 CURVE SMOOTH",
"827 1488 OFFCURVE",
"892 1488 OFFCURVE",
"884 1447 CURVE SMOOTH",
"884 1447 LINE SMOOTH"
);
}
);
userData = {
com.adobe.type.autohint = "b''";
};
width = 956;
}
);
unicode = 0031;
},
{
glyphname = two;
layers = (
{
background = {
paths = (
{
closed = 1;
nodes = (
"376 11 OFFCURVE",
"374 1 OFFCURVE",
"368 0 CURVE SMOOTH",
"328 -8 OFFCURVE",
"287 -8 OFFCURVE",
"218 -8 CURVE SMOOTH",
"33 -8 LINE SMOOTH",
"11 -8 OFFCURVE",
"1 0 OFFCURVE",
"11 52 CURVE SMOOTH",
"37 183 OFFCURVE",
"83 218 OFFCURVE",
"212 328 CURVE SMOOTH",
"370 463 OFFCURVE",
"401 516 OFFCURVE",
"412 572 CURVE SMOOTH",
"423 632 OFFCURVE",
"392 692 OFFCURVE",
"321 692 CURVE SMOOTH",
"257 692 OFFCURVE",
"194 643 OFFCURVE",
"171 599 CURVE SMOOTH",
"167 592 OFFCURVE",
"154 600 OFFCURVE",
"144 616 CURVE SMOOTH",
"133 631 OFFCURVE",
"134 643 OFFCURVE",
"141 649 CURVE SMOOTH",
"182 692 OFFCURVE",
"244 731 OFFCURVE",
"343 731 CURVE SMOOTH",
"434 731 OFFCURVE",
"497 677 OFFCURVE",
"479 584 CURVE SMOOTH",
"464 505 OFFCURVE",
"432 462 OFFCURVE",
"247 304 CURVE SMOOTH",
"115 191 OFFCURVE",
"95 147 OFFCURVE",
"81 73 CURVE SMOOTH",
"78 57 OFFCURVE",
"75 37 OFFCURVE",
"86 37 CURVE SMOOTH",
"242 37 LINE SMOOTH",
"314 37 OFFCURVE",
"338 45 OFFCURVE",
"367 55 CURVE SMOOTH",
"371 57 OFFCURVE",
"377 54 OFFCURVE",
"376 34 CURVE SMOOTH",
"376 34 LINE SMOOTH"
);
}
);
};
layerId = "450B03F6-B4AD-41C0-900A-B61992C84FEB";
paths = (
{
closed = 1;
nodes = (
"987 1075 OFFCURVE",
"914 978 OFFCURVE",
"505 622 CURVE SMOOTH",
"238 389 OFFCURVE",
"194 301 OFFCURVE",
"165 150 CURVE SMOOTH",
"159 118 OFFCURVE",
"153 76 OFFCURVE",
"177 76 CURVE SMOOTH",
"495 76 LINE SMOOTH",
"644 76 OFFCURVE",
"692 92 OFFCURVE",
"751 113 CURVE SMOOTH",
"760 116 OFFCURVE",
"771 111 OFFCURVE",
"770 69 CURVE SMOOTH",
"769 22 OFFCURVE",
"766 2 OFFCURVE",
"754 0 CURVE SMOOTH",
"672 -16 OFFCURVE",
"587 -16 OFFCURVE",
"447 -16 CURVE SMOOTH",
"68 -16 LINE SMOOTH",
"22 -16 OFFCURVE",
"2 0 OFFCURVE",
"23 106 CURVE SMOOTH",
"75 375 OFFCURVE",
"173 445 OFFCURVE",
"434 672 CURVE SMOOTH",
"782 975 OFFCURVE",
"848 1098 OFFCURVE",
"848 1218 CURVE SMOOTH",
"848 1324 OFFCURVE",
"786 1418 OFFCURVE",
"657 1418 CURVE SMOOTH",
"527 1418 OFFCURVE",
"397 1317 OFFCURVE",
"350 1227 CURVE SMOOTH",
"342 1212 OFFCURVE",
"316 1229 OFFCURVE",
"294 1261 CURVE SMOOTH",
"272 1293 OFFCURVE",
"275 1316 OFFCURVE",
"289 1330 CURVE SMOOTH",
"374 1418 OFFCURVE",
"495 1498 OFFCURVE",
"682 1498 CURVE SMOOTH",
"850 1498 OFFCURVE",
"987 1398 OFFCURVE",
"987 1238 CURVE SMOOTH",
"987 1238 LINE SMOOTH"
);
}
);
userData = {
com.adobe.type.autohint = "b''";
};
width = 956;
},
{
background = {
paths = (
{
closed = 1;
nodes = (
"382 8 OFFCURVE",
"374 1 OFFCURVE",
"368 0 CURVE SMOOTH",
"328 -8 OFFCURVE",
"287 -8 OFFCURVE",
"218 -8 CURVE SMOOTH",
"19 -8 LINE SMOOTH",
"-1 -8 OFFCURVE",
"-9 0 OFFCURVE",
"1 52 CURVE SMOOTH",
"21 154 OFFCURVE",
"67 201 OFFCURVE",
"199 321 CURVE SMOOTH",
"301 413 OFFCURVE",
"345 489 OFFCURVE",
"361 572 CURVE SMOOTH",
"375 646 OFFCURVE",
"369 703 OFFCURVE",
"318 703 CURVE SMOOTH",
"261 703 OFFCURVE",
"239 663 OFFCURVE",
"211 593 CURVE SMOOTH",
"206 581 OFFCURVE",
"178 579 OFFCURVE",
"149 606 CURVE SMOOTH",
"120 632 OFFCURVE",
"125 647 OFFCURVE",
"132 654 CURVE SMOOTH",
"174 697 OFFCURVE",
"239 731 OFFCURVE",
"338 731 CURVE SMOOTH",
"444 731 OFFCURVE",
"510 690 OFFCURVE",
"488 579 CURVE SMOOTH",
"474 508 OFFCURVE",
"444 482 OFFCURVE",
"251 304 CURVE SMOOTH",
"182 241 OFFCURVE",
"156 195 OFFCURVE",
"138 105 CURVE SMOOTH",
"132 72 OFFCURVE",
"144 57 OFFCURVE",
"156 57 CURVE SMOOTH",
"245 57 LINE SMOOTH",
"318 57 OFFCURVE",
"344 74 OFFCURVE",
"372 84 CURVE SMOOTH",
"377 86 OFFCURVE",
"384 77 OFFCURVE",
"383 43 CURVE SMOOTH",
"383 43 LINE SMOOTH"
);
}
);
};
layerId = "B00507B9-787D-4BFE-8F64-5743BFDB1312";
paths = (
{
closed = 1;
nodes = (
"1007 1085 OFFCURVE",
"929 1004 OFFCURVE",
"514 622 CURVE SMOOTH",
"374 493 OFFCURVE",
"319 399 OFFCURVE",
"283 216 CURVE SMOOTH",
"270 147 OFFCURVE",
"295 116 OFFCURVE",
"319 116 CURVE SMOOTH",
"503 116 LINE SMOOTH",
"652 116 OFFCURVE",
"704 152 OFFCURVE",
"763 173 CURVE SMOOTH",
"772 176 OFFCURVE",
"786 158 OFFCURVE",
"784 89 CURVE SMOOTH",
"782 16 OFFCURVE",
"766 2 OFFCURVE",
"754 0 CURVE SMOOTH",
"672 -16 OFFCURVE",
"588 -16 OFFCURVE",
"447 -16 CURVE SMOOTH",
"38 -16 LINE SMOOTH",
"-1 -16 OFFCURVE",
"-18 0 OFFCURVE",
"3 106 CURVE SMOOTH",
"44 316 OFFCURVE",
"142 408 OFFCURVE",
"408 657 CURVE SMOOTH",
"673 905 OFFCURVE",
"753 1094 OFFCURVE",
"753 1294 CURVE SMOOTH",
"753 1381 OFFCURVE",
"726 1439 OFFCURVE",
"651 1439 CURVE SMOOTH",
"534 1439 OFFCURVE",
"490 1357 OFFCURVE",
"432 1214 CURVE SMOOTH",
"422 1190 OFFCURVE",
"364 1186 OFFCURVE",
"304 1241 CURVE SMOOTH",
"246 1294 OFFCURVE",
"256 1326 OFFCURVE",
"270 1340 CURVE SMOOTH",
"355 1428 OFFCURVE",
"469 1498 OFFCURVE",
"672 1498 CURVE SMOOTH",
"861 1498 OFFCURVE",
"1007 1426 OFFCURVE",
"1007 1259 CURVE SMOOTH",
"1007 1259 LINE SMOOTH"
);
}
);
userData = {
com.adobe.type.autohint = "b''";
};
width = 956;
}
);
unicode = 0032;
},
{
glyphname = three;
layers = (
{
background = {
paths = (
{
closed = 1;
nodes = (
"393 96 OFFCURVE",
"313 -8 OFFCURVE",
"172 -8 CURVE SMOOTH",
"91 -8 OFFCURVE",
"37 25 OFFCURVE",
"13 56 CURVE SMOOTH",
"9 62 OFFCURVE",
"12 67 OFFCURVE",
"25 83 CURVE SMOOTH",
"39 98 OFFCURVE",
"58 111 OFFCURVE",
"60 106 CURVE SMOOTH",
"76 73 OFFCURVE",
"116 31 OFFCURVE",
"164 31 CURVE SMOOTH",
"259 31 OFFCURVE",
"331 114 OFFCURVE",
"351 220 CURVE SMOOTH",
"373 334 OFFCURVE",
"331 403 OFFCURVE",
"237 396 CURVE SMOOTH",
"235 396 OFFCURVE",
"234 408 OFFCURVE",
"237 417 CURVE SMOOTH",
"242 432 OFFCURVE",
"244 434 OFFCURVE",
"249 434 CURVE SMOOTH",
"334 434 OFFCURVE",
"383 484 OFFCURVE",
"397 558 CURVE SMOOTH",
"412 635 OFFCURVE",
"380 692 OFFCURVE",
"306 692 CURVE SMOOTH",
"257 692 OFFCURVE",
"214 667 OFFCURVE",
"180 616 CURVE SMOOTH",
"177 612 OFFCURVE",
"168 620 OFFCURVE",
"157 635 CURVE SMOOTH",
"150 644 OFFCURVE",
"143 654 OFFCURVE",
"148 659 CURVE SMOOTH",
"185 704 OFFCURVE",
"258 731 OFFCURVE",
"323 731 CURVE SMOOTH",
"438 731 OFFCURVE",
"474 658 OFFCURVE",
"457 569 CURVE SMOOTH",
"443 496 OFFCURVE",
"396 442 OFFCURVE",
"338 418 CURVE",
"401 393 OFFCURVE",
"438 331 OFFCURVE",
"417 219 CURVE SMOOTH",
"417 219 LINE SMOOTH"
);
}
);
};
layerId = "450B03F6-B4AD-41C0-900A-B61992C84FEB";
paths = (
{
closed = 1;
nodes = (
"943 1073 OFFCURVE",
"850 920 OFFCURVE",
"692 857 CURVE",
"796 815 OFFCURVE",
"866 719 OFFCURVE",
"866 564 CURVE SMOOTH",
"866 268 OFFCURVE",
"688 -17 OFFCURVE",
"363 -17 CURVE SMOOTH",
"197 -17 OFFCURVE",
"75 52 OFFCURVE",
"27 115 CURVE SMOOTH",
"18 127 OFFCURVE",
"24 138 OFFCURVE",
"52 170 CURVE SMOOTH",
"79 201 OFFCURVE",
"118 227 OFFCURVE",
"123 217 CURVE SMOOTH",
"155 150 OFFCURVE",
"238 64 OFFCURVE",
"336 64 CURVE SMOOTH",
"589 64 OFFCURVE",
"731 340 OFFCURVE",
"731 565 CURVE SMOOTH",
"731 728 OFFCURVE",
"644 823 OFFCURVE",
"486 811 CURVE SMOOTH",
"481 811 OFFCURVE",
"480 835 OFFCURVE",
"486 854 CURVE SMOOTH",
"495 884 OFFCURVE",
"500 889 OFFCURVE",
"510 889 CURVE SMOOTH",
"702 889 OFFCURVE",
"820 1020 OFFCURVE",
"820 1203 CURVE SMOOTH {name = hr01;}",
"820 1330 OFFCURVE",
"759 1418 OFFCURVE",
"627 1418 CURVE SMOOTH",
"527 1418 OFFCURVE",
"438 1366 OFFCURVE",
"368 1262 CURVE SMOOTH",
"362 1254 OFFCURVE",
"345 1270 OFFCURVE",
"322 1301 CURVE SMOOTH",
"308 1320 OFFCURVE",
"293 1340 OFFCURVE",
"302 1350 CURVE SMOOTH",
"379 1441 OFFCURVE",
"518 1498 OFFCURVE",
"652 1498 CURVE SMOOTH",
"848 1498 OFFCURVE",
"943 1385 OFFCURVE",
"943 1241 CURVE SMOOTH",
"943 1241 LINE SMOOTH"
);
}
);
userData = {
com.adobe.type.autohint = "b''";
};
width = 956;
},
{
background = {
paths = (
{
closed = 1;
nodes = (
"402 96 OFFCURVE",
"313 -8 OFFCURVE",
"172 -8 CURVE SMOOTH",
"77 -8 OFFCURVE",
"30 42 OFFCURVE",
"16 79 CURVE SMOOTH",
"10 93 OFFCURVE",
"20 105 OFFCURVE",
"56 124 CURVE SMOOTH",
"107 150 OFFCURVE",
"125 150 OFFCURVE",
"127 144 CURVE SMOOTH",
"135 117 OFFCURVE",
"119 21 OFFCURVE",
"172 21 CURVE SMOOTH",
"228 21 OFFCURVE",
"278 114 OFFCURVE",
"299 220 CURVE SMOOTH",
"321 334 OFFCURVE",
"314 399 OFFCURVE",
"235 386 CURVE SMOOTH",
"233 386 OFFCURVE",
"228 391 OFFCURVE",
"232 417 CURVE SMOOTH",
"235 435 OFFCURVE",
"241 444 OFFCURVE",
"251 444 CURVE SMOOTH",
"310 444 OFFCURVE",
"327 484 OFFCURVE",
"342 558 CURVE SMOOTH",
"357 635 OFFCURVE",
"360 703 OFFCURVE",
"308 703 CURVE SMOOTH",
"244 703 OFFCURVE",
"234 609 OFFCURVE",
"221 593 CURVE SMOOTH",
"209 579 OFFCURVE",
"196 576 OFFCURVE",
"153 612 CURVE SMOOTH",
"132 629 OFFCURVE",
"130 637 OFFCURVE",
"140 652 CURVE SMOOTH",
"174 699 OFFCURVE",
"258 731 OFFCURVE",
"323 731 CURVE SMOOTH",
"442 731 OFFCURVE",
"484 658 OFFCURVE",
"467 569 CURVE SMOOTH",
"452 496 OFFCURVE",
"399 435 OFFCURVE",
"338 418 CURVE",
"406 401 OFFCURVE",
"448 331 OFFCURVE",
"426 219 CURVE SMOOTH",
"426 219 LINE SMOOTH"
);
}
);
};
layerId = "B00507B9-787D-4BFE-8F64-5743BFDB1312";
paths = (
{
closed = 1;
nodes = (
"963 1067 OFFCURVE",
"854 899 OFFCURVE",
"692 857 CURVE",
"806 829 OFFCURVE",
"885 721 OFFCURVE",
"885 559 CURVE SMOOTH {name = hr01;}",
"885 258 OFFCURVE",
"685 -17 OFFCURVE",
"363 -17 CURVE SMOOTH",
"169 -17 OFFCURVE",
"60 85 OFFCURVE",
"32 161 CURVE SMOOTH",
"21 191 OFFCURVE",
"40 215 OFFCURVE",
"115 254 CURVE SMOOTH",
"219 308 OFFCURVE",
"257 306 OFFCURVE",
"260 295 CURVE SMOOTH",
"276 240 OFFCURVE",
"244 43 OFFCURVE",
"352 43 CURVE SMOOTH",
"538 43 OFFCURVE",
"634 481 OFFCURVE",
"634 644 CURVE SMOOTH",
"634 754 OFFCURVE",
"591 809 OFFCURVE",
"482 791 CURVE SMOOTH",
"477 790 OFFCURVE",
"467 800 OFFCURVE",
"476 854 CURVE SMOOTH",
"482 890 OFFCURVE",
"494 909 OFFCURVE",
"514 909 CURVE SMOOTH",
"689 909 OFFCURVE",
"720 1168 OFFCURVE",
"720 1306 CURVE SMOOTH {name = hr02;}",
"720 1385 OFFCURVE",
"697 1439 OFFCURVE",
"631 1439 CURVE SMOOTH",
"499 1439 OFFCURVE",
"478 1247 OFFCURVE",
"452 1215 CURVE SMOOTH",
"428 1186 OFFCURVE",
"401 1180 OFFCURVE",
"313 1253 CURVE SMOOTH",
"271 1288 OFFCURVE",
"265 1305 OFFCURVE",
"287 1335 CURVE SMOOTH",
"357 1431 OFFCURVE",
"518 1498 OFFCURVE",
"652 1498 CURVE SMOOTH",
"862 1498 OFFCURVE",
"963 1379 OFFCURVE",
"963 1230 CURVE SMOOTH",
"963 1230 LINE SMOOTH"
);
}
);
userData = {
com.adobe.type.autohint = "b''";
};
width = 956;
}
);
unicode = 0033;
},
{
glyphname = four;
layers = (
{
background = {
paths = (
{
closed = 1;
nodes = (
"420 216 OFFCURVE",
"419 207 OFFCURVE",
"413 206 CURVE SMOOTH",
"397 203 OFFCURVE",
"379 201 OFFCURVE",
"358 200 CURVE",
"342 109 OFFCURVE",
"327 27 OFFCURVE",
"325 12 CURVE SMOOTH",
"321 -8 OFFCURVE",
"311 -8 OFFCURVE",
"285 -8 CURVE SMOOTH",
"260 -8 OFFCURVE",
"250 -8 OFFCURVE",
"254 12 CURVE SMOOTH",
"257 27 OFFCURVE",
"274 107 OFFCURVE",
"293 198 CURVE",
"73 198 LINE SMOOTH",
"50 198 OFFCURVE",
"40 205 OFFCURVE",
"45 228 CURVE SMOOTH",
"61 309 OFFCURVE",
"103 369 OFFCURVE",
"203 489 CURVE SMOOTH",
"337 649 OFFCURVE",
"384 689 OFFCURVE",
"391 711 CURVE SMOOTH",
"395 724 OFFCURVE",
"402 727 OFFCURVE",
"427 727 CURVE SMOOTH",
"451 727 OFFCURVE",
"462 727 OFFCURVE",
"458 707 CURVE SMOOTH",
"453 678 OFFCURVE",
"416 509 OFFCURVE",
"391 380 CURVE SMOOTH",
"384 342 OFFCURVE",
"375 296 OFFCURVE",
"367 249 CURVE",
"383 252 OFFCURVE",
"398 256 OFFCURVE",
"411 261 CURVE SMOOTH",
"416 262 OFFCURVE",
"421 260 OFFCURVE",
"421 239 CURVE SMOOTH",
"421 239 LINE SMOOTH"
);
},
{
closed = 1;
nodes = (
"346 458 OFFCURVE",
"362 553 OFFCURVE",
"374 622 CURVE",
"341 589 OFFCURVE",
"294 539 OFFCURVE",
"226 455 CURVE SMOOTH",
"144 354 OFFCURVE",
"127 314 OFFCURVE",
"117 264 CURVE SMOOTH",
"115 252 OFFCURVE",
"115 242 OFFCURVE",
"126 242 CURVE SMOOTH",
"303 242 LINE",
"313 291 OFFCURVE",
"323 340 OFFCURVE",
"331 380 CURVE SMOOTH",
"331 380 LINE SMOOTH"
);
}
);
};
layerId = "450B03F6-B4AD-41C0-900A-B61992C84FEB";
paths = (
{
closed = 1;
nodes = (
"927 1389 OFFCURVE",
"852 1043 OFFCURVE",
"801 779 CURVE SMOOTH",
"786 700 OFFCURVE",
"768 605 OFFCURVE",
"751 510 CURVE",
"784 516 OFFCURVE",
"815 524 OFFCURVE",
"842 534 CURVE SMOOTH",
"851 537 OFFCURVE",
"862 532 OFFCURVE",
"861 490 CURVE SMOOTH",
"860 443 OFFCURVE",
"857 423 OFFCURVE",
"845 421 CURVE SMOOTH",
"812 415 OFFCURVE",
"777 411 OFFCURVE",
"734 409 CURVE",
"701 223 OFFCURVE",
"671 55 OFFCURVE",
"665 24 CURVE SMOOTH",
"657 -17 OFFCURVE",
"637 -17 OFFCURVE",
"585 -17 CURVE SMOOTH",
"533 -17 OFFCURVE",
"513 -17 OFFCURVE",
"521 24 CURVE SMOOTH",
"527 55 OFFCURVE",
"562 220 OFFCURVE",
"601 405 CURVE {name = hr01;}",
"149 405 LINE SMOOTH",
"103 405 OFFCURVE",
"83 420 OFFCURVE",
"92 467 CURVE SMOOTH",
"124 633 OFFCURVE",
"210 756 OFFCURVE",
"416 1002 CURVE SMOOTH",
"689 1329 OFFCURVE",
"785 1412 OFFCURVE",
"800 1457 CURVE SMOOTH",
"808 1482 OFFCURVE",
"824 1488 OFFCURVE",
"874 1488 CURVE SMOOTH",
"924 1488 OFFCURVE",
"946 1488 OFFCURVE",
"938 1447 CURVE SMOOTH",
"938 1447 LINE SMOOTH"
);
},
{
closed = 1;
nodes = (
"698 1206 OFFCURVE",
"603 1103 OFFCURVE",
"463 932 CURVE SMOOTH",
"295 726 OFFCURVE",
"260 644 OFFCURVE",
"240 541 CURVE SMOOTH",
"235 516 OFFCURVE",
"235 495 OFFCURVE",
"257 495 CURVE SMOOTH",
"620 495 LINE",
"641 595 OFFCURVE",
"661 696 OFFCURVE",
"677 779 CURVE SMOOTH",
"708 939 OFFCURVE",
"742 1132 OFFCURVE",
"766 1273 CURVE",
"766 1273 LINE"
);
}
);
userData = {
com.adobe.type.autohint = "b''";
};
width = 956;
},
{
background = {
paths = (
{
closed = 1;
nodes = (
"441 224 OFFCURVE",
"433 207 OFFCURVE",
"427 206 CURVE SMOOTH",
"413 203 OFFCURVE",
"396 201 OFFCURVE",
"376 200 CURVE",
"361 109 OFFCURVE",
"348 27 OFFCURVE",
"346 12 CURVE SMOOTH",
"342 -8 OFFCURVE",
"311 -8 OFFCURVE",
"285 -8 CURVE SMOOTH",
"260 -8 OFFCURVE",
"229 -8 OFFCURVE",
"233 12 CURVE SMOOTH",
"236 27 OFFCURVE",
"255 108 OFFCURVE",
"276 198 CURVE",
"276 198 OFFCURVE",
"301 198 OFFCURVE",
"58 198 CURVE SMOOTH",
"35 198 OFFCURVE",
"26 205 OFFCURVE",
"30 228 CURVE SMOOTH",
"46 309 OFFCURVE",
"103 369 OFFCURVE",
"203 489 CURVE SMOOTH",
"222 512 OFFCURVE",
"353 672 OFFCURVE",
"369 711 CURVE SMOOTH",
"376 729 OFFCURVE",
"400 731 OFFCURVE",
"428 731 CURVE SMOOTH",
"452 731 OFFCURVE",
"484 731 OFFCURVE",
"480 711 CURVE SMOOTH",
"475 683 OFFCURVE",
"432 509 OFFCURVE",
"407 380 CURVE SMOOTH",
"401 350 OFFCURVE",
"395 314 OFFCURVE",
"389 277 CURVE",
"406 283 OFFCURVE",
"421 291 OFFCURVE",
"433 300 CURVE SMOOTH",
"437 303 OFFCURVE",
"446 287 OFFCURVE",
"443 254 CURVE SMOOTH",
"443 254 LINE SMOOTH"
);
},
{
closed = 1;
nodes = (
"330 458 OFFCURVE",
"345 552 OFFCURVE",
"355 621 CURVE",
"340 601 OFFCURVE",
"325 580 OFFCURVE",
"308 557 CURVE SMOOTH",
"208 416 OFFCURVE",
"173 377 OFFCURVE",
"156 289 CURVE SMOOTH",
"154 276 OFFCURVE",
"158 261 OFFCURVE",
"168 261 CURVE SMOOTH",
"290 261 LINE",
"299 304 OFFCURVE",
"308 345 OFFCURVE",
"315 380 CURVE SMOOTH",
"315 380 LINE SMOOTH"
);
}
);
};
layerId = "B00507B9-787D-4BFE-8F64-5743BFDB1312";
paths = (
{
closed = 1;
nodes = (
"973 1399 OFFCURVE",
"885 1043 OFFCURVE",
"834 779 CURVE SMOOTH",
"822 716 OFFCURVE",
"809 642 OFFCURVE",
"796 567 CURVE",
"831 579 OFFCURVE",
"862 595 OFFCURVE",
"887 614 CURVE SMOOTH",
"895 620 OFFCURVE",
"912 589 OFFCURVE",
"907 520 CURVE SMOOTH",
"902 459 OFFCURVE",
"887 423 OFFCURVE",
"875 421 CURVE SMOOTH",
"847 416 OFFCURVE",
"811 412 OFFCURVE",
"770 410 CURVE",
"739 223 OFFCURVE",
"714 55 OFFCURVE",
"708 24 CURVE SMOOTH",
"700 -17 OFFCURVE",
"637 -17 OFFCURVE",
"585 -17 CURVE SMOOTH",
"533 -17 OFFCURVE",
"470 -17 OFFCURVE",
"478 24 CURVE SMOOTH",
"484 55 OFFCURVE",
"522 220 OFFCURVE",
"564 405 CURVE {name = hr01;}",
"119 405 LINE SMOOTH",
"73 405 OFFCURVE",
"53 420 OFFCURVE",
"62 467 CURVE SMOOTH",
"94 633 OFFCURVE",
"210 756 OFFCURVE",
"416 1002 CURVE SMOOTH",
"454 1048 OFFCURVE",
"723 1376 OFFCURVE",
"756 1456 CURVE SMOOTH",
"771 1492 OFFCURVE",
"821 1498 OFFCURVE",
"877 1498 CURVE SMOOTH",
"927 1498 OFFCURVE",
"992 1498 OFFCURVE",
"984 1457 CURVE SMOOTH",
"984 1457 LINE SMOOTH"
);
},
{
closed = 1;
nodes = (
"697 1232 OFFCURVE",
"665 1187 OFFCURVE",
"632 1141 CURVE SMOOTH",
"426 851 OFFCURVE",
"355 772 OFFCURVE",
"320 591 CURVE SMOOTH",
"315 566 OFFCURVE",
"323 535 OFFCURVE",
"345 535 CURVE SMOOTH",
"593 535 LINE",
"612 622 OFFCURVE",
"630 707 OFFCURVE",
"644 779 CURVE SMOOTH",
"675 938 OFFCURVE",
"705 1131 OFFCURVE",
"727 1272 CURVE",
"727 1272 LINE"
);
}
);
userData = {
com.adobe.type.autohint = "b''";
};
width = 956;
}
);
unicode = 0034;
},
{
glyphname = five;
layers = (
{
background = {
paths = (
{
closed = 1;
nodes = (
"393 73 OFFCURVE",
"293 -8 OFFCURVE",
"177 -8 CURVE SMOOTH",
"94 -8 OFFCURVE",
"42 30 OFFCURVE",
"17 69 CURVE SMOOTH",
"12 78 OFFCURVE",
"15 83 OFFCURVE",
"34 103 CURVE SMOOTH",
"49 118 OFFCURVE",
"61 126 OFFCURVE",
"63 121 CURVE SMOOTH",
"76 78 OFFCURVE",
"121 31 OFFCURVE",
"169 31 CURVE SMOOTH",
"270 31 OFFCURVE",
"333 102 OFFCURVE",
"360 239 CURVE SMOOTH",
"385 370 OFFCURVE",
"334 435 OFFCURVE",
"274 435 CURVE SMOOTH",
"200 435 OFFCURVE",
"187 394 OFFCURVE",
"156 394 CURVE SMOOTH",
"149 394 OFFCURVE",
"141 398 OFFCURVE",
"126 410 CURVE SMOOTH",
"109 422 OFFCURVE",
"102 425 OFFCURVE",
"106 435 CURVE SMOOTH",
"124 468 OFFCURVE",
"199 693 OFFCURVE",
"203 714 CURVE SMOOTH",
"205 723 OFFCURVE",
"211 728 OFFCURVE",
"227 728 CURVE SMOOTH",
"400 728 LINE SMOOTH",
"450 728 OFFCURVE",
"476 727 OFFCURVE",
"488 722 CURVE SMOOTH",
"493 720 OFFCURVE",
"491 711 OFFCURVE",
"483 688 CURVE SMOOTH",
"476 668 OFFCURVE",
"467 657 OFFCURVE",
"464 659 CURVE SMOOTH",
"445 670 OFFCURVE",
"421 684 OFFCURVE",
"394 684 CURVE SMOOTH",
"270 684 LINE SMOOTH",
"260 684 OFFCURVE",
"255 685 OFFCURVE",
"251 675 CURVE SMOOTH",
"248 665 OFFCURVE",
"193 509 OFFCURVE",
"178 463 CURVE SMOOTH",
"175 455 OFFCURVE",
"177 452 OFFCURVE",
"178 452 CURVE SMOOTH",
"195 452 OFFCURVE",
"220 473 OFFCURVE",
"286 473 CURVE SMOOTH",
"388 473 OFFCURVE",
"456 398 OFFCURVE",
"423 229 CURVE SMOOTH",
"423 229 LINE SMOOTH"
);
}
);
};
layerId = "450B03F6-B4AD-41C0-900A-B61992C84FEB";
paths = (
{
closed = 1;
nodes = (
"1011 1474 OFFCURVE",
"1006 1456 OFFCURVE",
"989 1409 CURVE SMOOTH",
"974 1367 OFFCURVE",
"957 1346 OFFCURVE",
"950 1350 CURVE SMOOTH",
"911 1373 OFFCURVE",
"862 1401 OFFCURVE",
"806 1401 CURVE SMOOTH",
"553 1401 LINE SMOOTH",
"532 1401 OFFCURVE",
"523 1402 OFFCURVE",
"515 1382 CURVE SMOOTH",
"507 1363 OFFCURVE",
"394 1043 OFFCURVE",
"364 948 CURVE SMOOTH",
"359 931 OFFCURVE",
"363 926 OFFCURVE",
"365 926 CURVE SMOOTH",
"400 926 OFFCURVE",
"441 969 OFFCURVE",
"575 969 CURVE SMOOTH {name = hr01;}",
"750 969 OFFCURVE",
"883 855 OFFCURVE",
"883 616 CURVE SMOOTH",
"883 315 OFFCURVE",
"719 -17 OFFCURVE",
"373 -17 CURVE SMOOTH",
"202 -17 OFFCURVE",
"85 62 OFFCURVE",
"36 142 CURVE SMOOTH",
"25 160 OFFCURVE",
"31 170 OFFCURVE",
"70 210 CURVE SMOOTH",
"101 242 OFFCURVE",
"126 258 OFFCURVE",
"129 247 CURVE SMOOTH",
"155 159 OFFCURVE",
"248 64 OFFCURVE",
"346 64 CURVE SMOOTH",
"588 64 OFFCURVE",
"751 308 OFFCURVE",
"751 615 CURVE SMOOTH",
"751 780 OFFCURVE",
"684 891 OFFCURVE",
"561 891 CURVE SMOOTH",
"409 891 OFFCURVE",
"383 806 OFFCURVE",
"320 806 CURVE SMOOTH {name = hr02;}",
"306 806 OFFCURVE",
"289 816 OFFCURVE",
"257 839 CURVE SMOOTH",
"223 864 OFFCURVE",
"208 871 OFFCURVE",
"218 890 CURVE SMOOTH",
"253 959 OFFCURVE",
"408 1420 OFFCURVE",
"416 1462 CURVE SMOOTH",
"420 1481 OFFCURVE",
"432 1491 OFFCURVE",
"465 1491 CURVE SMOOTH",
"818 1491 LINE SMOOTH",
"921 1491 OFFCURVE",
"975 1488 OFFCURVE",
"1000 1478 CURVE SMOOTH",
"1000 1478 LINE SMOOTH"
);
}
);
userData = {
com.adobe.type.autohint = "b''";
};
width = 956;
},
{
background = {
paths = (
{
closed = 1;
nodes = (
"403 73 OFFCURVE",
"293 -8 OFFCURVE",
"177 -8 CURVE SMOOTH",
"94 -8 OFFCURVE",
"46 38 OFFCURVE",
"17 73 CURVE SMOOTH",
"9 83 OFFCURVE",
"18 102 OFFCURVE",
"63 127 CURVE SMOOTH",
"101 150 OFFCURVE",
"124 153 OFFCURVE",
"127 144 CURVE SMOOTH",
"141 83 OFFCURVE",
"118 21 OFFCURVE",
"177 21 CURVE SMOOTH",
"219 21 OFFCURVE",
"277 82 OFFCURVE",
"307 239 CURVE SMOOTH",
"333 370 OFFCURVE",
"329 445 OFFCURVE",
"276 445 CURVE SMOOTH",
"217 445 OFFCURVE",
"215 384 OFFCURVE",
"181 384 CURVE SMOOTH",
"174 384 OFFCURVE",
"156 389 OFFCURVE",
"129 402 CURVE SMOOTH",
"99 418 OFFCURVE",
"93 426 OFFCURVE",
"97 435 CURVE SMOOTH",
"111 469 OFFCURVE",
"189 693 OFFCURVE",
"193 714 CURVE SMOOTH",
"195 723 OFFCURVE",
"201 728 OFFCURVE",
"217 728 CURVE SMOOTH",
"404 728 LINE SMOOTH",
"455 728 OFFCURVE",
"486 727 OFFCURVE",
"498 722 CURVE SMOOTH",
"503 720 OFFCURVE",
"504 707 OFFCURVE",
"491 678 CURVE SMOOTH",
"475 641 OFFCURVE",
"469 638 OFFCURVE",
"465 640 CURVE SMOOTH",
"453 644 OFFCURVE",
"429 665 OFFCURVE",
"395 665 CURVE SMOOTH",
"305 665 LINE SMOOTH",
"295 665 OFFCURVE",
"290 665 OFFCURVE",
"287 655 CURVE SMOOTH",
"283 646 OFFCURVE",
"239 520 OFFCURVE",
"224 474 CURVE SMOOTH",
"221 465 OFFCURVE",
"223 465 OFFCURVE",
"227 465 CURVE SMOOTH",
"233 465 OFFCURVE",
"234 473 OFFCURVE",
"286 473 CURVE SMOOTH",
"388 473 OFFCURVE",
"468 410 OFFCURVE",
"433 229 CURVE SMOOTH",
"433 229 LINE SMOOTH"
);
}
);
};
layerId = "B00507B9-787D-4BFE-8F64-5743BFDB1312";
paths = (
{
closed = 1;
nodes = (
"1031 1474 OFFCURVE",
"1031 1448 OFFCURVE",
"1005 1389 CURVE SMOOTH",
"971 1313 OFFCURVE",
"960 1307 OFFCURVE",
"952 1310 CURVE SMOOTH",
"928 1318 OFFCURVE",
"879 1361 OFFCURVE",
"809 1361 CURVE SMOOTH",
"626 1361 LINE SMOOTH",
"605 1361 OFFCURVE",
"595 1362 OFFCURVE",
"587 1342 CURVE SMOOTH",
"579 1323 OFFCURVE",
"489 1065 OFFCURVE",
"459 970 CURVE SMOOTH",
"454 953 OFFCURVE",
"456 952 OFFCURVE",
"464 952 CURVE SMOOTH",
"477 952 OFFCURVE",
"468 969 OFFCURVE",
"575 969 CURVE SMOOTH {name = hr01;}",
"750 969 OFFCURVE",
"904 872 OFFCURVE",
"904 624 CURVE SMOOTH",
"904 308 OFFCURVE",
"726 -17 OFFCURVE",
"373 -17 CURVE SMOOTH",
"202 -17 OFFCURVE",
"94 77 OFFCURVE",
"35 150 CURVE SMOOTH",
"18 171 OFFCURVE",
"38 208 OFFCURVE",
"129 261 CURVE SMOOTH",
"208 307 OFFCURVE",
"255 314 OFFCURVE",
"259 295 CURVE SMOOTH",
"288 170 OFFCURVE",
"241 43 OFFCURVE",
"362 43 CURVE SMOOTH",
"563 43 OFFCURVE",
"660 562 OFFCURVE",
"660 740 CURVE SMOOTH",
"660 851 OFFCURVE",
"633 912 OFFCURVE",
"565 912 CURVE SMOOTH",
"444 912 OFFCURVE",
"440 787 OFFCURVE",
"371 787 CURVE SMOOTH",
"357 787 OFFCURVE",
"319 796 OFFCURVE",
"265 824 CURVE SMOOTH",
"203 857 OFFCURVE",
"191 872 OFFCURVE",
"198 890 CURVE SMOOTH",
"227 960 OFFCURVE",
"388 1420 OFFCURVE",
"396 1462 CURVE SMOOTH",
"400 1481 OFFCURVE",
"412 1491 OFFCURVE",
"445 1491 CURVE SMOOTH",
"828 1491 LINE SMOOTH",
"931 1491 OFFCURVE",
"995 1488 OFFCURVE",
"1020 1478 CURVE SMOOTH",
"1020 1478 LINE SMOOTH"
);
}
);
userData = {
com.adobe.type.autohint = "b''";
};
width = 956;
}
);
unicode = 0035;
},
{
glyphname = six;
layers = (
{
background = {
paths = (
{
closed = 1;
nodes = (
"404 128 OFFCURVE",
"324 -8 OFFCURVE",
"183 -8 CURVE SMOOTH",
"63 -8 OFFCURVE",
"11 105 OFFCURVE",
"54 329 CURVE SMOOTH",
"109 611 OFFCURVE",
"226 732 OFFCURVE",
"356 732 CURVE SMOOTH",
"409 732 OFFCURVE",
"459 712 OFFCURVE",
"481 666 CURVE SMOOTH",
"485 657 OFFCURVE",
"480 652 OFFCURVE",
"461 635 CURVE SMOOTH",
"445 621 OFFCURVE",
"433 612 OFFCURVE",
"431 618 CURVE SMOOTH",
"411 667 OFFCURVE",
"394 692 OFFCURVE",
"343 692 CURVE SMOOTH",
"267 692 OFFCURVE",
"182 599 OFFCURVE",
"133 392 CURVE",
"168 432 OFFCURVE",
"224 473 OFFCURVE",
"276 473 CURVE SMOOTH",
"421 473 OFFCURVE",
"446 347 OFFCURVE",
"426 242 CURVE SMOOTH",
"426 242 LINE SMOOTH"
);
},
{
closed = 1;
nodes = (
"378 327 OFFCURVE",
"353 433 OFFCURVE",
"269 433 CURVE SMOOTH",
"215 433 OFFCURVE",
"149 367 OFFCURVE",
"111 266 CURVE",
"94 109 OFFCURVE",
"131 31 OFFCURVE",
"191 31 CURVE SMOOTH",
"278 31 OFFCURVE",
"342 146 OFFCURVE",
"361 242 CURVE SMOOTH",
"361 242 LINE SMOOTH"
);
}
);
};
layerId = "450B03F6-B4AD-41C0-900A-B61992C84FEB";
paths = (
{
closed = 1;
nodes = (
"993 1346 OFFCURVE",
"982 1335 OFFCURVE",
"945 1301 CURVE SMOOTH",
"912 1271 OFFCURVE",
"887 1253 OFFCURVE",
"882 1266 CURVE SMOOTH",
"842 1367 OFFCURVE",
"807 1418 OFFCURVE",
"702 1418 CURVE SMOOTH",
"546 1418 OFFCURVE",
"373 1227 OFFCURVE",
"273 803 CURVE",
"344 885 OFFCURVE",
"449 968 OFFCURVE",
"556 968 CURVE SMOOTH",
"805 968 OFFCURVE",
"884 781 OFFCURVE",
"884 594 CURVE SMOOTH",
"884 317 OFFCURVE",
"697 -17 OFFCURVE",
"385 -17 CURVE SMOOTH",
"195 -17 OFFCURVE",
"81 129 OFFCURVE",
"81 410 CURVE SMOOTH",
"81 784 OFFCURVE",
"268 1499 OFFCURVE",
"719 1499 CURVE SMOOTH",
"827 1499 OFFCURVE",
"939 1459 OFFCURVE",
"984 1364 CURVE SMOOTH",
"984 1364 LINE SMOOTH"
);
},
{
closed = 1;
nodes = (
"749 747 OFFCURVE",
"687 887 OFFCURVE",
"550 887 CURVE SMOOTH",
"440 887 OFFCURVE",
"304 751 OFFCURVE",
"227 545 CURVE",
"220 478 OFFCURVE",
"219 417 OFFCURVE",
"219 364 CURVE SMOOTH",
"219 164 OFFCURVE",
"293 64 OFFCURVE",
"390 64 CURVE SMOOTH",
"611 64 OFFCURVE",
"749 413 OFFCURVE",
"749 604 CURVE SMOOTH",
"749 604 LINE SMOOTH"
);
}
);
userData = {
com.adobe.type.autohint = "b''";
};
width = 956;
},
{
background = {
paths = (
{
closed = 1;
nodes = (
"414 128 OFFCURVE",
"324 -8 OFFCURVE",
"183 -8 CURVE SMOOTH",
"63 -8 OFFCURVE",
"1 105 OFFCURVE",
"44 329 CURVE SMOOTH",
"99 611 OFFCURVE",
"226 732 OFFCURVE",
"356 732 CURVE SMOOTH",
"416 732 OFFCURVE",
"466 698 OFFCURVE",
"487 651 CURVE SMOOTH",
"492 642 OFFCURVE",
"479 623 OFFCURVE",
"440 601 CURVE SMOOTH",
"393 574 OFFCURVE",
"380 583 OFFCURVE",
"383 599 CURVE SMOOTH",
"391 642 OFFCURVE",
"385 703 OFFCURVE",
"345 703 CURVE SMOOTH",
"275 703 OFFCURVE",
"236 618 OFFCURVE",
"197 446 CURVE",
"222 462 OFFCURVE",
"250 473 OFFCURVE",
"276 473 CURVE SMOOTH",
"421 473 OFFCURVE",
"456 347 OFFCURVE",
"436 242 CURVE SMOOTH",
"436 242 LINE SMOOTH"
);
},
{
closed = 1;
nodes = (
"324 327 OFFCURVE",
"337 443 OFFCURVE",
"271 443 CURVE SMOOTH",
"223 443 OFFCURVE",
"184 379 OFFCURVE",
"164 285 CURVE SMOOTH",
"129 114 OFFCURVE",
"127 21 OFFCURVE",
"189 21 CURVE SMOOTH",
"255 21 OFFCURVE",
"289 146 OFFCURVE",
"308 242 CURVE SMOOTH",
"308 242 LINE SMOOTH"
);
}
);
};
layerId = "B00507B9-787D-4BFE-8F64-5743BFDB1312";
paths = (
{
closed = 1;
nodes = (
"1007 1316 OFFCURVE",
"981 1276 OFFCURVE",
"901 1231 CURVE SMOOTH",
"804 1176 OFFCURVE",
"778 1193 OFFCURVE",
"784 1226 CURVE SMOOTH",
"801 1315 OFFCURVE",
"789 1439 OFFCURVE",
"706 1439 CURVE SMOOTH",
"564 1439 OFFCURVE",
"483 1266 OFFCURVE",
"403 914 CURVE",
"455 946 OFFCURVE",
"501 968 OFFCURVE",
"556 968 CURVE SMOOTH",
"803 968 OFFCURVE",
"903 783 OFFCURVE",
"903 597 CURVE SMOOTH {name = hr01;}",
"903 314 OFFCURVE",
"694 -17 OFFCURVE",
"385 -17 CURVE SMOOTH",
"196 -17 OFFCURVE",
"64 127 OFFCURVE",
"64 405 CURVE SMOOTH",
"64 792 OFFCURVE",
"261 1499 OFFCURVE",
"719 1499 CURVE SMOOTH",
"841 1499 OFFCURVE",
"953 1429 OFFCURVE",
"998 1334 CURVE SMOOTH",
"998 1334 LINE SMOOTH"
);
},
{
closed = 1;
nodes = (
"658 831 OFFCURVE",
"631 908 OFFCURVE",
"554 908 CURVE SMOOTH",
"457 908 OFFCURVE",
"376 777 OFFCURVE",
"336 584 CURVE",
"304 428 OFFCURVE",
"286 305 OFFCURVE",
"286 215 CURVE SMOOTH",
"286 102 OFFCURVE",
"316 43 OFFCURVE",
"386 43 CURVE SMOOTH",
"571 43 OFFCURVE",
"658 569 OFFCURVE",
"658 733 CURVE SMOOTH",
"658 733 LINE SMOOTH"
);
}
);
userData = {
com.adobe.type.autohint = "b''";
};
width = 956;
}
);
unicode = 0036;
},
{
glyphname = seven;
layers = (
{
background = {
paths = (
{
closed = 1;
nodes = (
"503 639 OFFCURVE",
"469 601 OFFCURVE",
"309 358 CURVE SMOOTH",
"198 191 OFFCURVE",
"144 41 OFFCURVE",
"136 0 CURVE SMOOTH",
"134 -11 OFFCURVE",
"130 -11 OFFCURVE",
"98 -2 CURVE SMOOTH",
"72 5 OFFCURVE",
"64 10 OFFCURVE",
"68 21 CURVE SMOOTH",
"81 62 OFFCURVE",
"173 230 OFFCURVE",
"272 381 CURVE SMOOTH",
"421 606 OFFCURVE",
"434 643 OFFCURVE",
"439 669 CURVE SMOOTH",
"440 678 OFFCURVE",
"440 684 OFFCURVE",
"429 684 CURVE SMOOTH",
"269 684 LINE SMOOTH",
"224 684 OFFCURVE",
"183 675 OFFCURVE",
"142 660 CURVE SMOOTH",
"138 658 OFFCURVE",
"133 666 OFFCURVE",
"134 686 CURVE SMOOTH",
"134 709 OFFCURVE",
"136 719 OFFCURVE",
"142 720 CURVE SMOOTH",
"182 728 OFFCURVE",
"224 728 OFFCURVE",
"292 728 CURVE SMOOTH",
"499 728 LINE SMOOTH",
"508 728 OFFCURVE",
"510 725 OFFCURVE",
"511 700 CURVE SMOOTH",
"512 690 OFFCURVE",
"512 685 OFFCURVE",
"510 674 CURVE SMOOTH",
"510 674 LINE SMOOTH"
);
}
);
};
layerId = "450B03F6-B4AD-41C0-900A-B61992C84FEB";
paths = (
{
closed = 1;
nodes = (
"1049 1414 OFFCURVE",
"1048 1404 OFFCURVE",
"1044 1381 CURVE SMOOTH",
"1030 1309 OFFCURVE",
"960 1230 OFFCURVE",
"632 733 CURVE SMOOTH",
"406 390 OFFCURVE",
"305 83 OFFCURVE",
"289 0 CURVE SMOOTH",
"285 -22 OFFCURVE",
"275 -22 OFFCURVE",
"210 -4 CURVE SMOOTH",
"156 11 OFFCURVE",
"142 30 OFFCURVE",
"150 54 CURVE SMOOTH",
"177 138 OFFCURVE",
"354 471 OFFCURVE",
"558 780 CURVE SMOOTH",
"863 1242 OFFCURVE",
"888 1317 OFFCURVE",
"898 1371 CURVE SMOOTH",
"901 1389 OFFCURVE",
"900 1401 OFFCURVE",
"878 1401 CURVE SMOOTH",
"530 1401 LINE SMOOTH",
"438 1401 OFFCURVE",
"356 1382 OFFCURVE",
"272 1351 CURVE SMOOTH",
"263 1348 OFFCURVE",
"253 1363 OFFCURVE",
"254 1405 CURVE SMOOTH",
"255 1452 OFFCURVE",
"259 1472 OFFCURVE",
"271 1474 CURVE SMOOTH",
"353 1490 OFFCURVE",
"438 1491 OFFCURVE",
"578 1491 CURVE SMOOTH",
"1023 1491 LINE SMOOTH",
"1040 1491 OFFCURVE",
"1045 1485 OFFCURVE",
"1048 1433 CURVE SMOOTH",
"1048 1433 LINE SMOOTH"
);
}
);
userData = {
com.adobe.type.autohint = "b''";
};
width = 956;
},
{
background = {
paths = (
{
closed = 1;
nodes = (
"507 640 OFFCURVE",
"483 601 OFFCURVE",
"323 358 CURVE SMOOTH",
"213 191 OFFCURVE",
"188 41 OFFCURVE",
"180 0 CURVE SMOOTH",
"178 -11 OFFCURVE",
"144 -11 OFFCURVE",
"112 -2 CURVE SMOOTH",
"86 5 OFFCURVE",
"55 10 OFFCURVE",
"58 21 CURVE SMOOTH",
"71 62 OFFCURVE",
"178 230 OFFCURVE",
"277 381 CURVE SMOOTH",
"346 485 OFFCURVE",
"386 562 OFFCURVE",
"397 617 CURVE SMOOTH",
"405 656 OFFCURVE",
"392 665 OFFCURVE",
"381 665 CURVE SMOOTH",
"289 665 LINE SMOOTH",
"226 665 OFFCURVE",
"191 659 OFFCURVE",
"143 635 CURVE SMOOTH",
"138 633 OFFCURVE",
"132 642 OFFCURVE",
"129 679 CURVE SMOOTH",
"126 707 OFFCURVE",
"131 719 OFFCURVE",
"137 720 CURVE SMOOTH",
"177 728 OFFCURVE",
"228 728 OFFCURVE",
"297 728 CURVE SMOOTH",
"507 728 LINE SMOOTH",
"515 728 OFFCURVE",
"514 726 OFFCURVE",
"515 700 CURVE SMOOTH",
"516 691 OFFCURVE",
"516 686 OFFCURVE",
"514 675 CURVE SMOOTH",
"514 675 LINE SMOOTH"
);
}
);
};
layerId = "B00507B9-787D-4BFE-8F64-5743BFDB1312";
paths = (
{
closed = 1;
nodes = (
"1057 1415 OFFCURVE",
"1057 1405 OFFCURVE",
"1053 1382 CURVE SMOOTH",
"1039 1310 OFFCURVE",
"990 1230 OFFCURVE",
"662 733 CURVE SMOOTH",
"436 390 OFFCURVE",
"395 83 OFFCURVE",
"379 0 CURVE SMOOTH",
"375 -22 OFFCURVE",
"342 -22 OFFCURVE",
"240 -4 CURVE SMOOTH",
"165 9 OFFCURVE",
"127 30 OFFCURVE",
"135 54 CURVE SMOOTH",
"162 138 OFFCURVE",
"364 472 OFFCURVE",
"568 780 CURVE SMOOTH",
"710 994 OFFCURVE",
"792 1150 OFFCURVE",
"814 1263 CURVE SMOOTH",
"830 1343 OFFCURVE",
"803 1361 OFFCURVE",
"781 1361 CURVE SMOOTH",
"573 1361 LINE SMOOTH",
"443 1361 OFFCURVE",
"371 1350 OFFCURVE",
"272 1301 CURVE SMOOTH",
"263 1297 OFFCURVE",
"250 1314 OFFCURVE",
"243 1390 CURVE SMOOTH",
"238 1447 OFFCURVE",
"249 1472 OFFCURVE",
"261 1474 CURVE SMOOTH",
"343 1490 OFFCURVE",
"448 1491 OFFCURVE",
"588 1491 CURVE SMOOTH",
"1038 1491 LINE SMOOTH",
"1055 1491 OFFCURVE",
"1053 1486 OFFCURVE",
"1056 1434 CURVE SMOOTH",
"1056 1434 LINE SMOOTH"
);
}
);
userData = {
com.adobe.type.autohint = "b''";
};
width = 956;
}
);
unicode = 0037;
},
{
glyphname = eight;
layers = (
{
background = {
paths = (
{
closed = 1;
nodes = (
"403 123 OFFCURVE",
"346 -8 OFFCURVE",
"183 -8 CURVE SMOOTH",
"20 -8 OFFCURVE",
"15 126 OFFCURVE",
"30 203 CURVE SMOOTH",
"47 291 OFFCURVE",
"93 378 OFFCURVE",
"175 416 CURVE",
"122 446 OFFCURVE",
"113 507 OFFCURVE",
"124 562 CURVE SMOOTH",
"138 634 OFFCURVE",
"212 731 OFFCURVE",
"327 731 CURVE SMOOTH",
"454 731 OFFCURVE",
"478 637 OFFCURVE",
"464 562 CURVE SMOOTH",
"453 505 OFFCURVE",
"422 448 OFFCURVE",
"360 418 CURVE",
"431 381 OFFCURVE",
"436 294 OFFCURVE",
"418 203 CURVE SMOOTH",
"418 203 LINE SMOOTH"
);
},
{
closed = 1;
nodes = (
"412 629 OFFCURVE",
"387 692 OFFCURVE",
"319 692 CURVE SMOOTH",
"251 692 OFFCURVE",
"202 623 OFFCURVE",
"190 562 CURVE SMOOTH",
"176 492 OFFCURVE",
"199 437 OFFCURVE",
"269 437 CURVE SMOOTH",
"348 437 OFFCURVE",
"385 492 OFFCURVE",
"399 562 CURVE SMOOTH",
"399 562 LINE SMOOTH"
);
},
{
closed = 1;
nodes = (
"376 318 OFFCURVE",
"346 397 OFFCURVE",
"262 397 CURVE SMOOTH",
"179 397 OFFCURVE",
"117 312 OFFCURVE",
"96 203 CURVE SMOOTH",
"77 105 OFFCURVE",
"109 31 OFFCURVE",
"191 31 CURVE SMOOTH",
"278 31 OFFCURVE",
"335 106 OFFCURVE",
"353 203 CURVE SMOOTH",
"353 203 LINE SMOOTH"
);
}
);
};
layerId = "450B03F6-B4AD-41C0-900A-B61992C84FEB";
paths = (
{
closed = 1;
nodes = (
"957 1062 OFFCURVE",
"874 922 OFFCURVE",
"738 856 CURVE",
"837 804 OFFCURVE",
"874 701 OFFCURVE",
"874 581 CURVE SMOOTH",
"874 281 OFFCURVE",
"731 -17 OFFCURVE",
"385 -17 CURVE SMOOTH",
"129 -17 OFFCURVE",
"51 151 OFFCURVE",
"51 301 CURVE SMOOTH",
"51 514 OFFCURVE",
"161 761 OFFCURVE",
"358 853 CURVE",
"279 898 OFFCURVE",
"245 981 OFFCURVE",
"245 1067 CURVE SMOOTH",
"245 1294 OFFCURVE",
"425 1498 OFFCURVE",
"659 1498 CURVE SMOOTH",
"881 1498 OFFCURVE",
"957 1350 OFFCURVE",
"957 1211 CURVE SMOOTH",
"957 1211 LINE SMOOTH"
);
},
{
closed = 1;
nodes = (
"823 1332 OFFCURVE",
"766 1417 OFFCURVE",
"653 1417 CURVE SMOOTH",
"486 1417 OFFCURVE",
"381 1223 OFFCURVE",
"381 1073 CURVE SMOOTH",
"381 969 OFFCURVE",
"434 894 OFFCURVE",
"552 894 CURVE SMOOTH",
"736 894 OFFCURVE",
"823 1063 OFFCURVE",
"823 1226 CURVE SMOOTH",
"823 1226 LINE SMOOTH"
);
},
{
closed = 1;
nodes = (
"738 716 OFFCURVE",
"670 813 OFFCURVE",
"536 813 CURVE SMOOTH",
"310 813 OFFCURVE",
"185 510 OFFCURVE",
"185 316 CURVE SMOOTH",
"185 167 OFFCURVE",
"252 64 OFFCURVE",
"390 64 CURVE SMOOTH",
"639 64 OFFCURVE",
"738 359 OFFCURVE",
"738 564 CURVE SMOOTH",
"738 564 LINE SMOOTH"
);
}
);
userData = {
com.adobe.type.autohint = "b''";
};
width = 956;
},
{
background = {
paths = (
{
closed = 1;
nodes = (
"412 123 OFFCURVE",
"346 -8 OFFCURVE",
"183 -8 CURVE SMOOTH",
"20 -8 OFFCURVE",
"5 126 OFFCURVE",
"20 203 CURVE SMOOTH",
"38 295 OFFCURVE",
"93 386 OFFCURVE",
"184 421 CURVE",
"120 448 OFFCURVE",
"104 509 OFFCURVE",
"115 566 CURVE SMOOTH",
"129 639 OFFCURVE",
"212 731 OFFCURVE",
"327 731 CURVE SMOOTH",
"454 731 OFFCURVE",
"489 642 OFFCURVE",
"474 566 CURVE SMOOTH",
"463 507 OFFCURVE",
"424 449 OFFCURVE",
"352 422 CURVE",
"434 388 OFFCURVE",
"447 298 OFFCURVE",
"428 203 CURVE SMOOTH",
"428 203 LINE SMOOTH"
);
},
{
closed = 1;
nodes = (
"365 634 OFFCURVE",
"362 702 OFFCURVE",
"321 702 CURVE SMOOTH",
"278 702 OFFCURVE",
"255 628 OFFCURVE",
"243 566 CURVE SMOOTH",
"229 497 OFFCURVE",
"226 437 OFFCURVE",
"269 437 CURVE SMOOTH",
"313 437 OFFCURVE",
"338 497 OFFCURVE",
"351 566 CURVE SMOOTH",
"351 566 LINE SMOOTH"
);
},
{
closed = 1;
nodes = (
"323 318 OFFCURVE",
"328 407 OFFCURVE",
"264 407 CURVE SMOOTH",
"204 407 OFFCURVE",
"169 312 OFFCURVE",
"148 203 CURVE SMOOTH",
"129 105 OFFCURVE",
"127 21 OFFCURVE",
"189 21 CURVE SMOOTH",
"250 21 OFFCURVE",
"281 106 OFFCURVE",
"300 203 CURVE SMOOTH",
"300 203 LINE SMOOTH"
);
}
);
};
layerId = "B00507B9-787D-4BFE-8F64-5743BFDB1312";
paths = (
{
closed = 1;
nodes = (
"977 1051 OFFCURVE",
"870 919 OFFCURVE",
"722 864 CURVE",
"845 813 OFFCURVE",
"892 694 OFFCURVE",
"892 558 CURVE SMOOTH {name = hr01;}",
"892 257 OFFCURVE",
"720 -17 OFFCURVE",
"385 -17 CURVE SMOOTH",
"100 -17 OFFCURVE",
"33 193 OFFCURVE",
"33 352 CURVE SMOOTH",
"33 564 OFFCURVE",
"177 784 OFFCURVE",
"377 862 CURVE",
"274 905 OFFCURVE",
"229 996 OFFCURVE",
"229 1091 CURVE SMOOTH {name = hr02;}",
"229 1318 OFFCURVE",
"439 1498 OFFCURVE",
"659 1498 CURVE SMOOTH",
"887 1498 OFFCURVE",
"977 1349 OFFCURVE",
"977 1209 CURVE SMOOTH",
"977 1209 LINE SMOOTH"
);
},
{
closed = 1;
nodes = (
"734 1378 OFFCURVE",
"713 1438 OFFCURVE",
"658 1438 CURVE SMOOTH",
"533 1438 OFFCURVE",
"480 1103 OFFCURVE",
"480 991 CURVE SMOOTH",
"480 932 OFFCURVE",
"503 894 OFFCURVE",
"552 894 CURVE SMOOTH",
"686 894 OFFCURVE",
"734 1186 OFFCURVE",
"734 1298 CURVE SMOOTH",
"734 1298 LINE SMOOTH"
);
},
{
closed = 1;
nodes = (
"646 766 OFFCURVE",
"620 834 OFFCURVE",
"540 834 CURVE SMOOTH",
"361 834 OFFCURVE",
"279 378 OFFCURVE",
"279 220 CURVE SMOOTH",
"279 115 OFFCURVE",
"305 43 OFFCURVE",
"386 43 CURVE SMOOTH",
"576 43 OFFCURVE",
"646 501 OFFCURVE",
"646 659 CURVE SMOOTH",
"646 659 LINE SMOOTH {name = hr03;}"
);
}
);
userData = {
com.adobe.type.autohint = "b''";
};
width = 956;
}
);
unicode = 0038;
},
{
glyphname = nine;
layers = (
{
background = {
paths = (
{
closed = 1;
nodes = (
"409 154 OFFCURVE",
"301 -8 OFFCURVE",
"172 -8 CURVE SMOOTH",
"84 -8 OFFCURVE",
"42 26 OFFCURVE",
"18 56 CURVE SMOOTH",
"11 65 OFFCURVE",
"13 69 OFFCURVE",
"32 93 CURVE SMOOTH",
"48 113 OFFCURVE",
"59 116 OFFCURVE",
"61 111 CURVE SMOOTH",
"77 78 OFFCURVE",
"116 31 OFFCURVE",
"164 31 CURVE SMOOTH",
"261 31 OFFCURVE",
"337 149 OFFCURVE",
"380 348 CURVE",
"350 314 OFFCURVE",
"302 280 OFFCURVE",
"244 280 CURVE SMOOTH",
"115 280 OFFCURVE",
"61 364 OFFCURVE",
"88 501 CURVE SMOOTH",
"113 631 OFFCURVE",
"209 732 OFFCURVE",
"327 732 CURVE SMOOTH",
"446 732 OFFCURVE",
"499 619 OFFCURVE",
"456 395 CURVE SMOOTH",
"456 395 LINE SMOOTH"
);
},
{
closed = 1;
nodes = (
"415 617 OFFCURVE",
"378 692 OFFCURVE",
"319 692 CURVE SMOOTH",
"245 692 OFFCURVE",
"173 608 OFFCURVE",
"153 501 CURVE SMOOTH",
"131 390 OFFCURVE",
"173 320 OFFCURVE",
"247 320 CURVE SMOOTH",
"307 320 OFFCURVE",
"365 382 OFFCURVE",
"400 467 CURVE",
"400 467 LINE"
);
}
);
};
layerId = "450B03F6-B4AD-41C0-900A-B61992C84FEB";
paths = (
{
closed = 1;
nodes = (
"963 738 OFFCURVE",
"771 -17 OFFCURVE",
"363 -17 CURVE SMOOTH",
"182 -17 OFFCURVE",
"97 53 OFFCURVE",
"47 115 CURVE SMOOTH",
"32 134 OFFCURVE",
"37 142 OFFCURVE",
"76 190 CURVE SMOOTH",
"109 231 OFFCURVE",
"130 237 OFFCURVE",
"135 227 CURVE SMOOTH",
"167 160 OFFCURVE",
"238 64 OFFCURVE",
"336 64 CURVE SMOOTH",
"533 64 OFFCURVE",
"690 305 OFFCURVE",
"779 712 CURVE",
"718 643 OFFCURVE",
"629 574 OFFCURVE",
"510 574 CURVE SMOOTH",
"290 574 OFFCURVE",
"167 700 OFFCURVE",
"167 905 CURVE SMOOTH",
"167 1184 OFFCURVE",
"350 1499 OFFCURVE",
"659 1499 CURVE SMOOTH",
"847 1499 OFFCURVE",
"963 1356 OFFCURVE",
"963 1082 CURVE SMOOTH",
"963 1082 LINE SMOOTH"
);
},
{
closed = 1;
nodes = (
"825 1295 OFFCURVE",
"762 1418 OFFCURVE",
"654 1418 CURVE SMOOTH",
"431 1418 OFFCURVE",
"301 1101 OFFCURVE",
"301 905 CURVE SMOOTH",
"301 749 OFFCURVE",
"384 655 OFFCURVE",
"505 655 CURVE SMOOTH",
"628 655 OFFCURVE",
"747 782 OFFCURVE",
"819 957 CURVE",
"822 990 OFFCURVE",
"825 1020 OFFCURVE",
"825 1049 CURVE SMOOTH",
"825 1049 LINE SMOOTH"
);
}
);
userData = {
com.adobe.type.autohint = "b''";
};
width = 956;
},
{
background = {
paths = (
{
closed = 1;
nodes = (
"419 154 OFFCURVE",
"301 -8 OFFCURVE",
"172 -8 CURVE SMOOTH",
"84 -8 OFFCURVE",
"38 31 OFFCURVE",
"16 80 CURVE SMOOTH",
"8 96 OFFCURVE",
"22 107 OFFCURVE",
"61 126 CURVE SMOOTH",
"114 153 OFFCURVE",
"126 153 OFFCURVE",
"129 139 CURVE SMOOTH",
"132 116 OFFCURVE",
"116 21 OFFCURVE",
"172 21 CURVE SMOOTH",
"241 21 OFFCURVE",
"280 127 OFFCURVE",
"317 298 CURVE",
"295 287 OFFCURVE",
"271 280 OFFCURVE",
"244 280 CURVE SMOOTH",
"115 280 OFFCURVE",
"51 364 OFFCURVE",
"78 501 CURVE SMOOTH",
"103 631 OFFCURVE",
"209 732 OFFCURVE",
"327 732 CURVE SMOOTH",
"446 732 OFFCURVE",
"509 619 OFFCURVE",
"465 395 CURVE SMOOTH",
"465 395 LINE SMOOTH"
);
},
{
closed = 1;
nodes = (
"376 616 OFFCURVE",
"377 703 OFFCURVE",
"321 703 CURVE SMOOTH",
"265 703 OFFCURVE",
"227 608 OFFCURVE",
"206 501 CURVE SMOOTH",
"184 390 OFFCURVE",
"184 320 OFFCURVE",
"247 320 CURVE SMOOTH",
"295 320 OFFCURVE",
"327 376 OFFCURVE",
"348 456 CURVE",
"348 456 LINE"
);
}
);
};
layerId = "B00507B9-787D-4BFE-8F64-5743BFDB1312";
paths = (
{
closed = 1;
nodes = (
"980 701 OFFCURVE",
"772 -17 OFFCURVE",
"363 -17 CURVE SMOOTH",
"182 -17 OFFCURVE",
"89 63 OFFCURVE",
"42 164 CURVE SMOOTH",
"27 196 OFFCURVE",
"54 218 OFFCURVE",
"135 259 CURVE SMOOTH",
"244 314 OFFCURVE",
"268 314 OFFCURVE",
"273 284 CURVE SMOOTH",
"281 238 OFFCURVE",
"238 43 OFFCURVE",
"352 43 CURVE SMOOTH",
"493 43 OFFCURVE",
"573 261 OFFCURVE",
"649 611 CURVE",
"605 588 OFFCURVE",
"565 574 OFFCURVE",
"510 574 CURVE SMOOTH",
"290 574 OFFCURVE",
"148 700 OFFCURVE",
"148 905 CURVE SMOOTH {name = hr01;}",
"148 1191 OFFCURVE",
"352 1499 OFFCURVE",
"659 1499 CURVE SMOOTH",
"855 1499 OFFCURVE",
"980 1343 OFFCURVE",
"980 1046 CURVE SMOOTH",
"980 1046 LINE SMOOTH"
);
},
{
closed = 1;
nodes = (
"751 1382 OFFCURVE",
"722 1439 OFFCURVE",
"658 1439 CURVE SMOOTH",
"482 1439 OFFCURVE",
"395 969 OFFCURVE",
"395 813 CURVE SMOOTH",
"395 713 OFFCURVE",
"423 655 OFFCURVE",
"505 655 CURVE SMOOTH",
"603 655 OFFCURVE",
"668 771 OFFCURVE",
"712 934 CURVE",
"737 1077 OFFCURVE",
"751 1192 OFFCURVE",
"751 1275 CURVE SMOOTH",
"751 1275 LINE SMOOTH"
);
}
);
userData = {
com.adobe.type.autohint = "b''";
};
width = 956;
}
);
unicode = 0039;
},
{
glyphname = colon;
layers = (
{
background = {
paths = (
{
closed = 1;
nodes = (
"92 16 OFFCURVE",
"66 -9 OFFCURVE",
"42 -9 CURVE SMOOTH",
"16 -9 OFFCURVE",
"2 17 OFFCURVE",
"9 53 CURVE SMOOTH",
"16 92 OFFCURVE",
"43 112 OFFCURVE",
"65 112 CURVE SMOOTH",
"87 112 OFFCURVE",
"106 90 OFFCURVE",
"99 53 CURVE SMOOTH",
"99 53 LINE SMOOTH"
);
},
{
closed = 1;
nodes = (
"148 309 OFFCURVE",
"123 285 OFFCURVE",
"98 285 CURVE SMOOTH",
"73 285 OFFCURVE",
"58 310 OFFCURVE",
"65 346 CURVE SMOOTH",
"73 385 OFFCURVE",
"100 406 OFFCURVE",
"122 406 CURVE SMOOTH",
"144 406 OFFCURVE",
"163 383 OFFCURVE",
"156 346 CURVE SMOOTH",
"156 346 LINE SMOOTH"
);
}
);
};
layerId = "450B03F6-B4AD-41C0-900A-B61992C84FEB";
paths = (
{
closed = 1;
nodes = (
"330 668 OFFCURVE",
"283 582 OFFCURVE",
"205 582 CURVE SMOOTH",
"161 582 OFFCURVE",
"128 626 OFFCURVE",
"128 684 CURVE SMOOTH",
"128 753 OFFCURVE",
"175 830 OFFCURVE",
"253 830 CURVE SMOOTH",
"290 830 OFFCURVE",
"330 791 OFFCURVE",
"330 735 CURVE SMOOTH",
"330 735 LINE SMOOTH"
);
},
{
closed = 1;
nodes = (
"210 68 OFFCURVE",
"163 -18 OFFCURVE",
"85 -18 CURVE SMOOTH",
"41 -18 OFFCURVE",
"8 26 OFFCURVE",
"8 84 CURVE SMOOTH",
"8 153 OFFCURVE",
"55 230 OFFCURVE",
"133 230 CURVE SMOOTH",
"170 230 OFFCURVE",
"210 191 OFFCURVE",
"210 135 CURVE SMOOTH",
"210 135 LINE SMOOTH"
);
}
);
userData = {
com.adobe.type.autohint = "b''";
};
width = 379;
},
{
background = {
paths = (
{
closed = 1;
nodes = (
"114 22 OFFCURVE",
"83 -9 OFFCURVE",
"52 -9 CURVE SMOOTH",
"24 -9 OFFCURVE",
"2 21 OFFCURVE",
"11 69 CURVE SMOOTH",
"21 118 OFFCURVE",
"54 144 OFFCURVE",
"82 144 CURVE SMOOTH",
"113 144 OFFCURVE",
"133 118 OFFCURVE",
"123 69 CURVE SMOOTH",
"123 69 LINE SMOOTH"
);
},
{
closed = 1;
nodes = (
"165 284 OFFCURVE",
"134 253 OFFCURVE",
"103 253 CURVE SMOOTH",
"75 253 OFFCURVE",
"53 282 OFFCURVE",
"62 331 CURVE SMOOTH",
"72 380 OFFCURVE",
"105 406 OFFCURVE",
"133 406 CURVE SMOOTH",
"163 406 OFFCURVE",
"184 380 OFFCURVE",
"174 331 CURVE SMOOTH",
"174 331 LINE SMOOTH"
);
}
);
};
layerId = "B00507B9-787D-4BFE-8F64-5743BFDB1312";
paths = (
{
closed = 1;
nodes = (
"367 628 OFFCURVE",
"306 523 OFFCURVE",
"213 523 CURVE SMOOTH",
"162 523 OFFCURVE",
"119 564 OFFCURVE",
"119 653 CURVE SMOOTH",
"119 732 OFFCURVE",
"181 835 OFFCURVE",
"273 835 CURVE SMOOTH",
"327 835 OFFCURVE",
"367 786 OFFCURVE",
"367 709 CURVE SMOOTH",
"367 709 LINE SMOOTH"
);
},
{
closed = 1;
nodes = (
"262 88 OFFCURVE",
"201 -17 OFFCURVE",
"108 -17 CURVE SMOOTH",
"57 -17 OFFCURVE",
"14 24 OFFCURVE",
"14 113 CURVE SMOOTH",
"14 192 OFFCURVE",
"76 295 OFFCURVE",
"168 295 CURVE SMOOTH",
"222 295 OFFCURVE",
"262 246 OFFCURVE",
"262 169 CURVE SMOOTH",
"262 169 LINE SMOOTH {name = hr01;}"
);
}
);
userData = {
com.adobe.type.autohint = "b''";
};
width = 422;
}
);
unicode = 003A;
},
{
glyphname = semicolon;
layers = (
{
background = {
paths = (
{
closed = 1;
nodes = (
"154 309 OFFCURVE",
"129 285 OFFCURVE",
"104 285 CURVE SMOOTH",
"79 285 OFFCURVE",
"64 310 OFFCURVE",
"71 346 CURVE SMOOTH",
"79 385 OFFCURVE",
"106 406 OFFCURVE",
"128 406 CURVE SMOOTH",
"150 406 OFFCURVE",
"169 383 OFFCURVE",
"162 346 CURVE SMOOTH",
"162 346 LINE SMOOTH"
);
},
{
closed = 1;
nodes = (
"82 -122 OFFCURVE",
"-35 -206 OFFCURVE",
"-37 -194 CURVE SMOOTH",
"-38 -184 OFFCURVE",
"55 -119 OFFCURVE",
"74 -17 CURVE SMOOTH",
"76 -6 OFFCURVE",
"73 6 OFFCURVE",
"69 6 CURVE SMOOTH",
"64 6 OFFCURVE",
"50 -8 OFFCURVE",
"38 -8 CURVE SMOOTH",
"16 -8 OFFCURVE",
"2 20 OFFCURVE",
"8 52 CURVE SMOOTH",
"15 90 OFFCURVE",
"46 110 OFFCURVE",
"66 110 CURVE SMOOTH",
"110 110 OFFCURVE",
"116 56 OFFCURVE",
"106 1 CURVE SMOOTH",
"106 1 LINE SMOOTH"
);
}
);
};
layerId = "450B03F6-B4AD-41C0-900A-B61992C84FEB";
paths = (
{
closed = 1;
nodes = (
"340 668 OFFCURVE",
"293 582 OFFCURVE",
"215 582 CURVE SMOOTH",
"171 582 OFFCURVE",
"138 626 OFFCURVE",
"138 684 CURVE SMOOTH",
"138 753 OFFCURVE",
"185 830 OFFCURVE",
"263 830 CURVE SMOOTH",
"300 830 OFFCURVE",
"340 791 OFFCURVE",
"340 735 CURVE SMOOTH",
"340 735 LINE SMOOTH"
);
},
{
closed = 1;
nodes = (
"225 49 OFFCURVE",
"222 21 OFFCURVE",
"217 -7 CURVE SMOOTH",
"168 -260 OFFCURVE",
"-73 -423 OFFCURVE",
"-75 -397 CURVE SMOOTH",
"-77 -378 OFFCURVE",
"111 -244 OFFCURVE",
"152 -35 CURVE SMOOTH",
"153 -31 OFFCURVE",
"154 -25 OFFCURVE",
"154 -21 CURVE SMOOTH",
"155 -2 OFFCURVE",
"147 12 OFFCURVE",
"141 12 CURVE SMOOTH",
"131 12 OFFCURVE",
"108 -17 OFFCURVE",
"83 -17 CURVE SMOOTH",
"45 -17 OFFCURVE",
"15 30 OFFCURVE",
"14 84 CURVE SMOOTH",
"12 151 OFFCURVE",
"58 225 OFFCURVE",
"131 225 CURVE SMOOTH",
"199 225 OFFCURVE",
"225 157 OFFCURVE",
"225 76 CURVE SMOOTH",
"225 76 LINE SMOOTH"
);
}
);
userData = {
com.adobe.type.autohint = "b''";
};
width = 407;
},
{
background = {
paths = (
{
closed = 1;
nodes = (
"165 285 OFFCURVE",
"134 254 OFFCURVE",
"104 254 CURVE SMOOTH",
"75 254 OFFCURVE",
"53 283 OFFCURVE",
"62 332 CURVE SMOOTH",
"72 381 OFFCURVE",
"105 407 OFFCURVE",
"133 407 CURVE SMOOTH",
"164 407 OFFCURVE",
"184 381 OFFCURVE",
"174 332 CURVE SMOOTH",
"174 332 LINE SMOOTH"
);
},
{
closed = 1;
nodes = (
"100 -140 OFFCURVE",
"-25 -206 OFFCURVE",
"-26 -194 CURVE SMOOTH",
"-27 -184 OFFCURVE",
"63 -111 OFFCURVE",
"80 -27 CURVE SMOOTH",
"83 -10 OFFCURVE",
"83 5 OFFCURVE",
"80 5 CURVE SMOOTH",
"75 5 OFFCURVE",
"68 -8 OFFCURVE",
"54 -8 CURVE SMOOTH",
"27 -8 OFFCURVE",
"2 18 OFFCURVE",
"12 67 CURVE SMOOTH",
"21 116 OFFCURVE",
"52 145 OFFCURVE",
"83 145 CURVE SMOOTH",
"130 145 OFFCURVE",
"145 91 OFFCURVE",
"132 27 CURVE SMOOTH",
"132 27 LINE SMOOTH"
);
}
);
};
layerId = "B00507B9-787D-4BFE-8F64-5743BFDB1312";
paths = (
{
closed = 1;
nodes = (
"367 629 OFFCURVE",
"306 523 OFFCURVE",
"213 523 CURVE SMOOTH",
"162 523 OFFCURVE",
"119 564 OFFCURVE",
"119 653 CURVE SMOOTH",
"119 732 OFFCURVE",
"181 835 OFFCURVE",
"273 835 CURVE SMOOTH",
"327 835 OFFCURVE",
"367 786 OFFCURVE",
"367 709 CURVE SMOOTH",
"367 709 LINE SMOOTH"
);
},
{
closed = 1;
nodes = (
"277 105 OFFCURVE",
"275 76 OFFCURVE",
"269 46 CURVE SMOOTH",
"202 -297 OFFCURVE",
"-52 -423 OFFCURVE",
"-54 -397 CURVE SMOOTH",
"-56 -378 OFFCURVE",
"121 -242 OFFCURVE",
"162 -56 CURVE SMOOTH",
"165 -41 OFFCURVE",
"166 -22 OFFCURVE",
"167 -11 CURVE SMOOTH",
"168 5 OFFCURVE",
"167 10 OFFCURVE",
"162 10 CURVE SMOOTH",
"152 10 OFFCURVE",
"142 -17 OFFCURVE",
"112 -17 CURVE SMOOTH",
"66 -17 OFFCURVE",
"19 32 OFFCURVE",
"19 106 CURVE SMOOTH",
"19 194 OFFCURVE",
"69 296 OFFCURVE",
"165 296 CURVE SMOOTH",
"239 296 OFFCURVE",
"277 225 OFFCURVE",
"277 133 CURVE SMOOTH",
"277 133 LINE SMOOTH {name = hr01;}"
);
}
);
userData = {
com.adobe.type.autohint = "b''";
};
width = 450;
}
);
unicode = 003B;
},
{
glyphname = less;
layers = (
{
layerId = "450B03F6-B4AD-41C0-900A-B61992C84FEB";
paths = (
{
closed = 1;
nodes = (
"394 530 LINE",
"394 652 LINE",
"1576 1105 LINE",
"1576 983 LINE",
"520 591 LINE",
"1576 199 LINE",
"1576 77 LINE"
);
}
);
width = 1970;
},
{
layerId = "B00507B9-787D-4BFE-8F64-5743BFDB1312";
paths = (
{
closed = 1;
nodes = (
"394 530 LINE",
"394 652 LINE",
"1576 1105 LINE",
"1576 983 LINE",
"520 591 LINE",
"1576 199 LINE",
"1576 77 LINE"
);
}
);
width = 1970;
}
);
unicode = 003C;
},
{
glyphname = equal;
layers = (
{
layerId = "450B03F6-B4AD-41C0-900A-B61992C84FEB";
paths = (
{
closed = 1;
nodes = (
"394 709 LINE",
"394 831 LINE",
"1576 831 LINE",
"1576 709 LINE"
);
},
{
closed = 1;
nodes = (
"394 351 LINE",
"394 473 LINE",
"1576 473 LINE",
"1576 351 LINE"
);
}
);
userData = {
com.adobe.type.autohint = "b''";
};
width = 1970;
},
{
layerId = "B00507B9-787D-4BFE-8F64-5743BFDB1312";
paths = (
{
closed = 1;
nodes = (
"394 709 LINE",
"394 831 LINE",
"1576 831 LINE",
"1576 709 LINE"
);
},
{
closed = 1;
nodes = (
"394 351 LINE",
"394 473 LINE",
"1576 473 LINE",
"1576 351 LINE"
);
}
);
userData = {
com.adobe.type.autohint = "b''";
};
width = 1970;
}
);
unicode = 003D;
},
{
glyphname = greater;
layers = (
{
layerId = "450B03F6-B4AD-41C0-900A-B61992C84FEB";
paths = (
{
closed = 1;
nodes = (
"394 77 LINE",
"394 199 LINE",
"1450 591 LINE",
"394 983 LINE",
"394 1105 LINE",
"1576 652 LINE",
"1576 530 LINE"
);
}
);
width = 1970;
},
{
layerId = "B00507B9-787D-4BFE-8F64-5743BFDB1312";
paths = (
{
closed = 1;
nodes = (
"394 77 LINE",
"394 199 LINE",
"1450 591 LINE",
"394 983 LINE",
"394 1105 LINE",
"1576 652 LINE",
"1576 530 LINE"
);
}
);
width = 1970;
}
);
unicode = 003E;
},
{
glyphname = question;
layers = (
{
background = {
paths = (
{
closed = 1;
nodes = (
"301 242 OFFCURVE",
"200 221 OFFCURVE",
"194 215 CURVE SMOOTH",
"187 209 OFFCURVE",
"171 118 OFFCURVE",
"170 108 CURVE SMOOTH",
"170 104 OFFCURVE",
"167 99 OFFCURVE",
"150 99 CURVE SMOOTH",
"130 99 OFFCURVE",
"127 101 OFFCURVE",
"127 107 CURVE SMOOTH",
"127 118 OFFCURVE",
"153 230 OFFCURVE",
"159 237 CURVE SMOOTH",
"165 243 OFFCURVE",
"257 265 OFFCURVE",
"273 350 CURVE SMOOTH",
"284 405 OFFCURVE",
"254 440 OFFCURVE",
"222 440 CURVE SMOOTH",
"177 440 OFFCURVE",
"140 401 OFFCURVE",
"121 365 CURVE SMOOTH",
"117 356 OFFCURVE",
"111 355 OFFCURVE",
"92 368 CURVE SMOOTH",
"73 380 OFFCURVE",
"72 388 OFFCURVE",
"77 394 CURVE SMOOTH",
"102 423 OFFCURVE",
"149 473 OFFCURVE",
"230 473 CURVE SMOOTH",
"289 473 OFFCURVE",
"340 429 OFFCURVE",
"324 353 CURVE SMOOTH",
"324 353 LINE SMOOTH"
);
},
{
closed = 1;
nodes = (
"164 7 OFFCURVE",
"147 -8 OFFCURVE",
"129 -8 CURVE SMOOTH",
"111 -8 OFFCURVE",
"100 8 OFFCURVE",
"104 25 CURVE SMOOTH",
"107 43 OFFCURVE",
"123 62 OFFCURVE",
"141 62 CURVE SMOOTH",
"160 62 OFFCURVE",
"173 50 OFFCURVE",
"168 25 CURVE SMOOTH",
"168 25 LINE SMOOTH"
);
}
);
};
layerId = "450B03F6-B4AD-41C0-900A-B61992C84FEB";
paths = (
{
closed = 1;
nodes = (
"670 748 OFFCURVE",
"668 730 OFFCURVE",
"664 712 CURVE SMOOTH",
"617 485 OFFCURVE",
"410 452 OFFCURVE",
"398 441 CURVE SMOOTH",
"383 428 OFFCURVE",
"351 242 OFFCURVE",
"349 221 CURVE SMOOTH",
"348 212 OFFCURVE",
"342 203 OFFCURVE",
"306 203 CURVE SMOOTH",
"266 203 OFFCURVE",
"261 207 OFFCURVE",
"261 220 CURVE SMOOTH",
"261 242 OFFCURVE",
"309 471 OFFCURVE",
"323 486 CURVE SMOOTH",
"334 498 OFFCURVE",
"525 543 OFFCURVE",
"559 717 CURVE SMOOTH",
"562 730 OFFCURVE",
"563 743 OFFCURVE",
"563 755 CURVE SMOOTH",
"563 847 OFFCURVE",
"503 901 OFFCURVE",
"444 901 CURVE SMOOTH",
"352 901 OFFCURVE",
"287 822 OFFCURVE",
"248 747 CURVE SMOOTH",
"239 730 OFFCURVE",
"228 727 OFFCURVE",
"189 753 CURVE SMOOTH",
"150 779 OFFCURVE",
"147 794 OFFCURVE",
"158 807 CURVE SMOOTH",
"208 866 OFFCURVE",
"284 968 OFFCURVE",
"450 968 CURVE SMOOTH",
"557 968 OFFCURVE",
"670 890 OFFCURVE",
"670 765 CURVE SMOOTH",
"670 765 LINE SMOOTH"
);
},
{
closed = 1;
nodes = (
"346 24 OFFCURVE",
"314 -17 OFFCURVE",
"266 -17 CURVE SMOOTH",
"234 -17 OFFCURVE",
"211 11 OFFCURVE",
"211 42 CURVE SMOOTH",
"211 82 OFFCURVE",
"244 128 OFFCURVE",
"286 128 CURVE SMOOTH",
"319 128 OFFCURVE",
"346 107 OFFCURVE",
"346 71 CURVE SMOOTH",
"346 71 LINE SMOOTH"
);
}
);
userData = {
com.adobe.type.autohint = "b''";
};
width = 720;
},
{
background = {
paths = (
{
closed = 1;
nodes = (
"338 242 OFFCURVE",
"238 221 OFFCURVE",
"232 216 CURVE SMOOTH",
"225 210 OFFCURVE",
"220 177 OFFCURVE",
"219 167 CURVE SMOOTH",
"219 162 OFFCURVE",
"193 158 OFFCURVE",
"175 158 CURVE SMOOTH",
"155 158 OFFCURVE",
"134 160 OFFCURVE",
"134 166 CURVE SMOOTH",
"134 177 OFFCURVE",
"148 230 OFFCURVE",
"155 238 CURVE SMOOTH",
"160 244 OFFCURVE",
"240 265 OFFCURVE",
"256 351 CURVE SMOOTH",
"269 415 OFFCURVE",
"258 444 OFFCURVE",
"226 444 CURVE SMOOTH",
"195 444 OFFCURVE",
"178 407 OFFCURVE",
"162 365 CURVE SMOOTH",
"156 351 OFFCURVE",
"147 346 OFFCURVE",
"104 361 CURVE SMOOTH",
"71 373 OFFCURVE",
"72 385 OFFCURVE",
"81 395 CURVE SMOOTH",
"119 438 OFFCURVE",
"156 473 OFFCURVE",
"244 473 CURVE SMOOTH",
"320 473 OFFCURVE",
"376 436 OFFCURVE",
"360 353 CURVE SMOOTH",
"360 353 LINE SMOOTH"
);
},
{
closed = 1;
nodes = (
"202 20 OFFCURVE",
"172 -8 OFFCURVE",
"143 -8 CURVE SMOOTH",
"114 -8 OFFCURVE",
"94 19 OFFCURVE",
"102 61 CURVE SMOOTH",
"110 102 OFFCURVE",
"138 127 OFFCURVE",
"169 127 CURVE SMOOTH",
"199 127 OFFCURVE",
"217 100 OFFCURVE",
"210 61 CURVE SMOOTH",
"210 61 LINE SMOOTH"
);
}
);
};
layerId = "B00507B9-787D-4BFE-8F64-5743BFDB1312";
paths = (
{
closed = 1;
nodes = (
"741 753 OFFCURVE",
"741 733 OFFCURVE",
"737 713 CURVE SMOOTH",
"692 486 OFFCURVE",
"488 453 OFFCURVE",
"475 442 CURVE SMOOTH",
"461 429 OFFCURVE",
"451 352 OFFCURVE",
"449 331 CURVE SMOOTH",
"448 322 OFFCURVE",
"392 322 OFFCURVE",
"359 323 CURVE SMOOTH",
"318 324 OFFCURVE",
"275 332 OFFCURVE",
"275 345 CURVE SMOOTH",
"275 367 OFFCURVE",
"304 472 OFFCURVE",
"318 487 CURVE SMOOTH",
"329 499 OFFCURVE",
"491 544 OFFCURVE",
"525 718 CURVE SMOOTH",
"531 753 OFFCURVE",
"536 781 OFFCURVE",
"536 806 CURVE SMOOTH",
"536 875 OFFCURVE",
"512 910 OFFCURVE",
"463 910 CURVE SMOOTH {name = hr01;}",
"399 910 OFFCURVE",
"351 814 OFFCURVE",
"331 748 CURVE SMOOTH",
"322 717 OFFCURVE",
"301 708 OFFCURVE",
"213 740 CURVE SMOOTH",
"145 765 OFFCURVE",
"150 787 OFFCURVE",
"165 808 CURVE SMOOTH",
"215 877 OFFCURVE",
"300 969 OFFCURVE",
"479 969 CURVE SMOOTH",
"616 969 OFFCURVE",
"741 905 OFFCURVE",
"741 771 CURVE SMOOTH",
"741 771 LINE SMOOTH"
);
},
{
closed = 1;
nodes = (
"433 68 OFFCURVE",
"384 -16 OFFCURVE",
"292 -16 CURVE SMOOTH",
"242 -16 OFFCURVE",
"205 32 OFFCURVE",
"205 98 CURVE SMOOTH",
"205 180 OFFCURVE",
"255 260 OFFCURVE",
"346 260 CURVE SMOOTH",
"398 260 OFFCURVE",
"433 214 OFFCURVE",
"433 151 CURVE SMOOTH",
"433 151 LINE SMOOTH"
);
}
);
userData = {
com.adobe.type.autohint = "b''";
};
width = 792;
}
);
unicode = 003F;
},
{
glyphname = at;
layers = (
{
layerId = "450B03F6-B4AD-41C0-900A-B61992C84FEB";
paths = (
{
closed = 1;
nodes = (
"1785 -16 OFFCURVE",
"1523 -443 OFFCURVE",
"969 -443 CURVE SMOOTH",
"388 -443 OFFCURVE",
"97 28 OFFCURVE",
"97 445 CURVE SMOOTH",
"97 1090 OFFCURVE",
"607 1422 OFFCURVE",
"1042 1422 CURVE SMOOTH",
"1432 1422 OFFCURVE",
"1757 1184 OFFCURVE",
"1757 737 CURVE SMOOTH",
"1757 343 OFFCURVE",
"1515 32 OFFCURVE",
"1206 32 CURVE SMOOTH",
"1032 32 OFFCURVE",
"1042 154 OFFCURVE",
"1070 315 CURVE",
"971 197 OFFCURVE",
"829 32 OFFCURVE",
"676 32 CURVE SMOOTH",
"583 32 OFFCURVE",
"496 118 OFFCURVE",
"496 262 CURVE SMOOTH",
"496 589 OFFCURVE",
"820 965 OFFCURVE",
"1046 965 CURVE SMOOTH",
"1172 965 OFFCURVE",
"1210 873 OFFCURVE",
"1220 826 CURVE",
"1251 936 LINE",
"1407 959 LINE",
"1292 560 LINE SMOOTH",
"1249 408 OFFCURVE",
"1198 238 OFFCURVE",
"1198 177 CURVE SMOOTH",
"1198 158 OFFCURVE",
"1212 102 OFFCURVE",
"1275 102 CURVE SMOOTH {name = hr01;}",
"1432 102 OFFCURVE",
"1696 345 OFFCURVE",
"1696 757 CURVE SMOOTH",
"1696 1141 OFFCURVE",
"1405 1371 OFFCURVE",
"1048 1371 CURVE SMOOTH",
"587 1371 OFFCURVE",
"191 979 OFFCURVE",
"191 418 CURVE SMOOTH",
"191 16 OFFCURVE",
"443 -380 OFFCURVE",
"975 -380 CURVE SMOOTH",
"1482 -380 OFFCURVE",
"1700 -8 OFFCURVE",
"1779 171 CURVE",
"1836 171 LINE"
);
},
{
closed = 1;
nodes = (
"1227 767 OFFCURVE",
"1184 918 OFFCURVE",
"1058 918 CURVE SMOOTH",
"861 918 OFFCURVE",
"654 465 OFFCURVE",
"654 294 CURVE SMOOTH",
"654 197 OFFCURVE",
"719 152 OFFCURVE",
"768 152 CURVE SMOOTH {name = hr02;}",
"900 152 OFFCURVE",
"1057 339 OFFCURVE",
"1127 514 CURVE SMOOTH",
"1127 514 LINE SMOOTH"
);
}
);
userData = {
com.adobe.type.autohint = "b''";
};
width = 1887;
},
{
layerId = "B00507B9-787D-4BFE-8F64-5743BFDB1312";
paths = (
{
closed = 1;
nodes = (
"1734 -203 OFFCURVE",
"1410 -443 OFFCURVE",
"991 -443 CURVE SMOOTH",
"505 -443 OFFCURVE",
"108 -101 OFFCURVE",
"108 433 CURVE SMOOTH",
"108 962 OFFCURVE",
"477 1385 OFFCURVE",
"1070 1385 CURVE SMOOTH",
"1545 1385 OFFCURVE",
"1795 1093 OFFCURVE",
"1795 703 CURVE SMOOTH",
"1795 335 OFFCURVE",
"1549 0 OFFCURVE",
"1194 0 CURVE SMOOTH",
"1084 0 OFFCURVE",
"991 49 OFFCURVE",
"991 181 CURVE SMOOTH",
"991 219 OFFCURVE",
"1000 263 OFFCURVE",
"1017 315 CURVE",
"920 162 OFFCURVE",
"826 0 OFFCURVE",
"664 0 CURVE SMOOTH",
"548 0 OFFCURVE",
"500 116 OFFCURVE",
"500 225 CURVE SMOOTH",
"500 567 OFFCURVE",
"790 963 OFFCURVE",
"1023 963 CURVE SMOOTH",
"1143 963 OFFCURVE",
"1155 845 OFFCURVE",
"1160 812 CURVE",
"1198 926 LINE",
"1440 934 LINE",
"1269 361 OFFCURVE",
"1225 250 OFFCURVE",
"1225 152 CURVE SMOOTH",
"1225 114 OFFCURVE",
"1255 71 OFFCURVE",
"1310 71 CURVE SMOOTH",
"1422 71 OFFCURVE",
"1744 282 OFFCURVE",
"1738 705 CURVE SMOOTH",
"1733 1051 OFFCURVE",
"1484 1322 OFFCURVE",
"1103 1322 CURVE SMOOTH",
"556 1322 OFFCURVE",
"211 889 OFFCURVE",
"211 388 CURVE SMOOTH",
"211 -87 OFFCURVE",
"569 -386 OFFCURVE",
"1001 -386 CURVE SMOOTH",
"1383 -386 OFFCURVE",
"1696 -160 OFFCURVE",
"1815 165 CURVE",
"1876 165 LINE"
);
},
{
closed = 1;
nodes = (
"1115 813 OFFCURVE",
"1099 891 OFFCURVE",
"1046 891 CURVE SMOOTH",
"902 891 OFFCURVE",
"760 422 OFFCURVE",
"760 274 CURVE SMOOTH",
"760 234 OFFCURVE",
"778 185 OFFCURVE",
"812 185 CURVE SMOOTH {name = hr01;}",
"920 185 OFFCURVE",
"1115 514 OFFCURVE",
"1115 755 CURVE SMOOTH",
"1115 755 LINE SMOOTH"
);
}
);
userData = {
com.adobe.type.autohint = "b''";
};
width = 1943;
}
);
unicode = 0040;
},
{
glyphname = A;
layers = (
{
layerId = "450B03F6-B4AD-41C0-900A-B61992C84FEB";
paths = (
{
closed = 1;
nodes = (
"1080 0 LINE",
"546 0 LINE",
"556 37 LINE",
"713 37 OFFCURVE",
"728 81 OFFCURVE",
"745 232 CURVE SMOOTH",
"768 447 LINE",
"380 447 LINE",
"248 272 LINE SMOOTH",
"184 187 OFFCURVE",
"96 37 OFFCURVE",
"286 37 CURVE",
"272 0 LINE",
"-130 0 LINE",
"-120 37 LINE",
"-6 37 OFFCURVE",
"58 121 OFFCURVE",
"197 309 CURVE SMOOTH",
"991 1387 LINE",
"1026 1387 LINE",
"922 232 LINE SMOOTH",
"908 82 OFFCURVE",
"922 37 OFFCURVE",
"1091 37 CURVE",
"1091 37 LINE"
);
},
{
closed = 1;
nodes = (
"435 520 LINE",
"776 520 LINE",
"827 1056 LINE"
);
}
);
userData = {
com.adobe.type.autohint = "b''";
};
width = 1251;
},
{
layerId = "B00507B9-787D-4BFE-8F64-5743BFDB1312";
paths = (
{
closed = 1;
nodes = (
"1220 0 LINE",
"605 0 LINE",
"615 37 LINE",
"727 37 OFFCURVE",
"756 50 OFFCURVE",
"782 89 CURVE SMOOTH",
"806 124 OFFCURVE",
"818 176 OFFCURVE",
"824 305 CURVE SMOOTH",
"829 437 LINE",
"412 437 LINE",
"317 325 LINE SMOOTH",
"182 165 OFFCURVE",
"177 134 OFFCURVE",
"177 102 CURVE SMOOTH",
"177 67 OFFCURVE",
"221 39 OFFCURVE",
"290 37 CURVE",
"290 0 LINE",
"-114 0 LINE",
"-106 37 LINE",
"-22 53 OFFCURVE",
"13 74 OFFCURVE",
"197 294 CURVE SMOOTH",
"1113 1387 LINE",
"1158 1387 LINE",
"1113 270 LINE SMOOTH",
"1105 77 OFFCURVE",
"1117 53 OFFCURVE",
"1229 37 CURVE",
"1229 37 LINE"
);
},
{
closed = 1;
nodes = (
"483 520 LINE",
"835 520 LINE {name = hr01;}",
"857 961 LINE"
);
}
);
userData = {
com.adobe.type.autohint = "b''";
};
width = 1367;
}
);
unicode = 0041;
},
{
glyphname = B;
layers = (
{
layerId = "450B03F6-B4AD-41C0-900A-B61992C84FEB";
paths = (
{
closed = 1;
nodes = (
"1210 826 OFFCURVE",
"956 741 OFFCURVE",
"851 717 CURVE",
"952 684 OFFCURVE",
"1088 600 OFFCURVE",
"1088 426 CURVE SMOOTH {name = hr01;}",
"1088 162 OFFCURVE",
"875 0 OFFCURVE",
"487 0 CURVE SMOOTH",
"-47 0 LINE",
"-35 37 LINE {name = hr02;}",
"111 37 OFFCURVE",
"136 81 OFFCURVE",
"187 258 CURVE SMOOTH",
"431 1097 LINE SMOOTH",
"487 1287 OFFCURVE",
"481 1318 OFFCURVE",
"305 1318 CURVE",
"319 1355 LINE",
"780 1355 LINE SMOOTH",
"995 1355 OFFCURVE",
"1210 1281 OFFCURVE",
"1210 1068 CURVE SMOOTH",
"1210 1068 LINE SMOOTH"
);
},
{
closed = 1;
nodes = (
"1013 1153 OFFCURVE",
"983 1289 OFFCURVE",
"759 1289 CURVE SMOOTH",
"722 1289 OFFCURVE",
"658 1277 OFFCURVE",
"658 1277 CURVE",
"506 757 LINE",
"550 758 OFFCURVE",
"582 755 OFFCURVE",
"607 755 CURVE SMOOTH",
"948 755 OFFCURVE",
"1013 946 OFFCURVE",
"1013 1074 CURVE SMOOTH",
"1013 1074 LINE SMOOTH"
);
},
{
closed = 1;
nodes = (
"875 627 OFFCURVE",
"729 684 OFFCURVE",
"567 684 CURVE SMOOTH",
"529 684 OFFCURVE",
"500 681 OFFCURVE",
"485 680 CURVE",
"313 89 LINE",
"313 89 OFFCURVE",
"394 73 OFFCURVE",
"481 73 CURVE SMOOTH",
"713 73 OFFCURVE",
"875 225 OFFCURVE",
"875 426 CURVE SMOOTH",
"875 426 LINE SMOOTH {name = hr03;}"
);
}
);
userData = {
com.adobe.type.autohint = "b''";
};
width = 1251;
},
{
layerId = "B00507B9-787D-4BFE-8F64-5743BFDB1312";
paths = (
{
closed = 1;
nodes = (
"1322 938 OFFCURVE",
"1210 792 OFFCURVE",
"879 725 CURVE",
"1172 654 OFFCURVE",
"1212 491 OFFCURVE",
"1212 400 CURVE SMOOTH {name = hr01;}",
"1212 285 OFFCURVE",
"1151 195 OFFCURVE",
"1093 140 CURVE SMOOTH",
"982 32 OFFCURVE",
"885 0 OFFCURVE",
"495 0 CURVE SMOOTH",
"-51 0 LINE",
"-41 37 LINE {name = hr02;}",
"108 43 OFFCURVE",
"141 72 OFFCURVE",
"197 266 CURVE SMOOTH",
"449 1141 LINE SMOOTH",
"489 1280 OFFCURVE",
"459 1314 OFFCURVE",
"305 1320 CURVE",
"317 1355 LINE",
"749 1355 LINE SMOOTH",
"1064 1355 OFFCURVE",
"1162 1350 OFFCURVE",
"1245 1267 CURVE SMOOTH",
"1291 1221 OFFCURVE",
"1322 1164 OFFCURVE",
"1322 1090 CURVE SMOOTH",
"1322 1090 LINE SMOOTH"
);
},
{
closed = 1;
nodes = (
"1013 1171 OFFCURVE",
"993 1206 OFFCURVE",
"961 1239 CURVE SMOOTH",
"927 1276 OFFCURVE",
"881 1285 OFFCURVE",
"776 1285 CURVE",
"625 755 LINE",
"845 755 OFFCURVE",
"1013 892 OFFCURVE",
"1013 1113 CURVE SMOOTH",
"1013 1113 LINE SMOOTH"
);
},
{
closed = 1;
nodes = (
"900 525 OFFCURVE",
"877 583 OFFCURVE",
"837 623 CURVE SMOOTH",
"782 678 OFFCURVE",
"705 682 OFFCURVE",
"601 682 CURVE",
"428 79 LINE",
"428 79 OFFCURVE",
"479 75 OFFCURVE",
"508 75 CURVE SMOOTH",
"861 75 OFFCURVE",
"900 366 OFFCURVE",
"900 467 CURVE SMOOTH",
"900 467 LINE SMOOTH {name = hr03;}"
);
}
);
userData = {
com.adobe.type.autohint = "b''";
};
width = 1367;
}
);
unicode = 0042;
},
{
glyphname = C;
layers = (
{
layerId = "450B03F6-B4AD-41C0-900A-B61992C84FEB";
paths = (
{
closed = 1;
nodes = (
"1338 952 LINE",
"1302 952 LINE",
"1310 1070 OFFCURVE",
"1301 1322 OFFCURVE",
"1007 1322 CURVE SMOOTH",
"566 1322 OFFCURVE",
"347 810 OFFCURVE",
"347 489 CURVE SMOOTH",
"347 278 OFFCURVE",
"477 55 OFFCURVE",
"768 55 CURVE SMOOTH",
"1060 55 OFFCURVE",
"1212 309 OFFCURVE",
"1212 309 CURVE",
"1261 309 LINE",
"1121 102 OFFCURVE",
"980 -32 OFFCURVE",
"695 -32 CURVE SMOOTH",
"380 -32 OFFCURVE",
"138 177 OFFCURVE",
"138 498 CURVE SMOOTH",
"138 887 OFFCURVE",
"463 1387 OFFCURVE",
"997 1387 CURVE SMOOTH {name = hr01;}",
"1151 1387 OFFCURVE",
"1231 1322 OFFCURVE",
"1302 1322 CURVE SMOOTH",
"1373 1322 OFFCURVE",
"1391 1389 OFFCURVE",
"1391 1389 CURVE",
"1440 1389 LINE"
);
}
);
userData = {
com.adobe.type.autohint = "b''";
};
width = 1367;
},
{
layerId = "B00507B9-787D-4BFE-8F64-5743BFDB1312";
paths = (
{
closed = 1;
nodes = (
"1377 958 LINE {name = hr01;}",
"1338 958 LINE",
"1336 1155 OFFCURVE",
"1229 1304 OFFCURVE",
"1044 1304 CURVE SMOOTH {name = hr02;}",
"725 1304 OFFCURVE",
"459 833 OFFCURVE",
"459 439 CURVE SMOOTH",
"459 175 OFFCURVE",
"603 85 OFFCURVE",
"770 85 CURVE SMOOTH",
"938 85 OFFCURVE",
"1078 162 OFFCURVE",
"1190 305 CURVE",
"1237 305 LINE",
"1156 181 OFFCURVE",
"1013 -32 OFFCURVE",
"676 -32 CURVE SMOOTH",
"339 -32 OFFCURVE",
"132 193 OFFCURVE",
"132 506 CURVE SMOOTH",
"132 1013 OFFCURVE",
"605 1387 OFFCURVE",
"1032 1387 CURVE SMOOTH",
"1186 1387 OFFCURVE",
"1269 1334 OFFCURVE",
"1336 1334 CURVE SMOOTH {name = hr03;}",
"1403 1334 OFFCURVE",
"1436 1387 OFFCURVE",
"1436 1387 CURVE {name = hr04;}",
"1478 1387 LINE"
);
}
);
userData = {
com.adobe.type.autohint = "b''";
};
width = 1367;
}
);
unicode = 0043;
},
{
glyphname = D;
layers = (
{
layerId = "450B03F6-B4AD-41C0-900A-B61992C84FEB";
paths = (
{
closed = 1;
nodes = (
"1444 349 OFFCURVE",
"1089 0 OFFCURVE",
"518 0 CURVE SMOOTH",
"-61 0 LINE",
"-47 37 LINE {name = hr01;}",
"100 37 OFFCURVE",
"129 77 OFFCURVE",
"181 258 CURVE SMOOTH",
"422 1097 LINE SMOOTH",
"478 1294 OFFCURVE",
"450 1318 OFFCURVE",
"299 1318 CURVE",
"313 1355 LINE",
"755 1355 LINE SMOOTH",
"1130 1355 OFFCURVE",
"1444 1224 OFFCURVE",
"1444 798 CURVE SMOOTH",
"1444 798 LINE SMOOTH"
);
},
{
closed = 1;
nodes = (
"1231 1103 OFFCURVE",
"1110 1285 OFFCURVE",
"782 1285 CURVE SMOOTH",
"764 1285 OFFCURVE",
"701 1281 OFFCURVE",
"654 1281 CURVE",
"357 258 LINE SMOOTH",
"306 83 OFFCURVE",
"321 65 OFFCURVE",
"455 65 CURVE SMOOTH {name = hr02;}",
"982 65 OFFCURVE",
"1231 347 OFFCURVE",
"1231 826 CURVE SMOOTH",
"1231 826 LINE SMOOTH"
);
}
);
userData = {
com.adobe.type.autohint = "b''";
};
width = 1480;
},
{
layerId = "B00507B9-787D-4BFE-8F64-5743BFDB1312";
paths = (
{
closed = 1;
nodes = (
"1438 435 OFFCURVE",
"1149 0 OFFCURVE",
"495 0 CURVE SMOOTH",
"-71 0 LINE",
"-61 37 LINE",
"89 43 OFFCURVE",
"121 72 OFFCURVE",
"177 266 CURVE SMOOTH",
"430 1141 LINE SMOOTH",
"470 1280 OFFCURVE",
"426 1312 OFFCURVE",
"268 1320 CURVE",
"280 1355 LINE",
"749 1355 LINE SMOOTH",
"1227 1355 OFFCURVE",
"1438 1156 OFFCURVE",
"1438 796 CURVE SMOOTH",
"1438 796 LINE SMOOTH"
);
},
{
closed = 1;
nodes = (
"1109 1141 OFFCURVE",
"967 1277 OFFCURVE",
"772 1277 CURVE",
"471 236 LINE SMOOTH",
"436 115 OFFCURVE",
"463 79 OFFCURVE",
"569 79 CURVE SMOOTH",
"934 79 OFFCURVE",
"1109 546 OFFCURVE",
"1109 857 CURVE SMOOTH",
"1109 857 LINE SMOOTH"
);
}
);
userData = {
com.adobe.type.autohint = "b''";
};
width = 1480;
}
);
unicode = 0044;
},
{
glyphname = E;
layers = (
{
layerId = "450B03F6-B4AD-41C0-900A-B61992C84FEB";
paths = (
{
closed = 1;
nodes = (
"1214 1030 LINE",
"1176 1030 LINE",
"1218 1241 OFFCURVE",
"1088 1285 OFFCURVE",
"855 1285 CURVE SMOOTH {name = hr01;}",
"664 1285 LINE",
"508 749 LINE",
"628 749 LINE SMOOTH",
"824 749 OFFCURVE",
"869 780 OFFCURVE",
"940 942 CURVE",
"979 942 LINE",
"837 449 LINE {name = hr02;}",
"798 449 LINE",
"841 644 OFFCURVE",
"808 676 OFFCURVE",
"609 676 CURVE SMOOTH {name = hr03;}",
"489 676 LINE",
"368 258 LINE SMOOTH",
"313 66 OFFCURVE",
"335 67 OFFCURVE",
"540 67 CURVE SMOOTH",
"804 67 OFFCURVE",
"956 122 OFFCURVE",
"1095 376 CURVE",
"1133 376 LINE",
"1005 0 LINE",
"-49 0 LINE",
"-35 37 LINE",
"91 37 OFFCURVE",
"135 56 OFFCURVE",
"193 258 CURVE SMOOTH",
"433 1097 LINE SMOOTH",
"490 1295 OFFCURVE",
"456 1318 OFFCURVE",
"305 1318 CURVE",
"315 1355 LINE",
"1296 1355 LINE"
);
}
);
userData = {
com.adobe.type.autohint = "b''";
};
width = 1251;
},
{
layerId = "B00507B9-787D-4BFE-8F64-5743BFDB1312";
paths = (
{
closed = 1;
nodes = (
"1304 1017 LINE",
"1269 1017 LINE",
"1273 1107 OFFCURVE",
"1250 1153 OFFCURVE",
"1206 1198 CURVE SMOOTH",
"1134 1270 OFFCURVE",
"1058 1283 OFFCURVE",
"863 1283 CURVE SMOOTH {name = hr01;}",
"776 1283 LINE",
"625 757 LINE",
"853 756 OFFCURVE",
"917 786 OFFCURVE",
"971 831 CURVE SMOOTH",
"1018 870 OFFCURVE",
"1046 910 OFFCURVE",
"1078 973 CURVE",
"1115 973 LINE",
"961 445 LINE",
"926 445 LINE",
"943 535 OFFCURVE",
"939 587 OFFCURVE",
"894 628 CURVE SMOOTH",
"836 683 OFFCURVE",
"804 680 OFFCURVE",
"603 680 CURVE",
"475 236 LINE SMOOTH",
"460 185 OFFCURVE",
"455 158 OFFCURVE",
"455 140 CURVE SMOOTH",
"455 104 OFFCURVE",
"485 81 OFFCURVE",
"605 81 CURVE SMOOTH",
"810 81 OFFCURVE",
"1019 160 OFFCURVE",
"1188 372 CURVE",
"1229 372 LINE",
"1088 0 LINE",
"-67 0 LINE",
"-57 37 LINE {name = hr02;}",
"93 43 OFFCURVE",
"125 72 OFFCURVE",
"181 266 CURVE SMOOTH",
"433 1141 LINE SMOOTH",
"474 1280 OFFCURVE",
"445 1312 OFFCURVE",
"288 1320 CURVE",
"299 1355 LINE",
"1393 1355 LINE"
);
}
);
userData = {
com.adobe.type.autohint = "b''";
};
width = 1367;
}
);
unicode = 0045;
},
{
glyphname = F;
layers = (
{
layerId = "450B03F6-B4AD-41C0-900A-B61992C84FEB";
paths = (
{
closed = 1;
nodes = (
"1271 1015 LINE",
"1233 1015 LINE",
"1279 1255 OFFCURVE",
"1177 1285 OFFCURVE",
"934 1285 CURVE SMOOTH {name = hr01;}",
"666 1285 LINE",
"508 749 LINE",
"658 749 LINE SMOOTH",
"853 749 OFFCURVE",
"898 774 OFFCURVE",
"987 942 CURVE",
"1026 942 LINE",
"885 449 LINE",
"845 449 LINE",
"892 627 OFFCURVE",
"840 676 OFFCURVE",
"638 676 CURVE SMOOTH",
"489 676 LINE",
"368 258 LINE SMOOTH",
"318 82 OFFCURVE",
"319 37 OFFCURVE",
"498 37 CURVE",
"489 0 LINE",
"-49 0 LINE",
"-35 37 LINE",
"91 37 OFFCURVE",
"135 54 OFFCURVE",
"193 258 CURVE SMOOTH",
"433 1097 LINE SMOOTH",
"490 1296 OFFCURVE",
"456 1318 OFFCURVE",
"305 1318 CURVE",
"315 1355 LINE",
"1371 1355 LINE"
);
}
);
userData = {
com.adobe.type.autohint = "b''";
};
width = 1251;
},
{
layerId = "B00507B9-787D-4BFE-8F64-5743BFDB1312";
paths = (
{
closed = 1;
nodes = (
"1324 997 LINE",
"1287 997 LINE",
"1290 1064 OFFCURVE",
"1263 1162 OFFCURVE",
"1227 1198 CURVE SMOOTH",
"1155 1270 OFFCURVE",
"1095 1283 OFFCURVE",
"863 1283 CURVE SMOOTH {name = hr01;}",
"776 1283 LINE",
"627 770 LINE",
"802 770 OFFCURVE",
"856 775 OFFCURVE",
"956 841 CURVE SMOOTH",
"991 865 OFFCURVE",
"1028 916 OFFCURVE",
"1060 979 CURVE",
"1097 979 LINE",
"942 443 LINE",
"904 443 LINE",
"920 530 OFFCURVE",
"916 589 OFFCURVE",
"881 634 CURVE SMOOTH",
"841 685 OFFCURVE",
"781 689 OFFCURVE",
"605 694 CURVE",
"473 236 LINE SMOOTH",
"430 87 OFFCURVE",
"427 44 OFFCURVE",
"609 37 CURVE",
"599 0 LINE",
"-75 0 LINE",
"-59 37 LINE",
"91 43 OFFCURVE",
"123 72 OFFCURVE",
"179 266 CURVE SMOOTH",
"431 1141 LINE SMOOTH",
"472 1280 OFFCURVE",
"443 1312 OFFCURVE",
"286 1320 CURVE",
"297 1355 LINE",
"1415 1355 LINE"
);
}
);
userData = {
com.adobe.type.autohint = "b''";
};
width = 1367;
}
);
unicode = 0046;
},
{
glyphname = G;
layers = (
{
layerId = "450B03F6-B4AD-41C0-900A-B61992C84FEB";
paths = (
{
closed = 1;
nodes = (
"1476 642 LINE",
"1348 642 OFFCURVE",
"1307 610 OFFCURVE",
"1263 461 CURVE SMOOTH",
"1147 65 LINE",
"1001 2 OFFCURVE",
"894 -32 OFFCURVE",
"741 -32 CURVE SMOOTH",
"425 -32 OFFCURVE",
"140 152 OFFCURVE",
"140 526 CURVE SMOOTH",
"140 909 OFFCURVE",
"483 1387 OFFCURVE",
"1017 1387 CURVE SMOOTH",
"1218 1387 OFFCURVE",
"1289 1322 OFFCURVE",
"1354 1322 CURVE SMOOTH",
"1407 1322 OFFCURVE",
"1436 1387 OFFCURVE",
"1436 1387 CURVE",
"1476 1387 LINE",
"1373 961 LINE {name = hr01;}",
"1336 961 LINE",
"1336 961 OFFCURVE",
"1344 1014 OFFCURVE",
"1344 1070 CURVE SMOOTH",
"1344 1137 OFFCURVE",
"1298 1322 OFFCURVE",
"1007 1322 CURVE SMOOTH",
"566 1322 OFFCURVE",
"353 824 OFFCURVE",
"353 518 CURVE SMOOTH",
"353 295 OFFCURVE",
"457 45 OFFCURVE",
"749 45 CURVE SMOOTH",
"845 45 OFFCURVE",
"902 65 OFFCURVE",
"979 95 CURVE",
"1084 461 LINE SMOOTH",
"1125 608 OFFCURVE",
"1095 642 OFFCURVE",
"910 642 CURVE",
"920 680 LINE",
"1484 680 LINE"
);
}
);
userData = {
com.adobe.type.autohint = "b''";
};
width = 1480;
},
{
layerId = "B00507B9-787D-4BFE-8F64-5743BFDB1312";
paths = (
{
closed = 1;
nodes = (
"1436 954 LINE {name = hr01;}",
"1399 954 LINE",
"1393 1153 OFFCURVE",
"1316 1310 OFFCURVE",
"1101 1310 CURVE SMOOTH {name = hr02;}",
"709 1310 OFFCURVE",
"459 833 OFFCURVE",
"459 439 CURVE SMOOTH",
"459 175 OFFCURVE",
"607 39 OFFCURVE",
"768 39 CURVE SMOOTH",
"800 39 OFFCURVE",
"839 51 OFFCURVE",
"885 67 CURVE",
"1003 475 LINE SMOOTH",
"1038 595 OFFCURVE",
"993 628 OFFCURVE",
"875 632 CURVE",
"885 670 LINE",
"1472 670 LINE",
"1462 632 LINE",
"1348 621 OFFCURVE",
"1341 597 OFFCURVE",
"1298 451 CURVE SMOOTH",
"1180 49 LINE",
"1032 -4 OFFCURVE",
"910 -32 OFFCURVE",
"745 -32 CURVE SMOOTH",
"325 -32 OFFCURVE",
"142 252 OFFCURVE",
"142 565 CURVE SMOOTH",
"142 1097 OFFCURVE",
"658 1387 OFFCURVE",
"1091 1387 CURVE SMOOTH",
"1269 1387 OFFCURVE",
"1332 1338 OFFCURVE",
"1413 1338 CURVE SMOOTH {name = hr03;}",
"1462 1338 OFFCURVE",
"1493 1387 OFFCURVE",
"1493 1387 CURVE {name = hr04;}",
"1531 1387 LINE"
);
}
);
userData = {
com.adobe.type.autohint = "b''";
};
width = 1480;
}
);
unicode = 0047;
},
{
glyphname = H;
layers = (
{
layerId = "450B03F6-B4AD-41C0-900A-B61992C84FEB";
paths = (
{
closed = 1;
nodes = (
"1649 1318 LINE",
"1521 1318 OFFCURVE",
"1471 1293 OFFCURVE",
"1415 1097 CURVE SMOOTH",
"1174 258 LINE SMOOTH",
"1122 74 OFFCURVE",
"1131 37 OFFCURVE",
"1292 37 CURVE",
"1283 0 LINE",
"753 0 LINE",
"766 37 LINE",
"922 37 OFFCURVE",
"946 75 OFFCURVE",
"999 258 CURVE SMOOTH",
"1121 682 LINE",
"491 682 LINE",
"368 258 LINE SMOOTH",
"315 74 OFFCURVE",
"325 37 OFFCURVE",
"487 37 CURVE",
"477 0 LINE",
"-55 0 LINE",
"-41 37 LINE",
"114 37 OFFCURVE",
"141 75 OFFCURVE",
"193 258 CURVE SMOOTH",
"433 1097 LINE SMOOTH",
"490 1297 OFFCURVE",
"454 1318 OFFCURVE",
"303 1318 CURVE",
"313 1355 LINE",
"847 1355 LINE",
"837 1318 LINE",
"709 1318 OFFCURVE",
"665 1293 OFFCURVE",
"609 1097 CURVE SMOOTH",
"510 753 LINE",
"1141 753 LINE",
"1239 1097 LINE SMOOTH",
"1296 1297 OFFCURVE",
"1260 1318 OFFCURVE",
"1109 1318 CURVE",
"1119 1355 LINE",
"1659 1355 LINE"
);
}
);
userData = {
com.adobe.type.autohint = "b''";
};
width = 1480;
},
{
layerId = "B00507B9-787D-4BFE-8F64-5743BFDB1312";
paths = (
{
closed = 1;
nodes = (
"1734 1320 LINE",
"1614 1314 OFFCURVE",
"1567 1292 OFFCURVE",
"1511 1097 CURVE SMOOTH",
"1263 236 LINE SMOOTH",
"1220 87 OFFCURVE",
"1223 44 OFFCURVE",
"1405 37 CURVE",
"1395 0 LINE",
"721 0 LINE",
"731 37 LINE",
"881 43 OFFCURVE",
"913 72 OFFCURVE",
"969 266 CURVE SMOOTH",
"1082 650 LINE",
"587 650 LINE",
"467 236 LINE SMOOTH",
"423 87 OFFCURVE",
"427 44 OFFCURVE",
"609 37 CURVE",
"599 0 LINE",
"-75 0 LINE",
"-65 37 LINE",
"85 43 OFFCURVE",
"117 72 OFFCURVE",
"173 266 CURVE SMOOTH",
"426 1141 LINE SMOOTH",
"466 1280 OFFCURVE",
"437 1312 OFFCURVE",
"280 1320 CURVE",
"292 1355 LINE",
"954 1355 LINE",
"938 1320 LINE",
"818 1314 OFFCURVE",
"771 1292 OFFCURVE",
"715 1097 CURVE SMOOTH",
"611 733 LINE",
"1103 733 LINE",
"1222 1141 LINE SMOOTH",
"1262 1280 OFFCURVE",
"1233 1312 OFFCURVE",
"1076 1320 CURVE",
"1088 1355 LINE",
"1750 1355 LINE"
);
}
);
userData = {
com.adobe.type.autohint = "b''";
};
width = 1594;
}
);
unicode = 0048;
},
{
glyphname = I;
layers = (
{
layerId = "450B03F6-B4AD-41C0-900A-B61992C84FEB";
paths = (
{
closed = 1;
nodes = (
"829 1318 LINE",
"708 1318 OFFCURVE",
"665 1294 OFFCURVE",
"609 1097 CURVE SMOOTH",
"368 258 LINE SMOOTH",
"318 81 OFFCURVE",
"318 37 OFFCURVE",
"504 37 CURVE",
"495 0 LINE",
"-63 0 LINE",
"-49 37 LINE",
"106 37 OFFCURVE",
"140 73 OFFCURVE",
"193 258 CURVE SMOOTH",
"433 1097 LINE SMOOTH",
"491 1298 OFFCURVE",
"456 1318 OFFCURVE",
"305 1318 CURVE",
"315 1355 LINE",
"839 1355 LINE"
);
}
);
userData = {
com.adobe.type.autohint = "b''";
};
width = 682;
},
{
layerId = "B00507B9-787D-4BFE-8F64-5743BFDB1312";
paths = (
{
closed = 1;
nodes = (
"942 1320 LINE",
"822 1314 OFFCURVE",
"775 1292 OFFCURVE",
"719 1097 CURVE SMOOTH",
"471 236 LINE SMOOTH",
"428 87 OFFCURVE",
"430 44 OFFCURVE",
"613 37 CURVE",
"603 0 LINE",
"-71 0 LINE",
"-61 37 LINE",
"89 43 OFFCURVE",
"121 72 OFFCURVE",
"177 266 CURVE SMOOTH",
"430 1141 LINE SMOOTH",
"470 1280 OFFCURVE",
"441 1312 OFFCURVE",
"284 1320 CURVE",
"296 1355 LINE",
"958 1355 LINE"
);
}
);
userData = {
com.adobe.type.autohint = "b''";
};
width = 798;
}
);
unicode = 0049;
},
{
glyphname = J;
layers = (
{
layerId = "450B03F6-B4AD-41C0-900A-B61992C84FEB";
paths = (
{
closed = 1;
nodes = (
"1107 1318 LINE",
"980 1318 OFFCURVE",
"934 1294 OFFCURVE",
"879 1097 CURVE SMOOTH",
"711 508 LINE SMOOTH",
"583 58 OFFCURVE",
"376 -32 OFFCURVE",
"173 -32 CURVE SMOOTH",
"8 -32 OFFCURVE",
"-69 53 OFFCURVE",
"-69 152 CURVE SMOOTH",
"-69 244 OFFCURVE",
"0 292 OFFCURVE",
"57 292 CURVE SMOOTH",
"114 292 OFFCURVE",
"160 250 OFFCURVE",
"160 199 CURVE SMOOTH",
"160 148 OFFCURVE",
"100 116 OFFCURVE",
"100 85 CURVE SMOOTH {name = hr01;}",
"100 53 OFFCURVE",
"122 32 OFFCURVE",
"173 32 CURVE SMOOTH",
"333 32 OFFCURVE",
"437 159 OFFCURVE",
"536 508 CURVE SMOOTH",
"703 1097 LINE SMOOTH",
"740 1226 OFFCURVE",
"770 1318 OFFCURVE",
"575 1318 CURVE",
"585 1355 LINE",
"1119 1355 LINE"
);
}
);
userData = {
com.adobe.type.autohint = "b''";
};
width = 910;
},
{
layerId = "B00507B9-787D-4BFE-8F64-5743BFDB1312";
paths = (
{
closed = 1;
nodes = (
"1210 1320 LINE",
"1090 1314 OFFCURVE",
"1037 1291 OFFCURVE",
"981 1097 CURVE SMOOTH",
"818 526 LINE SMOOTH",
"748 284 OFFCURVE",
"642 -32 OFFCURVE",
"258 -32 CURVE SMOOTH",
"79 -32 OFFCURVE",
"-16 51 OFFCURVE",
"-16 173 CURVE SMOOTH",
"-16 252 OFFCURVE",
"39 343 OFFCURVE",
"136 343 CURVE SMOOTH",
"203 343 OFFCURVE",
"256 294 OFFCURVE",
"256 227 CURVE SMOOTH",
"256 160 OFFCURVE",
"187 124 OFFCURVE",
"187 79 CURVE SMOOTH {name = hr01;}",
"187 59 OFFCURVE",
"213 37 OFFCURVE",
"256 37 CURVE SMOOTH {name = hr02;}",
"351 37 OFFCURVE",
"408 156 OFFCURVE",
"504 491 CURVE SMOOTH",
"692 1141 LINE SMOOTH",
"732 1280 OFFCURVE",
"703 1312 OFFCURVE",
"546 1320 CURVE",
"558 1355 LINE",
"1220 1355 LINE"
);
}
);
userData = {
com.adobe.type.autohint = "b''";
};
width = 1024;
}
);
unicode = 004A;
},
{
glyphname = K;
layers = (
{
layerId = "450B03F6-B4AD-41C0-900A-B61992C84FEB";
paths = (
{
closed = 1;
nodes = (
"1487 1318 LINE",
"1440 1318 OFFCURVE",
"1351 1283 OFFCURVE",
"1312 1261 CURVE SMOOTH",
"1232 1215 OFFCURVE",
"1181 1165 OFFCURVE",
"1091 1097 CURVE SMOOTH",
"660 772 LINE",
"944 331 LINE SMOOTH",
"1101 86 OFFCURVE",
"1141 37 OFFCURVE",
"1300 37 CURVE",
"1290 0 LINE",
"709 0 LINE",
"721 37 LINE",
"809 37 OFFCURVE",
"845 82 OFFCURVE",
"845 136 CURVE SMOOTH",
"845 185 OFFCURVE",
"815 228 OFFCURVE",
"747 335 CURVE SMOOTH",
"500 719 LINE",
"368 258 LINE SMOOTH",
"318 82 OFFCURVE",
"318 37 OFFCURVE",
"504 37 CURVE",
"487 0 LINE",
"-51 0 LINE",
"-37 37 LINE",
"118 37 OFFCURVE",
"141 77 OFFCURVE",
"193 258 CURVE SMOOTH",
"433 1097 LINE SMOOTH",
"490 1295 OFFCURVE",
"464 1318 OFFCURVE",
"313 1318 CURVE",
"323 1355 LINE",
"833 1355 LINE",
"824 1318 LINE",
"702 1318 OFFCURVE",
"665 1293 OFFCURVE",
"609 1097 CURVE SMOOTH",
"506 739 LINE",
"965 1086 LINE SMOOTH",
"1123 1204 OFFCURVE",
"1131 1235 OFFCURVE",
"1131 1261 CURVE SMOOTH",
"1131 1281 OFFCURVE",
"1113 1318 OFFCURVE",
"1054 1318 CURVE",
"1064 1355 LINE",
"1497 1355 LINE"
);
}
);
userData = {
com.adobe.type.autohint = "b''";
};
width = 1367;
},
{
layerId = "B00507B9-787D-4BFE-8F64-5743BFDB1312";
paths = (
{
closed = 1;
nodes = (
"1517 1320 LINE",
"1391 1320 OFFCURVE",
"1288 1247 OFFCURVE",
"1082 1064 CURVE SMOOTH",
"875 881 LINE",
"1066 284 LINE SMOOTH",
"1110 147 OFFCURVE",
"1151 41 OFFCURVE",
"1269 37 CURVE",
"1257 0 LINE",
"670 0 LINE",
"680 37 LINE",
"759 41 OFFCURVE",
"796 91 OFFCURVE",
"796 142 CURVE SMOOTH",
"796 165 OFFCURVE",
"784 212 OFFCURVE",
"774 240 CURVE SMOOTH",
"615 729 LINE",
"473 236 LINE SMOOTH",
"430 87 OFFCURVE",
"432 44 OFFCURVE",
"615 37 CURVE",
"605 0 LINE",
"-69 0 LINE",
"-59 37 LINE",
"91 43 OFFCURVE",
"123 72 OFFCURVE",
"179 266 CURVE SMOOTH",
"431 1141 LINE SMOOTH",
"472 1280 OFFCURVE",
"443 1312 OFFCURVE",
"286 1320 CURVE",
"297 1355 LINE",
"959 1355 LINE",
"944 1320 LINE",
"824 1314 OFFCURVE",
"777 1292 OFFCURVE",
"721 1097 CURVE SMOOTH",
"625 760 LINE",
"1001 1099 LINE SMOOTH",
"1092 1182 OFFCURVE",
"1103 1198 OFFCURVE",
"1103 1237 CURVE SMOOTH",
"1103 1277 OFFCURVE",
"1076 1314 OFFCURVE",
"1009 1320 CURVE",
"1019 1355 LINE",
"1527 1355 LINE"
);
}
);
userData = {
com.adobe.type.autohint = "b''";
};
width = 1367;
}
);
unicode = 004B;
},
{
glyphname = L;
layers = (
{
layerId = "450B03F6-B4AD-41C0-900A-B61992C84FEB";
paths = (
{
closed = 1;
nodes = (
"948 0 LINE",
"-59 0 LINE",
"-45 37 LINE {name = hr01;}",
"97 37 OFFCURVE",
"140 74 OFFCURVE",
"193 258 CURVE SMOOTH",
"433 1097 LINE SMOOTH",
"491 1297 OFFCURVE",
"456 1318 OFFCURVE",
"305 1318 CURVE",
"315 1355 LINE",
"869 1355 LINE",
"859 1318 LINE",
"697 1318 OFFCURVE",
"665 1293 OFFCURVE",
"609 1097 CURVE SMOOTH",
"368 258 LINE SMOOTH",
"319 84 OFFCURVE",
"326 73 OFFCURVE",
"530 73 CURVE SMOOTH {name = hr02;}",
"844 73 OFFCURVE",
"903 132 OFFCURVE",
"1042 386 CURVE",
"1080 386 LINE"
);
}
);
userData = {
com.adobe.type.autohint = "b''";
};
width = 1139;
},
{
background = {
paths = (
{
closed = 1;
nodes = (
"767 129 OFFCURVE",
"735 150 OFFCURVE",
"697 150 CURVE SMOOTH",
"665 150 OFFCURVE",
"639 126 OFFCURVE",
"639 91 CURVE SMOOTH",
"639 58 OFFCURVE",
"669 29 OFFCURVE",
"697 29 CURVE SMOOTH",
"741 29 OFFCURVE",
"772 54 OFFCURVE",
"791 96 CURVE",
"791 96 LINE"
);
},
{
closed = 1;
nodes = (
"929 -212 OFFCURVE",
"819 -278 OFFCURVE",
"702 -278 CURVE SMOOTH",
"616 -278 OFFCURVE",
"564 -227 OFFCURVE",
"533 -161 CURVE SMOOTH",
"527 -147 OFFCURVE",
"524 -133 OFFCURVE",
"527 -130 CURVE SMOOTH",
"531 -127 OFFCURVE",
"536 -131 OFFCURVE",
"549 -153 CURVE SMOOTH",
"580 -202 OFFCURVE",
"637 -217 OFFCURVE",
"692 -217 CURVE SMOOTH",
"772 -217 OFFCURVE",
"833 -148 OFFCURVE",
"833 -53 CURVE SMOOTH",
"833 -26 OFFCURVE",
"830 1 OFFCURVE",
"823 26 CURVE",
"787 4 OFFCURVE",
"744 -8 OFFCURVE",
"696 -8 CURVE SMOOTH",
"610 -8 OFFCURVE",
"536 22 OFFCURVE",
"536 90 CURVE SMOOTH",
"536 150 OFFCURVE",
"599 187 OFFCURVE",
"698 187 CURVE SMOOTH",
"736 187 OFFCURVE",
"774 177 OFFCURVE",
"809 159 CURVE",
"812 179 OFFCURVE",
"813 202 OFFCURVE",
"813 226 CURVE SMOOTH",
"813 346 OFFCURVE",
"782 415 OFFCURVE",
"722 415 CURVE SMOOTH",
"674 415 OFFCURVE",
"652 369 OFFCURVE",
"646 328 CURVE SMOOTH",
"644 314 OFFCURVE",
"633 304 OFFCURVE",
"588 318 CURVE SMOOTH",
"542 333 OFFCURVE",
"543 345 OFFCURVE",
"549 355 CURVE SMOOTH",
"578 401 OFFCURVE",
"632 442 OFFCURVE",
"732 442 CURVE SMOOTH",
"842 442 OFFCURVE",
"924 371 OFFCURVE",
"924 216 CURVE SMOOTH",
"924 167 OFFCURVE",
"911 123 OFFCURVE",
"887 88 CURVE",
"913 50 OFFCURVE",
"929 3 OFFCURVE",
"929 -53 CURVE SMOOTH",
"929 -53 LINE SMOOTH"
);
},
{
closed = 1;
nodes = (
"647 -8 OFFCURVE",
"591 28 OFFCURVE",
"551 86 CURVE SMOOTH",
"546 94 OFFCURVE",
"548 105 OFFCURVE",
"590 122 CURVE SMOOTH",
"627 137 OFFCURVE",
"644 135 OFFCURVE",
"647 125 CURVE SMOOTH",
"660 70 OFFCURVE",
"681 20 OFFCURVE",
"718 20 CURVE SMOOTH",
"775 20 OFFCURVE",
"787 76 OFFCURVE",
"787 216 CURVE SMOOTH",
"787 351 OFFCURVE",
"771 415 OFFCURVE",
"715 415 CURVE SMOOTH",
"678 415 OFFCURVE",
"659 379 OFFCURVE",
"651 321 CURVE SMOOTH",
"651 314 OFFCURVE",
"635 305 OFFCURVE",
"593 318 CURVE SMOOTH",
"556 330 OFFCURVE",
"549 341 OFFCURVE",
"555 354 CURVE SMOOTH",
"576 395 OFFCURVE",
"638 442 OFFCURVE",
"723 442 CURVE SMOOTH",
"832 442 OFFCURVE",
"922 389 OFFCURVE",
"922 216 CURVE SMOOTH",
"922 28 OFFCURVE",
"798 -8 OFFCURVE",
"717 -8 CURVE SMOOTH",
"717 -8 LINE SMOOTH"
);
},
{
closed = 1;
nodes = (
"442 -202 OFFCURVE",
"338 -278 OFFCURVE",
"214 -278 CURVE SMOOTH",
"128 -278 OFFCURVE",
"76 -227 OFFCURVE",
"45 -161 CURVE SMOOTH",
"39 -147 OFFCURVE",
"36 -133 OFFCURVE",
"39 -130 CURVE SMOOTH",
"42 -127 OFFCURVE",
"48 -131 OFFCURVE",
"61 -153 CURVE SMOOTH",
"92 -202 OFFCURVE",
"149 -217 OFFCURVE",
"204 -217 CURVE SMOOTH",
"288 -217 OFFCURVE",
"340 -148 OFFCURVE",
"340 -43 CURVE SMOOTH",
"340 63 OFFCURVE",
"289 150 OFFCURVE",
"208 150 CURVE SMOOTH",
"177 150 OFFCURVE",
"150 126 OFFCURVE",
"150 91 CURVE SMOOTH",
"150 58 OFFCURVE",
"181 29 OFFCURVE",
"209 29 CURVE SMOOTH",
"288 29 OFFCURVE",
"315 111 OFFCURVE",
"315 226 CURVE SMOOTH",
"315 346 OFFCURVE",
"293 415 OFFCURVE",
"234 415 CURVE SMOOTH",
"186 415 OFFCURVE",
"164 369 OFFCURVE",
"158 328 CURVE SMOOTH",
"156 314 OFFCURVE",
"145 304 OFFCURVE",
"100 318 CURVE SMOOTH",
"54 333 OFFCURVE",
"54 345 OFFCURVE",
"61 355 CURVE SMOOTH",
"89 401 OFFCURVE",
"144 442 OFFCURVE",
"244 442 CURVE SMOOTH",
"354 442 OFFCURVE",
"436 371 OFFCURVE",
"436 216 CURVE SMOOTH",
"436 85 OFFCURVE",
"339 -8 OFFCURVE",
"208 -8 CURVE SMOOTH",
"122 -8 OFFCURVE",
"48 22 OFFCURVE",
"48 90 CURVE SMOOTH",
"48 150 OFFCURVE",
"111 187 OFFCURVE",
"209 187 CURVE SMOOTH",
"331 187 OFFCURVE",
"442 112 OFFCURVE",
"442 -43 CURVE SMOOTH",
"442 -43 LINE SMOOTH"
);
},
{
closed = 1;
nodes = (
"442 -202 OFFCURVE",
"341 -278 OFFCURVE",
"224 -278 CURVE SMOOTH",
"138 -278 OFFCURVE",
"82 -217 OFFCURVE",
"51 -151 CURVE SMOOTH",
"44 -137 OFFCURVE",
"36 -108 OFFCURVE",
"39 -105 CURVE SMOOTH",
"42 -103 OFFCURVE",
"52 -122 OFFCURVE",
"66 -143 CURVE SMOOTH",
"97 -192 OFFCURVE",
"154 -208 OFFCURVE",
"208 -208 CURVE SMOOTH",
"287 -208 OFFCURVE",
"359 -148 OFFCURVE",
"359 -43 CURVE SMOOTH",
"359 63 OFFCURVE",
"293 150 OFFCURVE",
"213 150 CURVE SMOOTH",
"182 150 OFFCURVE",
"150 126 OFFCURVE",
"150 91 CURVE SMOOTH",
"150 58 OFFCURVE",
"185 29 OFFCURVE",
"214 29 CURVE SMOOTH",
"292 29 OFFCURVE",
"315 111 OFFCURVE",
"315 226 CURVE SMOOTH",
"315 346 OFFCURVE",
"293 415 OFFCURVE",
"234 415 CURVE SMOOTH",
"186 415 OFFCURVE",
"164 369 OFFCURVE",
"158 328 CURVE SMOOTH",
"156 314 OFFCURVE",
"145 304 OFFCURVE",
"100 318 CURVE SMOOTH",
"54 333 OFFCURVE",
"54 345 OFFCURVE",
"61 355 CURVE SMOOTH",
"89 401 OFFCURVE",
"144 442 OFFCURVE",
"244 442 CURVE SMOOTH",
"353 442 OFFCURVE",
"436 371 OFFCURVE",
"436 216 CURVE SMOOTH",
"436 85 OFFCURVE",
"344 -8 OFFCURVE",
"213 -8 CURVE SMOOTH",
"126 -8 OFFCURVE",
"48 27 OFFCURVE",
"48 90 CURVE SMOOTH",
"48 144 OFFCURVE",
"116 187 OFFCURVE",
"214 187 CURVE SMOOTH",
"336 187 OFFCURVE",
"442 112 OFFCURVE",
"442 -43 CURVE SMOOTH",
"442 -43 LINE SMOOTH"
);
},
{
closed = 1;
nodes = (
"-650 135 OFFCURVE",
"-681 150 OFFCURVE",
"-714 150 CURVE SMOOTH",
"-746 150 OFFCURVE",
"-777 126 OFFCURVE",
"-777 91 CURVE SMOOTH",
"-777 58 OFFCURVE",
"-742 29 OFFCURVE",
"-714 29 CURVE SMOOTH",
"-666 29 OFFCURVE",
"-639 60 OFFCURVE",
"-625 109 CURVE",
"-625 109 LINE"
);
},
{
closed = 1;
nodes = (
"-485 -202 OFFCURVE",
"-586 -278 OFFCURVE",
"-704 -278 CURVE SMOOTH",
"-790 -278 OFFCURVE",
"-846 -217 OFFCURVE",
"-877 -151 CURVE SMOOTH",
"-883 -137 OFFCURVE",
"-892 -108 OFFCURVE",
"-889 -105 CURVE SMOOTH",
"-885 -103 OFFCURVE",
"-875 -122 OFFCURVE",
"-862 -143 CURVE SMOOTH",
"-831 -192 OFFCURVE",
"-774 -208 OFFCURVE",
"-719 -208 CURVE SMOOTH",
"-641 -208 OFFCURVE",
"-568 -148 OFFCURVE",
"-568 -43 CURVE SMOOTH",
"-568 -16 OFFCURVE",
"-573 10 OFFCURVE",
"-580 33 CURVE",
"-617 7 OFFCURVE",
"-663 -8 OFFCURVE",
"-715 -8 CURVE SMOOTH",
"-802 -8 OFFCURVE",
"-880 27 OFFCURVE",
"-880 90 CURVE SMOOTH",
"-880 144 OFFCURVE",
"-812 187 OFFCURVE",
"-713 187 CURVE SMOOTH",
"-678 187 OFFCURVE",
"-645 181 OFFCURVE",
"-615 169 CURVE",
"-613 187 OFFCURVE",
"-612 206 OFFCURVE",
"-612 226 CURVE SMOOTH",
"-612 346 OFFCURVE",
"-634 415 OFFCURVE",
"-694 415 CURVE SMOOTH",
"-742 415 OFFCURVE",
"-764 369 OFFCURVE",
"-770 328 CURVE SMOOTH",
"-772 314 OFFCURVE",
"-783 304 OFFCURVE",
"-828 318 CURVE SMOOTH",
"-874 333 OFFCURVE",
"-873 345 OFFCURVE",
"-867 355 CURVE SMOOTH",
"-838 401 OFFCURVE",
"-784 442 OFFCURVE",
"-684 442 CURVE SMOOTH",
"-574 442 OFFCURVE",
"-492 371 OFFCURVE",
"-492 216 CURVE SMOOTH",
"-492 170 OFFCURVE",
"-503 129 OFFCURVE",
"-523 95 CURVE",
"-499 59 OFFCURVE",
"-485 13 OFFCURVE",
"-485 -43 CURVE SMOOTH",
"-485 -43 LINE SMOOTH"
);
}
);
};
layerId = "B00507B9-787D-4BFE-8F64-5743BFDB1312";
paths = (
{
closed = 1;
nodes = (
"1026 0 LINE",
"-63 0 LINE",
"-53 37 LINE {name = hr01;}",
"97 43 OFFCURVE",
"129 72 OFFCURVE",
"185 266 CURVE SMOOTH",
"437 1141 LINE SMOOTH",
"478 1280 OFFCURVE",
"449 1312 OFFCURVE",
"292 1320 CURVE",
"303 1355 LINE",
"965 1355 LINE",
"950 1320 LINE",
"829 1314 OFFCURVE",
"783 1292 OFFCURVE",
"727 1097 CURVE SMOOTH",
"479 236 LINE SMOOTH",
"465 187 OFFCURVE",
"459 148 OFFCURVE",
"459 130 CURVE SMOOTH",
"459 99 OFFCURVE",
"506 75 OFFCURVE",
"562 75 CURVE SMOOTH {name = hr02;}",
"766 75 OFFCURVE",
"997 181 OFFCURVE",
"1137 380 CURVE",
"1178 380 LINE"
);
}
);
userData = {
com.adobe.type.autohint = "b''";
};
width = 1251;
}
);
unicode = 004C;
},
{
glyphname = M;
layers = (
{
layerId = "450B03F6-B4AD-41C0-900A-B61992C84FEB";
paths = (
{
closed = 1;
nodes = (
"1742 1318 OFFCURVE",
"1698 1291 OFFCURVE",
"1643 1097 CURVE SMOOTH",
"1403 258 LINE SMOOTH",
"1351 76 OFFCURVE",
"1379 37 OFFCURVE",
"1551 37 CURVE",
"1541 0 LINE",
"969 0 LINE",
"979 37 LINE",
"1151 37 OFFCURVE",
"1175 75 OFFCURVE",
"1227 258 CURVE SMOOTH",
"1472 1105 LINE",
"678 0 LINE",
"638 0 LINE",
"512 1105 LINE",
"270 258 LINE SMOOTH",
"217 75 OFFCURVE",
"236 37 OFFCURVE",
"398 37 CURVE",
"386 0 LINE",
"-61 0 LINE",
"-47 37 LINE",
"108 37 OFFCURVE",
"141 76 OFFCURVE",
"193 258 CURVE SMOOTH",
"479 1253 LINE",
"479 1253 OFFCURVE",
"456 1318 OFFCURVE",
"307 1318 CURVE",
"319 1355 LINE",
"656 1355 LINE",
"780 264 LINE",
"1566 1355 LINE",
"1899 1355 LINE",
"1899 1318 LINE"
);
}
);
userData = {
com.adobe.type.autohint = "b''";
};
width = 1706;
},
{
layerId = "B00507B9-787D-4BFE-8F64-5743BFDB1312";
paths = (
{
closed = 1;
nodes = (
"1984 1320 LINE",
"1864 1314 OFFCURVE",
"1800 1292 OFFCURVE",
"1744 1097 CURVE SMOOTH",
"1495 236 LINE SMOOTH",
"1452 87 OFFCURVE",
"1455 44 OFFCURVE",
"1637 37 CURVE",
"1627 0 LINE",
"954 0 LINE",
"963 37 LINE",
"1113 43 OFFCURVE",
"1145 72 OFFCURVE",
"1202 266 CURVE SMOOTH",
"1452 1123 LINE",
"676 0 LINE",
"634 0 LINE",
"512 1145 LINE",
"254 248 LINE SMOOTH",
"211 97 OFFCURVE",
"258 41 OFFCURVE",
"390 37 CURVE",
"378 0 LINE",
"-69 0 LINE",
"-59 37 LINE",
"99 45 OFFCURVE",
"139 128 OFFCURVE",
"195 319 CURVE SMOOTH",
"467 1245 LINE",
"404 1308 OFFCURVE",
"376 1320 OFFCURVE",
"278 1320 CURVE",
"292 1355 LINE",
"774 1355 LINE",
"875 424 LINE",
"1521 1355 LINE",
"1996 1355 LINE"
);
}
);
userData = {
com.adobe.type.autohint = "b''";
};
width = 1822;
}
);
unicode = 004D;
},
{
glyphname = N;
layers = (
{
layerId = "450B03F6-B4AD-41C0-900A-B61992C84FEB";
paths = (
{
closed = 1;
nodes = (
"1554 1318 LINE",
"1433 1318 OFFCURVE",
"1382 1303 OFFCURVE",
"1324 1101 CURVE SMOOTH",
"999 -32 LINE",
"965 -32 LINE",
"512 1113 LINE",
"270 258 LINE SMOOTH",
"222 87 OFFCURVE",
"230 37 OFFCURVE",
"384 37 CURVE {name = hr01;}",
"374 0 LINE",
"-51 0 LINE",
"-37 37 LINE",
"118 37 OFFCURVE",
"143 83 OFFCURVE",
"193 258 CURVE SMOOTH",
"465 1212 LINE",
"465 1212 OFFCURVE",
"425 1318 OFFCURVE",
"244 1318 CURVE",
"256 1355 LINE",
"593 1355 LINE",
"1013 292 LINE",
"1241 1097 LINE SMOOTH",
"1298 1298 OFFCURVE",
"1272 1318 OFFCURVE",
"1121 1318 CURVE",
"1131 1355 LINE",
"1566 1355 LINE"
);
}
);
userData = {
com.adobe.type.autohint = "b''";
};
width = 1367;
},
{
layerId = "B00507B9-787D-4BFE-8F64-5743BFDB1312";
paths = (
{
closed = 1;
nodes = (
"1651 1320 LINE",
"1533 1302 OFFCURVE",
"1480 1288 OFFCURVE",
"1422 1095 CURVE SMOOTH",
"1093 -14 LINE",
"1056 -14 LINE",
"512 1141 LINE",
"252 248 LINE SMOOTH",
"208 97 OFFCURVE",
"256 41 OFFCURVE",
"388 37 CURVE {name = hr01;}",
"376 0 LINE",
"-71 0 LINE",
"-61 37 LINE",
"97 45 OFFCURVE",
"137 128 OFFCURVE",
"193 319 CURVE SMOOTH",
"459 1225 LINE",
"396 1289 OFFCURVE",
"363 1320 OFFCURVE",
"276 1320 CURVE",
"286 1355 LINE",
"729 1355 LINE",
"1155 453 LINE",
"1354 1141 LINE SMOOTH",
"1379 1230 OFFCURVE",
"1355 1314 OFFCURVE",
"1222 1320 CURVE",
"1231 1355 LINE",
"1661 1355 LINE"
);
}
);
userData = {
com.adobe.type.autohint = "b''";
};
width = 1480;
}
);
unicode = 004E;
},
{
glyphname = O;
layers = (
{
layerId = "450B03F6-B4AD-41C0-900A-B61992C84FEB";
paths = (
{
closed = 1;
nodes = (
"1472 469 OFFCURVE",
"1089 -32 OFFCURVE",
"595 -32 CURVE SMOOTH",
"213 -32 OFFCURVE",
"122 280 OFFCURVE",
"122 441 CURVE SMOOTH",
"122 851 OFFCURVE",
"498 1387 OFFCURVE",
"1007 1387 CURVE SMOOTH",
"1369 1387 OFFCURVE",
"1472 1093 OFFCURVE",
"1472 918 CURVE SMOOTH",
"1472 918 LINE SMOOTH"
);
},
{
closed = 1;
nodes = (
"1269 1179 OFFCURVE",
"1157 1326 OFFCURVE",
"971 1326 CURVE SMOOTH",
"630 1326 OFFCURVE",
"327 818 OFFCURVE",
"327 382 CURVE SMOOTH",
"327 203 OFFCURVE",
"426 33 OFFCURVE",
"630 33 CURVE SMOOTH",
"932 33 OFFCURVE",
"1269 520 OFFCURVE",
"1269 977 CURVE SMOOTH",
"1269 977 LINE SMOOTH"
);
}
);
userData = {
com.adobe.type.autohint = "b''";
};
width = 1480;
},
{
layerId = "B00507B9-787D-4BFE-8F64-5743BFDB1312";
paths = (
{
closed = 1;
nodes = (
"1472 591 OFFCURVE",
"1178 -32 OFFCURVE",
"581 -32 CURVE SMOOTH",
"217 -32 OFFCURVE",
"108 242 OFFCURVE",
"108 449 CURVE SMOOTH",
"108 867 OFFCURVE",
"508 1387 OFFCURVE",
"1009 1387 CURVE SMOOTH",
"1239 1387 OFFCURVE",
"1472 1210 OFFCURVE",
"1472 922 CURVE SMOOTH",
"1472 922 LINE SMOOTH"
);
},
{
closed = 1;
nodes = (
"1151 1186 OFFCURVE",
"1097 1308 OFFCURVE",
"963 1308 CURVE SMOOTH",
"617 1308 OFFCURVE",
"428 599 OFFCURVE",
"428 299 CURVE SMOOTH",
"428 140 OFFCURVE",
"498 47 OFFCURVE",
"617 47 CURVE SMOOTH",
"965 47 OFFCURVE",
"1151 759 OFFCURVE",
"1151 1056 CURVE SMOOTH",
"1151 1056 LINE SMOOTH"
);
}
);
userData = {
com.adobe.type.autohint = "b''";
};
width = 1480;
}
);
unicode = 004F;
},
{
glyphname = P;
layers = (
{
layerId = "450B03F6-B4AD-41C0-900A-B61992C84FEB";
paths = (
{
closed = 1;
nodes = (
"1273 810 OFFCURVE",
"1028 627 OFFCURVE",
"735 627 CURVE SMOOTH",
"607 627 OFFCURVE",
"489 664 OFFCURVE",
"489 664 CURVE",
"368 258 LINE SMOOTH",
"316 81 OFFCURVE",
"318 37 OFFCURVE",
"504 37 CURVE",
"495 0 LINE",
"-47 0 LINE",
"-35 37 LINE",
"111 37 OFFCURVE",
"136 81 OFFCURVE",
"187 258 CURVE SMOOTH",
"431 1097 LINE SMOOTH",
"481 1267 OFFCURVE",
"481 1318 OFFCURVE",
"305 1318 CURVE",
"319 1355 LINE",
"869 1355 LINE SMOOTH",
"1088 1355 OFFCURVE",
"1273 1254 OFFCURVE",
"1273 1052 CURVE SMOOTH",
"1273 1052 LINE SMOOTH"
);
},
{
closed = 1;
nodes = (
"1078 1204 OFFCURVE",
"997 1283 OFFCURVE",
"827 1283 CURVE SMOOTH",
"760 1283 OFFCURVE",
"664 1267 OFFCURVE",
"664 1267 CURVE",
"504 725 LINE",
"504 725 OFFCURVE",
"595 697 OFFCURVE",
"684 697 CURVE SMOOTH",
"997 697 OFFCURVE",
"1078 930 OFFCURVE",
"1078 1058 CURVE SMOOTH",
"1078 1058 LINE SMOOTH"
);
}
);
userData = {
com.adobe.type.autohint = "b''";
};
width = 1251;
},
{
layerId = "B00507B9-787D-4BFE-8F64-5743BFDB1312";
paths = (
{
closed = 1;
nodes = (
"1320 845 OFFCURVE",
"1149 607 OFFCURVE",
"776 607 CURVE SMOOTH",
"731 607 OFFCURVE",
"621 615 OFFCURVE",
"581 623 CURVE",
"469 236 LINE SMOOTH",
"425 87 OFFCURVE",
"429 44 OFFCURVE",
"611 37 CURVE",
"601 0 LINE",
"-63 0 LINE",
"-53 37 LINE",
"97 43 OFFCURVE",
"129 72 OFFCURVE",
"185 266 CURVE SMOOTH",
"437 1141 LINE SMOOTH",
"478 1280 OFFCURVE",
"435 1320 OFFCURVE",
"299 1320 CURVE",
"311 1355 LINE",
"835 1355 LINE SMOOTH",
"1090 1355 OFFCURVE",
"1166 1314 OFFCURVE",
"1227 1257 CURVE SMOOTH",
"1289 1199 OFFCURVE",
"1320 1137 OFFCURVE",
"1320 1036 CURVE SMOOTH",
"1320 1036 LINE SMOOTH"
);
},
{
closed = 1;
nodes = (
"1007 1141 OFFCURVE",
"986 1200 OFFCURVE",
"952 1231 CURVE SMOOTH",
"908 1271 OFFCURVE",
"871 1277 OFFCURVE",
"766 1277 CURVE",
"603 701 LINE",
"642 695 OFFCURVE",
"686 694 OFFCURVE",
"711 694 CURVE SMOOTH",
"932 694 OFFCURVE",
"1007 956 OFFCURVE",
"1007 1084 CURVE SMOOTH",
"1007 1084 LINE SMOOTH"
);
}
);
userData = {
com.adobe.type.autohint = "b''";
};
width = 1251;
}
);
unicode = 0050;
},
{
glyphname = Q;
layers = (
{
layerId = "450B03F6-B4AD-41C0-900A-B61992C84FEB";
paths = (
{
closed = 1;
nodes = (
"1472 470 OFFCURVE",
"1090 -29 OFFCURVE",
"599 -32 CURVE",
"343 -240 LINE",
"343 -240 OFFCURVE",
"403 -229 OFFCURVE",
"459 -229 CURVE SMOOTH",
"599 -229 OFFCURVE",
"800 -305 OFFCURVE",
"973 -305 CURVE SMOOTH",
"1133 -305 OFFCURVE",
"1235 -236 OFFCURVE",
"1312 -138 CURVE",
"1344 -154 LINE",
"1229 -313 OFFCURVE",
"1062 -431 OFFCURVE",
"808 -431 CURVE SMOOTH",
"662 -431 OFFCURVE",
"376 -347 OFFCURVE",
"248 -347 CURVE SMOOTH",
"173 -347 OFFCURVE",
"120 -374 OFFCURVE",
"120 -374 CURVE",
"97 -349 LINE",
"502 -26 LINE",
"197 20 OFFCURVE",
"122 294 OFFCURVE",
"122 441 CURVE SMOOTH",
"122 851 OFFCURVE",
"498 1387 OFFCURVE",
"1007 1387 CURVE SMOOTH",
"1369 1387 OFFCURVE",
"1472 1093 OFFCURVE",
"1472 918 CURVE SMOOTH"
);
},
{
closed = 1;
nodes = (
"1269 1179 OFFCURVE",
"1157 1326 OFFCURVE",
"971 1326 CURVE SMOOTH",
"630 1326 OFFCURVE",
"327 818 OFFCURVE",
"327 382 CURVE SMOOTH",
"327 203 OFFCURVE",
"426 33 OFFCURVE",
"630 33 CURVE SMOOTH {name = hr01;}",
"932 33 OFFCURVE",
"1269 520 OFFCURVE",
"1269 977 CURVE SMOOTH"
);
}
);
userData = {
com.adobe.type.autohint = "b''";
};
width = 1480;
},
{
layerId = "B00507B9-787D-4BFE-8F64-5743BFDB1312";
paths = (
{
closed = 1;
nodes = (
"1472 563 OFFCURVE",
"1129 -8 OFFCURVE",
"613 -32 CURVE",
"435 -193 LINE",
"481 -179 OFFCURVE",
"558 -169 OFFCURVE",
"607 -169 CURVE SMOOTH",
"745 -169 OFFCURVE",
"928 -254 OFFCURVE",
"1091 -254 CURVE SMOOTH {name = hr01;}",
"1239 -254 OFFCURVE",
"1332 -201 OFFCURVE",
"1387 -142 CURVE",
"1417 -171 LINE",
"1279 -335 OFFCURVE",
"1119 -426 OFFCURVE",
"841 -426 CURVE SMOOTH",
"617 -426 OFFCURVE",
"489 -359 OFFCURVE",
"321 -359 CURVE SMOOTH",
"264 -359 OFFCURVE",
"203 -366 OFFCURVE",
"156 -380 CURVE",
"134 -361 LINE",
"510 -28 LINE",
"203 6 OFFCURVE",
"108 257 OFFCURVE",
"108 449 CURVE SMOOTH",
"108 867 OFFCURVE",
"508 1387 OFFCURVE",
"1009 1387 CURVE SMOOTH",
"1239 1387 OFFCURVE",
"1472 1210 OFFCURVE",
"1472 922 CURVE SMOOTH"
);
},
{
closed = 1;
nodes = (
"1151 1186 OFFCURVE",
"1097 1308 OFFCURVE",
"963 1308 CURVE SMOOTH",
"617 1308 OFFCURVE",
"428 599 OFFCURVE",
"428 299 CURVE SMOOTH",
"428 140 OFFCURVE",
"498 47 OFFCURVE",
"617 47 CURVE SMOOTH {name = hr02;}",
"965 47 OFFCURVE",
"1151 759 OFFCURVE",
"1151 1056 CURVE SMOOTH"
);
}
);
userData = {
com.adobe.type.autohint = "b''";
};
width = 1480;
}
);
unicode = 0051;
},
{
glyphname = R;
layers = (
{
layerId = "450B03F6-B4AD-41C0-900A-B61992C84FEB";
paths = (
{
closed = 1;
nodes = (
"1176 0 LINE",
"851 0 LINE",
"634 660 LINE",
"523 661 OFFCURVE",
"483 674 OFFCURVE",
"483 674 CURVE",
"364 258 LINE SMOOTH",
"319 99 OFFCURVE",
"319 37 OFFCURVE",
"489 37 CURVE",
"477 0 LINE",
"-47 0 LINE",
"-37 37 LINE",
"110 37 OFFCURVE",
"136 81 OFFCURVE",
"187 258 CURVE SMOOTH",
"431 1097 LINE SMOOTH",
"461 1197 OFFCURVE",
"481 1318 OFFCURVE",
"305 1318 CURVE",
"319 1355 LINE",
"770 1355 LINE SMOOTH",
"1027 1355 OFFCURVE",
"1178 1254 OFFCURVE",
"1178 1052 CURVE SMOOTH",
"1178 853 OFFCURVE",
"1022 716 OFFCURVE",
"804 674 CURVE",
"894 390 LINE SMOOTH",
"986 103 OFFCURVE",
"1032 41 OFFCURVE",
"1186 37 CURVE",
"1186 37 LINE"
);
},
{
closed = 1;
nodes = (
"981 1204 OFFCURVE",
"899 1285 OFFCURVE",
"729 1285 CURVE SMOOTH",
"662 1285 OFFCURVE",
"658 1277 OFFCURVE",
"658 1277 CURVE",
"498 731 LINE",
"498 731 OFFCURVE",
"520 723 OFFCURVE",
"609 723 CURVE SMOOTH",
"904 723 OFFCURVE",
"981 930 OFFCURVE",
"981 1058 CURVE SMOOTH",
"981 1058 LINE SMOOTH"
);
}
);
userData = {
com.adobe.type.autohint = "b''";
};
width = 1251;
},
{
layerId = "B00507B9-787D-4BFE-8F64-5743BFDB1312";
paths = (
{
closed = 1;
nodes = (
"1310 884 OFFCURVE",
"1172 737 OFFCURVE",
"940 682 CURVE",
"1064 276 LINE SMOOTH",
"1131 58 OFFCURVE",
"1135 51 OFFCURVE",
"1269 37 CURVE",
"1269 0 LINE",
"849 0 LINE",
"656 660 LINE",
"620 661 OFFCURVE",
"587 662 OFFCURVE",
"587 662 CURVE",
"463 236 LINE SMOOTH",
"419 87 OFFCURVE",
"423 44 OFFCURVE",
"605 37 CURVE",
"595 0 LINE",
"-69 0 LINE",
"-59 37 LINE",
"91 43 OFFCURVE",
"123 72 OFFCURVE",
"179 266 CURVE SMOOTH",
"431 1141 LINE SMOOTH",
"472 1280 OFFCURVE",
"430 1320 OFFCURVE",
"294 1320 CURVE",
"305 1355 LINE",
"829 1355 LINE SMOOTH",
"1084 1355 OFFCURVE",
"1155 1324 OFFCURVE",
"1223 1261 CURVE SMOOTH",
"1286 1204 OFFCURVE",
"1310 1139 OFFCURVE",
"1310 1056 CURVE SMOOTH",
"1310 1056 LINE SMOOTH"
);
},
{
closed = 1;
nodes = (
"995 1141 OFFCURVE",
"978 1200 OFFCURVE",
"944 1231 CURVE SMOOTH",
"900 1271 OFFCURVE",
"826 1283 OFFCURVE",
"760 1277 CURVE",
"603 723 LINE",
"619 721 OFFCURVE",
"644 719 OFFCURVE",
"662 719 CURVE SMOOTH",
"883 719 OFFCURVE",
"995 892 OFFCURVE",
"995 1084 CURVE SMOOTH",
"995 1084 LINE SMOOTH"
);
}
);
userData = {
com.adobe.type.autohint = "b''";
};
width = 1367;
}
);
unicode = 0052;
},
{
glyphname = S;
layers = (
{
layerId = "450B03F6-B4AD-41C0-900A-B61992C84FEB";
paths = (
{
closed = 1;
nodes = (
"1007 938 LINE {name = hr01;}",
"971 938 LINE",
"971 938 OFFCURVE",
"977 1002 OFFCURVE",
"977 1034 CURVE SMOOTH",
"977 1168 OFFCURVE",
"877 1310 OFFCURVE",
"690 1310 CURVE SMOOTH",
"530 1310 OFFCURVE",
"451 1200 OFFCURVE",
"451 1103 CURVE SMOOTH",
"451 998 OFFCURVE",
"522 922 OFFCURVE",
"656 792 CURVE SMOOTH",
"776 676 OFFCURVE",
"922 552 OFFCURVE",
"922 376 CURVE SMOOTH",
"922 70 OFFCURVE",
"660 -32 OFFCURVE",
"475 -32 CURVE SMOOTH",
"330 -32 OFFCURVE",
"223 49 OFFCURVE",
"146 49 CURVE SMOOTH",
"99 49 OFFCURVE",
"73 16 OFFCURVE",
"53 -32 CURVE",
"14 -32 LINE",
"126 473 LINE",
"160 473 LINE",
"160 473 OFFCURVE",
"154 424 OFFCURVE",
"154 351 CURVE SMOOTH",
"154 174 OFFCURVE",
"274 43 OFFCURVE",
"473 43 CURVE SMOOTH",
"601 43 OFFCURVE",
"735 124 OFFCURVE",
"735 301 CURVE SMOOTH",
"735 456 OFFCURVE",
"617 550 OFFCURVE",
"461 719 CURVE SMOOTH",
"367 822 OFFCURVE",
"280 889 OFFCURVE",
"280 1050 CURVE SMOOTH",
"280 1241 OFFCURVE",
"454 1387 OFFCURVE",
"656 1387 CURVE SMOOTH {name = hr02;}",
"830 1387 OFFCURVE",
"905 1310 OFFCURVE",
"967 1310 CURVE SMOOTH",
"1021 1310 OFFCURVE",
"1044 1332 OFFCURVE",
"1072 1387 CURVE",
"1111 1387 LINE"
);
}
);
userData = {
com.adobe.type.autohint = "b''";
};
width = 1024;
},
{
layerId = "B00507B9-787D-4BFE-8F64-5743BFDB1312";
paths = (
{
closed = 1;
nodes = (
"1082 928 LINE {name = hr01;}",
"1048 928 LINE",
"1046 1125 OFFCURVE",
"910 1296 OFFCURVE",
"751 1296 CURVE SMOOTH {name = hr02;}",
"640 1296 OFFCURVE",
"554 1200 OFFCURVE",
"554 1099 CURVE SMOOTH",
"554 825 OFFCURVE",
"989 697 OFFCURVE",
"989 372 CURVE SMOOTH",
"989 187 OFFCURVE",
"877 -32 OFFCURVE",
"512 -32 CURVE SMOOTH",
"378 -32 OFFCURVE",
"191 20 OFFCURVE",
"124 20 CURVE SMOOTH {name = hr03;}",
"45 20 OFFCURVE",
"-4 -32 OFFCURVE",
"-4 -32 CURVE {name = hr04;}",
"-45 -32 LINE",
"75 485 LINE {name = hr05;}",
"114 485 LINE",
"124 236 OFFCURVE",
"256 53 OFFCURVE",
"467 53 CURVE SMOOTH {name = hr06;}",
"609 53 OFFCURVE",
"699 156 OFFCURVE",
"699 274 CURVE SMOOTH",
"699 554 OFFCURVE",
"268 682 OFFCURVE",
"268 1017 CURVE SMOOTH",
"268 1151 OFFCURVE",
"368 1387 OFFCURVE",
"713 1387 CURVE SMOOTH",
"839 1387 OFFCURVE",
"954 1326 OFFCURVE",
"1046 1326 CURVE SMOOTH {name = hr07;}",
"1115 1326 OFFCURVE",
"1151 1387 OFFCURVE",
"1151 1387 CURVE {name = hr08;}",
"1194 1387 LINE"
);
}
);
userData = {
com.adobe.type.autohint = "b''";
};
width = 1139;
}
);
unicode = 0053;
},
{
glyphname = T;
layers = (
{
layerId = "450B03F6-B4AD-41C0-900A-B61992C84FEB";
paths = (
{
closed = 1;
nodes = (
"1220 995 LINE",
"1182 995 LINE",
"1229 1269 OFFCURVE",
"1203 1277 OFFCURVE",
"873 1277 CURVE {name = hr01;}",
"579 258 LINE SMOOTH",
"524 66 OFFCURVE",
"537 37 OFFCURVE",
"747 37 CURVE",
"735 0 LINE",
"144 0 LINE",
"154 37 LINE",
"318 37 OFFCURVE",
"349 69 OFFCURVE",
"404 258 CURVE SMOOTH",
"697 1277 LINE",
"391 1277 OFFCURVE",
"311 1233 OFFCURVE",
"242 995 CURVE {name = hr02;}",
"205 995 LINE",
"299 1355 LINE",
"1330 1355 LINE"
);
}
);
userData = {
com.adobe.type.autohint = "b''";
};
width = 1139;
},
{
layerId = "B00507B9-787D-4BFE-8F64-5743BFDB1312";
paths = (
{
closed = 1;
nodes = (
"1316 991 LINE",
"1281 991 LINE",
"1304 1166 OFFCURVE",
"1210 1263 OFFCURVE",
"1017 1269 CURVE {name = hr01;}",
"711 236 LINE SMOOTH",
"667 87 OFFCURVE",
"671 44 OFFCURVE",
"853 37 CURVE",
"843 0 LINE",
"169 0 LINE",
"179 37 LINE",
"329 43 OFFCURVE",
"362 77 OFFCURVE",
"418 266 CURVE SMOOTH",
"713 1269 LINE",
"495 1265 OFFCURVE",
"355 1158 OFFCURVE",
"262 991 CURVE {name = hr02;}",
"262 991 OFFCURVE",
"219 991 OFFCURVE",
"221 991 CURVE SMOOTH",
"223 991 OFFCURVE",
"327 1355 OFFCURVE",
"327 1355 CURVE",
"1421 1355 LINE"
);
}
);
userData = {
com.adobe.type.autohint = "b''";
};
width = 1251;
}
);
unicode = 0054;
},
{
glyphname = U;
layers = (
{
layerId = "450B03F6-B4AD-41C0-900A-B61992C84FEB";
paths = (
{
closed = 1;
nodes = (
"1659 1318 LINE",
"1538 1318 OFFCURVE",
"1492 1302 OFFCURVE",
"1434 1101 CURVE SMOOTH",
"1300 636 LINE SMOOTH",
"1171 187 OFFCURVE",
"1064 -32 OFFCURVE",
"676 -32 CURVE SMOOTH",
"412 -32 OFFCURVE",
"217 143 OFFCURVE",
"217 353 CURVE SMOOTH",
"217 417 OFFCURVE",
"230 494 OFFCURVE",
"250 563 CURVE SMOOTH",
"404 1097 LINE SMOOTH",
"461 1296 OFFCURVE",
"415 1318 OFFCURVE",
"258 1318 CURVE",
"268 1355 LINE",
"839 1355 LINE",
"829 1318 LINE",
"682 1318 OFFCURVE",
"636 1293 OFFCURVE",
"579 1097 CURVE SMOOTH",
"426 563 LINE SMOOTH",
"400 474 OFFCURVE",
"390 411 OFFCURVE",
"390 349 CURVE SMOOTH",
"390 204 OFFCURVE",
"498 59 OFFCURVE",
"721 59 CURVE SMOOTH",
"1009 59 OFFCURVE",
"1112 251 OFFCURVE",
"1235 688 CURVE SMOOTH",
"1352 1097 LINE SMOOTH",
"1394 1246 OFFCURVE",
"1403 1318 OFFCURVE",
"1225 1318 CURVE",
"1237 1355 LINE",
"1671 1355 LINE"
);
}
);
userData = {
com.adobe.type.autohint = "b''";
};
width = 1480;
},
{
layerId = "B00507B9-787D-4BFE-8F64-5743BFDB1312";
paths = (
{
closed = 1;
nodes = (
"1649 1318 LINE",
"1535 1318 OFFCURVE",
"1464 1257 OFFCURVE",
"1417 1093 CURVE SMOOTH",
"1253 534 LINE SMOOTH",
"1202 360 OFFCURVE",
"1156 223 OFFCURVE",
"1048 114 CURVE SMOOTH",
"975 41 OFFCURVE",
"839 -32 OFFCURVE",
"660 -32 CURVE SMOOTH",
"347 -32 OFFCURVE",
"193 116 OFFCURVE",
"193 309 CURVE SMOOTH",
"193 363 OFFCURVE",
"209 444 OFFCURVE",
"242 560 CURVE SMOOTH",
"410 1141 LINE SMOOTH",
"450 1280 OFFCURVE",
"422 1312 OFFCURVE",
"264 1320 CURVE",
"276 1355 LINE",
"954 1355 LINE",
"940 1320 LINE",
"816 1320 OFFCURVE",
"754 1287 OFFCURVE",
"699 1097 CURVE SMOOTH",
"536 530 LINE SMOOTH",
"504 421 OFFCURVE",
"491 355 OFFCURVE",
"491 282 CURVE SMOOTH",
"491 156 OFFCURVE",
"605 75 OFFCURVE",
"739 75 CURVE SMOOTH",
"847 75 OFFCURVE",
"944 110 OFFCURVE",
"1009 177 CURVE SMOOTH",
"1089 260 OFFCURVE",
"1125 359 OFFCURVE",
"1196 603 CURVE SMOOTH",
"1338 1093 LINE SMOOTH",
"1389 1272 OFFCURVE",
"1342 1320 OFFCURVE",
"1186 1320 CURVE",
"1198 1355 LINE",
"1657 1355 LINE"
);
}
);
userData = {
com.adobe.type.autohint = "b''";
};
width = 1480;
}
);
unicode = 0055;
},
{
glyphname = V;
layers = (
{
layerId = "450B03F6-B4AD-41C0-900A-B61992C84FEB";
paths = (
{
closed = 1;
nodes = (
"1472 1318 LINE",
"1385 1318 OFFCURVE",
"1290 1252 OFFCURVE",
"1160 1076 CURVE SMOOTH",
"347 -32 LINE",
"311 -32 LINE",
"422 1097 LINE SMOOTH {name = hr01;}",
"439 1279 OFFCURVE",
"436 1318 OFFCURVE",
"256 1318 CURVE",
"266 1355 LINE",
"802 1355 LINE",
"788 1318 LINE",
"622 1318 OFFCURVE",
"615 1278 OFFCURVE",
"597 1097 CURVE SMOOTH",
"518 309 LINE {name = hr02;}",
"1056 1046 LINE SMOOTH",
"1135 1155 OFFCURVE",
"1170 1204 OFFCURVE",
"1170 1247 CURVE SMOOTH",
"1170 1281 OFFCURVE",
"1149 1318 OFFCURVE",
"1062 1318 CURVE",
"1074 1355 LINE",
"1482 1355 LINE"
);
}
);
userData = {
com.adobe.type.autohint = "b''";
};
width = 1251;
},
{
layerId = "B00507B9-787D-4BFE-8F64-5743BFDB1312";
paths = (
{
closed = 1;
nodes = (
"1590 1320 LINE",
"1513 1312 OFFCURVE",
"1462 1245 OFFCURVE",
"1308 1066 CURVE SMOOTH",
"364 -32 LINE",
"319 -32 LINE {name = hr01;}",
"364 1091 LINE SMOOTH {name = hr02;}",
"372 1281 OFFCURVE",
"366 1306 OFFCURVE",
"244 1320 CURVE",
"254 1355 LINE",
"826 1355 LINE",
"814 1320 LINE",
"686 1314 OFFCURVE",
"666 1240 OFFCURVE",
"658 1060 CURVE SMOOTH",
"627 386 LINE {name = hr03;}",
"1166 1011 LINE SMOOTH",
"1242 1099 OFFCURVE",
"1310 1188 OFFCURVE",
"1310 1243 CURVE SMOOTH",
"1310 1287 OFFCURVE",
"1266 1312 OFFCURVE",
"1202 1320 CURVE",
"1218 1355 LINE",
"1600 1355 LINE"
);
}
);
userData = {
com.adobe.type.autohint = "b''";
};
width = 1367;
}
);
unicode = 0056;
},
{
glyphname = W;
layers = (
{
layerId = "450B03F6-B4AD-41C0-900A-B61992C84FEB";
paths = (
{
closed = 1;
nodes = (
"1923 1318 LINE",
"1830 1318 OFFCURVE",
"1754 1259 OFFCURVE",
"1635 1076 CURVE SMOOTH",
"918 -32 LINE",
"881 -32 LINE",
"991 1021 LINE",
"311 -32 LINE",
"274 -32 LINE",
"392 1097 LINE SMOOTH {name = hr01;}",
"408 1251 OFFCURVE",
"404 1318 OFFCURVE",
"248 1318 CURVE",
"258 1355 LINE",
"766 1355 LINE",
"755 1318 LINE",
"599 1318 OFFCURVE",
"581 1274 OFFCURVE",
"563 1097 CURVE SMOOTH",
"491 368 LINE {name = hr02;}",
"1005 1160 LINE",
"1015 1266 OFFCURVE",
"979 1318 OFFCURVE",
"829 1318 CURVE",
"837 1355 LINE",
"1387 1355 LINE",
"1377 1318 LINE",
"1211 1318 OFFCURVE",
"1195 1302 OFFCURVE",
"1172 1097 CURVE SMOOTH",
"1091 368 LINE",
"1541 1046 LINE SMOOTH",
"1592 1123 OFFCURVE",
"1715 1318 OFFCURVE",
"1521 1318 CURVE",
"1529 1355 LINE",
"1933 1355 LINE"
);
}
);
userData = {
com.adobe.type.autohint = "b''";
};
width = 1706;
},
{
layerId = "B00507B9-787D-4BFE-8F64-5743BFDB1312";
paths = (
{
closed = 1;
nodes = (
"2043 1320 LINE",
"1986 1310 OFFCURVE",
"1942 1282 OFFCURVE",
"1848 1153 CURVE SMOOTH",
"985 -32 LINE",
"926 -32 LINE",
"993 885 LINE",
"327 -32 LINE",
"268 -32 LINE",
"355 1091 LINE SMOOTH {name = hr01;}",
"369 1279 OFFCURVE",
"364 1308 OFFCURVE",
"254 1320 CURVE",
"264 1355 LINE",
"816 1355 LINE",
"804 1320 LINE",
"674 1312 OFFCURVE",
"660 1293 OFFCURVE",
"642 1060 CURVE SMOOTH",
"597 463 LINE {name = hr02;}",
"1007 1023 LINE",
"1030 1269 OFFCURVE",
"1032 1300 OFFCURVE",
"906 1320 CURVE",
"916 1355 LINE",
"1468 1355 LINE",
"1456 1320 LINE",
"1306 1316 OFFCURVE",
"1312 1234 OFFCURVE",
"1298 1060 CURVE SMOOTH {name = hr03;}",
"1253 463 LINE {name = hr04;}",
"1657 1023 LINE SMOOTH",
"1820 1249 OFFCURVE",
"1840 1292 OFFCURVE",
"1681 1320 CURVE",
"1690 1355 LINE",
"2053 1355 LINE"
);
}
);
userData = {
com.adobe.type.autohint = "b''";
};
width = 1822;
}
);
unicode = 0057;
},
{
glyphname = X;
layers = (
{
layerId = "450B03F6-B4AD-41C0-900A-B61992C84FEB";
paths = (
{
closed = 1;
nodes = (
"1505 1318 LINE",
"1389 1318 OFFCURVE",
"1281 1229 OFFCURVE",
"1168 1113 CURVE SMOOTH",
"786 723 LINE",
"873 408 LINE SMOOTH",
"959 94 OFFCURVE",
"989 37 OFFCURVE",
"1158 37 CURVE",
"1147 0 LINE",
"615 0 LINE",
"625 37 LINE",
"800 37 OFFCURVE",
"778 122 OFFCURVE",
"751 221 CURVE SMOOTH",
"650 583 LINE",
"329 260 LINE SMOOTH",
"271 202 OFFCURVE",
"209 140 OFFCURVE",
"209 104 CURVE SMOOTH",
"209 74 OFFCURVE",
"230 37 OFFCURVE",
"323 37 CURVE",
"313 0 LINE",
"-138 0 LINE",
"-126 37 LINE",
"30 37 OFFCURVE",
"153 183 OFFCURVE",
"286 317 CURVE SMOOTH",
"627 660 LINE",
"504 1097 LINE SMOOTH",
"449 1295 OFFCURVE",
"407 1318 OFFCURVE",
"305 1318 CURVE",
"315 1355 LINE",
"800 1355 LINE",
"786 1318 LINE",
"646 1318 OFFCURVE",
"623 1302 OFFCURVE",
"680 1097 CURVE SMOOTH",
"762 798 LINE",
"1009 1046 LINE SMOOTH",
"1176 1215 OFFCURVE",
"1243 1318 OFFCURVE",
"1046 1318 CURVE",
"1058 1355 LINE",
"1517 1355 LINE"
);
}
);
userData = {
com.adobe.type.autohint = "b''";
};
width = 1251;
},
{
layerId = "B00507B9-787D-4BFE-8F64-5743BFDB1312";
paths = (
{
closed = 1;
nodes = (
"1554 1320 LINE",
"1474 1306 OFFCURVE",
"1419 1272 OFFCURVE",
"1058 934 CURVE SMOOTH",
"875 762 LINE",
"1090 256 LINE SMOOTH",
"1160 89 OFFCURVE",
"1200 55 OFFCURVE",
"1290 37 CURVE",
"1281 0 LINE",
"680 0 LINE",
"690 37 LINE",
"831 49 OFFCURVE",
"842 100 OFFCURVE",
"757 299 CURVE SMOOTH",
"648 552 LINE",
"370 294 LINE SMOOTH",
"257 188 OFFCURVE",
"238 158 OFFCURVE",
"238 116 CURVE SMOOTH",
"238 85 OFFCURVE",
"256 41 OFFCURVE",
"359 37 CURVE",
"347 0 LINE",
"-122 0 LINE",
"-114 37 LINE",
"-35 49 OFFCURVE",
"27 86 OFFCURVE",
"264 303 CURVE SMOOTH",
"617 627 LINE",
"418 1091 LINE SMOOTH",
"361 1224 OFFCURVE",
"333 1318 OFFCURVE",
"201 1320 CURVE",
"209 1355 LINE",
"806 1355 LINE",
"796 1320 LINE",
"676 1312 OFFCURVE",
"660 1268 OFFCURVE",
"735 1091 CURVE SMOOTH",
"843 835 LINE",
"1005 983 LINE SMOOTH",
"1146 1112 OFFCURVE",
"1212 1188 OFFCURVE",
"1212 1243 CURVE SMOOTH",
"1212 1289 OFFCURVE",
"1168 1316 OFFCURVE",
"1109 1320 CURVE",
"1121 1355 LINE",
"1564 1355 LINE"
);
}
);
userData = {
com.adobe.type.autohint = "b''";
};
width = 1367;
}
);
unicode = 0058;
},
{
glyphname = Y;
layers = (
{
layerId = "450B03F6-B4AD-41C0-900A-B61992C84FEB";
paths = (
{
closed = 1;
nodes = (
"1359 1318 LINE",
"1233 1318 OFFCURVE",
"1188 1252 OFFCURVE",
"1058 1076 CURVE SMOOTH",
"733 634 LINE",
"623 258 LINE SMOOTH",
"566 67 OFFCURVE",
"595 37 OFFCURVE",
"764 37 CURVE",
"757 0 LINE",
"185 0 LINE",
"197 37 LINE",
"376 37 OFFCURVE",
"406 122 OFFCURVE",
"447 258 CURVE SMOOTH",
"567 660 LINE",
"430 1097 LINE SMOOTH",
"368 1293 OFFCURVE",
"336 1318 OFFCURVE",
"234 1318 CURVE",
"244 1355 LINE",
"747 1355 LINE",
"733 1318 LINE",
"593 1318 OFFCURVE",
"545 1300 OFFCURVE",
"605 1097 CURVE SMOOTH",
"717 719 LINE",
"950 1046 LINE SMOOTH",
"1112 1275 OFFCURVE",
"1124 1318 OFFCURVE",
"928 1318 CURVE",
"940 1355 LINE",
"1367 1355 LINE"
);
}
);
userData = {
com.adobe.type.autohint = "b''";
};
width = 1139;
},
{
layerId = "B00507B9-787D-4BFE-8F64-5743BFDB1312";
paths = (
{
closed = 1;
nodes = (
"1466 1320 LINE",
"1383 1308 OFFCURVE",
"1363 1293 OFFCURVE",
"1223 1101 CURVE SMOOTH",
"831 563 LINE",
"737 236 LINE SMOOTH",
"694 87 OFFCURVE",
"698 44 OFFCURVE",
"881 37 CURVE",
"871 0 LINE",
"197 0 LINE",
"207 37 LINE",
"357 43 OFFCURVE",
"391 72 OFFCURVE",
"447 266 CURVE SMOOTH",
"544 599 LINE",
"428 1091 LINE SMOOTH",
"394 1233 OFFCURVE",
"366 1310 OFFCURVE",
"236 1320 CURVE",
"248 1355 LINE",
"908 1355 LINE",
"894 1320 LINE",
"751 1310 OFFCURVE",
"688 1268 OFFCURVE",
"727 1091 CURVE SMOOTH",
"820 672 LINE",
"1066 1015 LINE SMOOTH",
"1134 1109 OFFCURVE",
"1164 1170 OFFCURVE",
"1164 1225 CURVE SMOOTH",
"1164 1279 OFFCURVE",
"1116 1312 OFFCURVE",
"1052 1320 CURVE",
"1062 1355 LINE",
"1476 1355 LINE"
);
}
);
userData = {
com.adobe.type.autohint = "b''";
};
width = 1251;
}
);
unicode = 0059;
},
{
glyphname = Z;
layers = (
{
layerId = "450B03F6-B4AD-41C0-900A-B61992C84FEB";
paths = (
{
closed = 1;
nodes = (
"244 65 LINE",
"796 65 OFFCURVE",
"924 71 OFFCURVE",
"1052 353 CURVE",
"1088 353 LINE",
"971 0 LINE",
"-4 0 LINE",
"-4 30 LINE",
"1005 1285 LINE",
"784 1285 LINE SMOOTH",
"416 1285 OFFCURVE",
"331 1271 OFFCURVE",
"244 1046 CURVE",
"209 1046 LINE",
"309 1355 LINE",
"1251 1355 LINE",
"1251 1320 LINE"
);
}
);
userData = {
com.adobe.type.autohint = "b''";
};
width = 1139;
},
{
layerId = "B00507B9-787D-4BFE-8F64-5743BFDB1312";
paths = (
{
closed = 1;
nodes = (
"353 73 LINE",
"445 73 LINE SMOOTH",
"755 73 OFFCURVE",
"912 154 OFFCURVE",
"1095 382 CURVE",
"1139 382 LINE",
"995 0 LINE",
"-55 0 LINE",
"-55 37 LINE",
"979 1279 LINE",
"857 1279 LINE SMOOTH",
"577 1279 OFFCURVE",
"416 1229 OFFCURVE",
"290 1013 CURVE",
"250 1013 LINE",
"364 1355 LINE",
"1391 1355 LINE",
"1391 1320 LINE"
);
}
);
userData = {
com.adobe.type.autohint = "b''";
};
width = 1251;
}
);
unicode = 005A;
},
{
glyphname = bracketleft;
layers = (
{
background = {
paths = (
{
closed = 1;
nodes = (
"29 -215 LINE",
"216 749 LINE",
"396 749 LINE",
"388 707 LINE",
"269 707 LINE",
"98 -173 LINE",
"217 -173 LINE",
"209 -215 LINE"
);
}
);
};
layerId = "450B03F6-B4AD-41C0-900A-B61992C84FEB";
paths = (
{
closed = 1;
nodes = (
"59 -441 LINE",
"443 1533 LINE",
"811 1533 LINE",
"794 1448 LINE",
"551 1448 LINE",
"201 -355 LINE",
"444 -355 LINE",
"427 -441 LINE"
);
}
);
userData = {
com.adobe.type.autohint = "b''";
};
width = 676;
},
{
background = {
paths = (
{
closed = 1;
nodes = (
"37 -216 LINE",
"225 748 LINE",
"450 748 LINE",
"442 707 LINE",
"324 707 LINE",
"153 -173 LINE",
"271 -173 LINE",
"263 -216 LINE"
);
}
);
};
layerId = "B00507B9-787D-4BFE-8F64-5743BFDB1312";
paths = (
{
closed = 1;
nodes = (
"60 -442 LINE",
"444 1532 LINE",
"906 1532 LINE",
"889 1448 LINE",
"647 1448 LINE",
"297 -354 LINE",
"539 -354 LINE",
"522 -442 LINE"
);
}
);
userData = {
com.adobe.type.autohint = "b''";
};
width = 790;
}
);
unicode = 005B;
},
{
glyphname = backslash;
layers = (
{
background = {
paths = (
{
closed = 1;
nodes = (
"241 -11 OFFCURVE",
"235 -12 OFFCURVE",
"214 -12 CURVE SMOOTH",
"194 -12 OFFCURVE",
"189 -10 OFFCURVE",
"188 -2 CURVE SMOOTH",
"141 759 LINE SMOOTH",
"141 766 OFFCURVE",
"145 769 OFFCURVE",
"169 769 CURVE SMOOTH",
"190 769 OFFCURVE",
"194 767 OFFCURVE",
"195 759 CURVE SMOOTH",
"240 -2 LINE"
);
}
);
};
layerId = "450B03F6-B4AD-41C0-900A-B61992C84FEB";
paths = (
{
closed = 1;
nodes = (
"493 -22 OFFCURVE",
"482 -25 OFFCURVE",
"439 -25 CURVE SMOOTH",
"398 -25 OFFCURVE",
"387 -21 OFFCURVE",
"386 -5 CURVE SMOOTH",
"289 1554 LINE SMOOTH",
"288 1569 OFFCURVE",
"296 1574 OFFCURVE",
"346 1574 CURVE SMOOTH",
"390 1574 OFFCURVE",
"398 1571 OFFCURVE",
"399 1554 CURVE SMOOTH",
"492 -5 LINE"
);
}
);
userData = {
com.adobe.type.autohint = "b''";
};
width = 556;
},
{
background = {
paths = (
{
closed = 1;
nodes = (
"248 -9 OFFCURVE",
"246 -12 OFFCURVE",
"217 -12 CURVE SMOOTH",
"193 -12 OFFCURVE",
"189 -10 OFFCURVE",
"188 -2 CURVE SMOOTH",
"141 759 LINE SMOOTH",
"141 767 OFFCURVE",
"145 769 OFFCURVE",
"174 769 CURVE SMOOTH",
"197 769 OFFCURVE",
"202 766 OFFCURVE",
"202 759 CURVE SMOOTH",
"248 -2 LINE"
);
}
);
};
layerId = "B00507B9-787D-4BFE-8F64-5743BFDB1312";
paths = (
{
closed = 1;
nodes = (
"508 -18 OFFCURVE",
"504 -25 OFFCURVE",
"445 -25 CURVE SMOOTH",
"395 -25 OFFCURVE",
"387 -20 OFFCURVE",
"386 -5 CURVE SMOOTH",
"289 1555 LINE SMOOTH",
"288 1570 OFFCURVE",
"296 1575 OFFCURVE",
"356 1575 CURVE SMOOTH",
"404 1575 OFFCURVE",
"413 1569 OFFCURVE",
"414 1555 CURVE SMOOTH",
"507 -5 LINE"
);
}
);
userData = {
com.adobe.type.autohint = "b''";
};
width = 608;
}
);
unicode = 005C;
},
{
glyphname = bracketright;
layers = (
{
background = {
paths = (
{
closed = 1;
nodes = (
"-19 -217 LINE",
"-11 -173 LINE",
"107 -173 LINE",
"278 707 LINE",
"160 707 LINE",
"168 749 LINE",
"347 749 LINE",
"160 -217 LINE"
);
}
);
};
layerId = "450B03F6-B4AD-41C0-900A-B61992C84FEB";
paths = (
{
closed = 1;
nodes = (
"-149 -444 LINE",
"-132 -355 LINE",
"109 -355 LINE",
"460 1448 LINE",
"219 1448 LINE",
"235 1533 LINE",
"601 1533 LINE",
"217 -444 LINE"
);
}
);
userData = {
com.adobe.type.autohint = "b''";
};
width = 676;
},
{
background = {
paths = (
{
closed = 1;
nodes = (
"-18 -217 LINE",
"-9 -173 LINE",
"109 -173 LINE",
"280 707 LINE",
"162 707 LINE",
"170 748 LINE",
"395 748 LINE",
"207 -217 LINE"
);
}
);
};
layerId = "B00507B9-787D-4BFE-8F64-5743BFDB1312";
paths = (
{
closed = 1;
nodes = (
"-99 -444 LINE",
"-82 -354 LINE",
"160 -354 LINE",
"511 1448 LINE",
"269 1448 LINE",
"285 1532 LINE",
"746 1532 LINE",
"362 -444 LINE"
);
}
);
userData = {
com.adobe.type.autohint = "b''";
};
width = 790;
}
);
unicode = 005D;
},
{
glyphname = asciicircum;
layers = (
{
layerId = "450B03F6-B4AD-41C0-900A-B61992C84FEB";
paths = (
{
closed = 1;
nodes = (
"1377 20 LINE",
"985 1076 LINE",
"593 20 LINE",
"471 20 LINE",
"924 1202 LINE",
"1046 1202 LINE",
"1499 20 LINE"
);
}
);
width = 1970;
},
{
layerId = "B00507B9-787D-4BFE-8F64-5743BFDB1312";
paths = (
{
closed = 1;
nodes = (
"1377 20 LINE",
"985 1076 LINE",
"593 20 LINE",
"471 20 LINE",
"924 1202 LINE",
"1046 1202 LINE",
"1499 20 LINE"
);
}
);
width = 1970;
}
);
unicode = 005E;
},
{
glyphname = underscore;
layers = (
{
layerId = "450B03F6-B4AD-41C0-900A-B61992C84FEB";
paths = (
{
closed = 1;
nodes = (
"0 -231 LINE",
"0 -158 LINE",
"985 -158 LINE",
"985 -231 LINE"
);
}
);
userData = {
com.adobe.type.autohint = "b''";
};
width = 985;
},
{
layerId = "B00507B9-787D-4BFE-8F64-5743BFDB1312";
paths = (
{
closed = 1;
nodes = (
"0 -290 LINE",
"0 -158 LINE",
"985 -158 LINE",
"985 -290 LINE"
);
}
);
userData = {
com.adobe.type.autohint = "b''";
};
width = 985;
}
);
unicode = 005F;
},
{
glyphname = grave;
layers = (
{
layerId = "450B03F6-B4AD-41C0-900A-B61992C84FEB";
paths = (
{
closed = 1;
nodes = (
"528 1042 LINE",
"286 1229 LINE SMOOTH",
"258 1251 OFFCURVE",
"229 1281 OFFCURVE",
"229 1318 CURVE SMOOTH",
"229 1367 OFFCURVE",
"274 1399 OFFCURVE",
"313 1399 CURVE SMOOTH",
"349 1399 OFFCURVE",
"381 1366 OFFCURVE",
"406 1328 CURVE SMOOTH",
"591 1042 LINE"
);
}
);
width = 741;
},
{
layerId = "B00507B9-787D-4BFE-8F64-5743BFDB1312";
paths = (
{
closed = 1;
nodes = (
"493 1060 LINE",
"232 1243 LINE SMOOTH",
"181 1280 OFFCURVE",
"165 1308 OFFCURVE",
"165 1350 CURVE SMOOTH",
"165 1403 OFFCURVE",
"207 1454 OFFCURVE",
"272 1454 CURVE SMOOTH",
"327 1454 OFFCURVE",
"357 1423 OFFCURVE",
"388 1377 CURVE SMOOTH",
"603 1060 LINE"
);
}
);
width = 670;
}
);
unicode = 0060;
},
{
glyphname = a;
layers = (
{
layerId = "450B03F6-B4AD-41C0-900A-B61992C84FEB";
paths = (
{
closed = 1;
nodes = (
"782 282 LINE SMOOTH",
"758 198 OFFCURVE",
"741 126 OFFCURVE",
"741 116 CURVE SMOOTH",
"741 93 OFFCURVE",
"756 75 OFFCURVE",
"772 75 CURVE SMOOTH",
"798 75 OFFCURVE",
"863 144 OFFCURVE",
"908 213 CURVE",
"942 191 LINE",
"875 79 OFFCURVE",
"760 -24 OFFCURVE",
"672 -24 CURVE SMOOTH",
"536 -24 OFFCURVE",
"579 99 OFFCURVE",
"623 262 CURVE",
"474 75 OFFCURVE",
"360 -24 OFFCURVE",
"229 -24 CURVE SMOOTH",
"124 -24 OFFCURVE",
"47 67 OFFCURVE",
"47 207 CURVE SMOOTH",
"47 537 OFFCURVE",
"375 906 OFFCURVE",
"603 906 CURVE SMOOTH",
"698 906 OFFCURVE",
"741 854 OFFCURVE",
"766 766 CURVE",
"804 881 LINE",
"961 906 LINE"
);
},
{
closed = 1;
nodes = (
"727 826 OFFCURVE",
"668 855 OFFCURVE",
"603 855 CURVE SMOOTH",
"440 855 OFFCURVE",
"207 493 OFFCURVE",
"207 242 CURVE SMOOTH",
"207 142 OFFCURVE",
"268 93 OFFCURVE",
"319 93 CURVE SMOOTH",
"475 93 OFFCURVE",
"727 402 OFFCURVE",
"727 690 CURVE SMOOTH",
"727 690 LINE SMOOTH"
);
}
);
userData = {
com.adobe.type.autohint = "b''";
};
width = 1024;
},
{
layerId = "B00507B9-787D-4BFE-8F64-5743BFDB1312";
paths = (
{
closed = 1;
nodes = (
"778 207 LINE SMOOTH",
"760 141 OFFCURVE",
"759 106 OFFCURVE",
"792 106 CURVE SMOOTH",
"824 106 OFFCURVE",
"885 169 OFFCURVE",
"932 246 CURVE",
"967 229 LINE",
"875 69 OFFCURVE",
"772 -30 OFFCURVE",
"646 -30 CURVE SMOOTH",
"548 -30 OFFCURVE",
"514 20 OFFCURVE",
"514 85 CURVE SMOOTH",
"514 134 OFFCURVE",
"558 260 OFFCURVE",
"571 307 CURVE",
"441 71 OFFCURVE",
"321 -30 OFFCURVE",
"219 -30 CURVE SMOOTH",
"124 -30 OFFCURVE",
"41 47 OFFCURVE",
"41 213 CURVE SMOOTH",
"41 577 OFFCURVE",
"353 928 OFFCURVE",
"581 928 CURVE SMOOTH",
"638 928 OFFCURVE",
"690 887 OFFCURVE",
"711 778 CURVE",
"745 900 LINE",
"979 916 LINE"
);
},
{
closed = 1;
nodes = (
"662 784 OFFCURVE",
"642 865 OFFCURVE",
"593 865 CURVE SMOOTH",
"471 865 OFFCURVE",
"301 467 OFFCURVE",
"301 254 CURVE SMOOTH",
"301 205 OFFCURVE",
"321 160 OFFCURVE",
"359 160 CURVE SMOOTH",
"471 160 OFFCURVE",
"662 514 OFFCURVE",
"662 725 CURVE SMOOTH",
"662 725 LINE SMOOTH"
);
}
);
userData = {
com.adobe.type.autohint = "b''";
};
width = 1024;
}
);
unicode = 0061;
},
{
glyphname = b;
layers = (
{
layerId = "450B03F6-B4AD-41C0-900A-B61992C84FEB";
paths = (
{
closed = 1;
nodes = (
"961 315 OFFCURVE",
"672 -24 OFFCURVE",
"361 -24 CURVE SMOOTH",
"256 -24 OFFCURVE",
"150 18 OFFCURVE",
"53 93 CURVE",
"368 1172 LINE SMOOTH",
"398 1272 OFFCURVE",
"420 1336 OFFCURVE",
"315 1336 CURVE SMOOTH",
"282 1336 OFFCURVE",
"244 1330 OFFCURVE",
"244 1330 CURVE",
"244 1367 LINE",
"591 1424 LINE",
"394 729 LINE",
"517 860 OFFCURVE",
"603 906 OFFCURVE",
"715 906 CURVE SMOOTH",
"839 906 OFFCURVE",
"961 814 OFFCURVE",
"961 632 CURVE SMOOTH",
"961 632 LINE SMOOTH"
);
},
{
closed = 1;
nodes = (
"798 739 OFFCURVE",
"719 812 OFFCURVE",
"644 812 CURVE SMOOTH",
"498 812 OFFCURVE",
"378 681 OFFCURVE",
"333 524 CURVE SMOOTH",
"205 79 LINE",
"258 49 OFFCURVE",
"323 22 OFFCURVE",
"382 22 CURVE SMOOTH",
"617 22 OFFCURVE",
"798 347 OFFCURVE",
"798 615 CURVE SMOOTH",
"798 615 LINE SMOOTH"
);
}
);
userData = {
com.adobe.type.autohint = "b''";
};
width = 1024;
},
{
layerId = "B00507B9-787D-4BFE-8F64-5743BFDB1312";
paths = (
{
closed = 1;
nodes = (
"961 284 OFFCURVE",
"670 -30 OFFCURVE",
"366 -30 CURVE SMOOTH",
"244 -30 OFFCURVE",
"114 20 OFFCURVE",
"18 67 CURVE",
"323 1125 LINE SMOOTH",
"353 1230 OFFCURVE",
"363 1294 OFFCURVE",
"238 1289 CURVE",
"250 1332 LINE",
"591 1387 LINE",
"650 1387 LINE",
"475 786 LINE",
"536 849 OFFCURVE",
"607 928 OFFCURVE",
"729 928 CURVE SMOOTH {name = hr01;}",
"851 928 OFFCURVE",
"961 827 OFFCURVE",
"961 640 CURVE SMOOTH",
"961 640 LINE SMOOTH"
);
},
{
closed = 1;
nodes = (
"703 715 OFFCURVE",
"672 784 OFFCURVE",
"595 784 CURVE SMOOTH",
"518 784 OFFCURVE",
"459 727 OFFCURVE",
"412 567 CURVE SMOOTH",
"262 59 LINE",
"292 39 OFFCURVE",
"323 30 OFFCURVE",
"353 30 CURVE SMOOTH",
"550 30 OFFCURVE",
"703 402 OFFCURVE",
"703 638 CURVE SMOOTH",
"703 638 LINE SMOOTH"
);
}
);
userData = {
com.adobe.type.autohint = "b''";
};
width = 1024;
}
);
unicode = 0062;
},
{
glyphname = c;
layers = (
{
layerId = "450B03F6-B4AD-41C0-900A-B61992C84FEB";
paths = (
{
closed = 1;
nodes = (
"877 658 OFFCURVE",
"814 609 OFFCURVE",
"770 609 CURVE SMOOTH",
"717 609 OFFCURVE",
"697 642 OFFCURVE",
"697 680 CURVE SMOOTH {name = hr01;}",
"697 748 OFFCURVE",
"770 760 OFFCURVE",
"770 808 CURVE SMOOTH {name = hr02;}",
"770 833 OFFCURVE",
"731 861 OFFCURVE",
"666 861 CURVE SMOOTH",
"459 861 OFFCURVE",
"227 593 OFFCURVE",
"227 288 CURVE SMOOTH",
"227 143 OFFCURVE",
"318 65 OFFCURVE",
"445 65 CURVE SMOOTH",
"565 65 OFFCURVE",
"660 132 OFFCURVE",
"766 244 CURVE",
"796 217 LINE",
"674 81 OFFCURVE",
"548 -24 OFFCURVE",
"359 -24 CURVE SMOOTH",
"169 -24 OFFCURVE",
"59 91 OFFCURVE",
"59 276 CURVE SMOOTH",
"59 587 OFFCURVE",
"364 906 OFFCURVE",
"662 906 CURVE SMOOTH",
"786 906 OFFCURVE",
"877 843 OFFCURVE",
"877 751 CURVE SMOOTH",
"877 751 LINE SMOOTH"
);
}
);
userData = {
com.adobe.type.autohint = "b''";
};
width = 910;
},
{
layerId = "B00507B9-787D-4BFE-8F64-5743BFDB1312";
paths = (
{
closed = 1;
nodes = (
"894 644 OFFCURVE",
"818 593 OFFCURVE",
"755 593 CURVE SMOOTH",
"695 593 OFFCURVE",
"650 636 OFFCURVE",
"650 695 CURVE SMOOTH",
"650 776 OFFCURVE",
"741 790 OFFCURVE",
"741 839 CURVE SMOOTH {name = hr01;}",
"741 857 OFFCURVE",
"715 881 OFFCURVE",
"674 881 CURVE SMOOTH",
"496 881 OFFCURVE",
"313 595 OFFCURVE",
"313 327 CURVE SMOOTH",
"313 193 OFFCURVE",
"386 108 OFFCURVE",
"495 108 CURVE SMOOTH",
"603 108 OFFCURVE",
"699 173 OFFCURVE",
"772 242 CURVE",
"804 213 LINE",
"680 71 OFFCURVE",
"536 -30 OFFCURVE",
"357 -30 CURVE SMOOTH",
"177 -30 OFFCURVE",
"57 89 OFFCURVE",
"57 266 CURVE SMOOTH",
"57 556 OFFCURVE",
"333 928 OFFCURVE",
"674 928 CURVE SMOOTH",
"800 928 OFFCURVE",
"894 869 OFFCURVE",
"894 757 CURVE SMOOTH",
"894 757 LINE SMOOTH"
);
}
);
userData = {
com.adobe.type.autohint = "b''";
};
width = 910;
}
);
unicode = 0063;
},
{
glyphname = d;
layers = (
{
layerId = "450B03F6-B4AD-41C0-900A-B61992C84FEB";
paths = (
{
closed = 1;
nodes = (
"776 282 LINE SMOOTH",
"752 199 OFFCURVE",
"735 126 OFFCURVE",
"735 116 CURVE SMOOTH",
"735 99 OFFCURVE",
"749 89 OFFCURVE",
"764 89 CURVE SMOOTH",
"786 89 OFFCURVE",
"857 151 OFFCURVE",
"908 221 CURVE",
"942 199 LINE",
"859 88 OFFCURVE",
"746 -24 OFFCURVE",
"666 -24 CURVE SMOOTH",
"538 -24 OFFCURVE",
"570 116 OFFCURVE",
"650 343 CURVE",
"485 99 OFFCURVE",
"360 -24 OFFCURVE",
"229 -24 CURVE SMOOTH",
"124 -24 OFFCURVE",
"39 77 OFFCURVE",
"39 217 CURVE SMOOTH",
"39 551 OFFCURVE",
"379 906 OFFCURVE",
"603 906 CURVE SMOOTH",
"698 906 OFFCURVE",
"759 855 OFFCURVE",
"780 808 CURVE",
"885 1172 LINE SMOOTH",
"922 1301 OFFCURVE",
"926 1336 OFFCURVE",
"833 1336 CURVE SMOOTH",
"800 1336 OFFCURVE",
"764 1330 OFFCURVE",
"764 1330 CURVE",
"764 1367 LINE",
"1109 1422 LINE"
);
},
{
closed = 1;
nodes = (
"737 817 OFFCURVE",
"668 855 OFFCURVE",
"603 855 CURVE SMOOTH",
"440 855 OFFCURVE",
"207 493 OFFCURVE",
"207 242 CURVE SMOOTH",
"207 142 OFFCURVE",
"268 93 OFFCURVE",
"319 93 CURVE SMOOTH",
"458 93 OFFCURVE",
"737 482 OFFCURVE",
"737 713 CURVE SMOOTH"
);
}
);
userData = {
com.adobe.type.autohint = "b''";
};
width = 1024;
},
{
layerId = "B00507B9-787D-4BFE-8F64-5743BFDB1312";
paths = (
{
closed = 1;
nodes = (
"788 207 LINE SMOOTH",
"769 141 OFFCURVE",
"768 106 OFFCURVE",
"802 106 CURVE SMOOTH",
"833 106 OFFCURVE",
"894 169 OFFCURVE",
"942 246 CURVE",
"977 229 LINE",
"885 69 OFFCURVE",
"782 -30 OFFCURVE",
"656 -30 CURVE SMOOTH",
"558 -30 OFFCURVE",
"514 20 OFFCURVE",
"514 85 CURVE SMOOTH",
"514 134 OFFCURVE",
"554 264 OFFCURVE",
"567 311 CURVE",
"437 75 OFFCURVE",
"321 -30 OFFCURVE",
"219 -30 CURVE SMOOTH",
"124 -30 OFFCURVE",
"41 47 OFFCURVE",
"41 213 CURVE SMOOTH",
"41 577 OFFCURVE",
"353 928 OFFCURVE",
"581 928 CURVE SMOOTH",
"638 928 OFFCURVE",
"678 898 OFFCURVE",
"721 851 CURVE",
"800 1125 LINE SMOOTH",
"830 1229 OFFCURVE",
"839 1294 OFFCURVE",
"715 1289 CURVE",
"727 1332 LINE",
"1068 1387 LINE",
"1127 1387 LINE"
);
},
{
closed = 1;
nodes = (
"678 820 OFFCURVE",
"646 871 OFFCURVE",
"597 871 CURVE SMOOTH",
"475 871 OFFCURVE",
"301 467 OFFCURVE",
"301 254 CURVE SMOOTH",
"301 205 OFFCURVE",
"321 160 OFFCURVE",
"359 160 CURVE SMOOTH",
"471 160 OFFCURVE",
"678 550 OFFCURVE",
"678 760 CURVE SMOOTH"
);
}
);
userData = {
com.adobe.type.autohint = "b''";
};
width = 1024;
}
);
unicode = 0064;
},
{
glyphname = e;
layers = (
{
layerId = "450B03F6-B4AD-41C0-900A-B61992C84FEB";
paths = (
{
closed = 1;
nodes = (
"881 569 OFFCURVE",
"622 412 OFFCURVE",
"244 376 CURVE",
"241 350 OFFCURVE",
"238 323 OFFCURVE",
"238 296 CURVE SMOOTH",
"238 162 OFFCURVE",
"336 81 OFFCURVE",
"463 81 CURVE SMOOTH",
"547 81 OFFCURVE",
"617 104 OFFCURVE",
"788 240 CURVE",
"812 211 LINE",
"666 74 OFFCURVE",
"525 -24 OFFCURVE",
"359 -24 CURVE SMOOTH",
"134 -24 OFFCURVE",
"63 152 OFFCURVE",
"63 276 CURVE SMOOTH",
"63 587 OFFCURVE",
"370 906 OFFCURVE",
"668 906 CURVE SMOOTH",
"797 906 OFFCURVE",
"881 853 OFFCURVE",
"881 760 CURVE SMOOTH",
"881 760 LINE SMOOTH"
);
},
{
closed = 1;
nodes = (
"737 802 OFFCURVE",
"713 857 OFFCURVE",
"634 857 CURVE SMOOTH",
"488 857 OFFCURVE",
"306 675 OFFCURVE",
"252 428 CURVE",
"493 446 OFFCURVE",
"737 580 OFFCURVE",
"737 760 CURVE SMOOTH",
"737 760 LINE SMOOTH"
);
}
);
userData = {
com.adobe.type.autohint = "b''";
};
width = 910;
},
{
layerId = "B00507B9-787D-4BFE-8F64-5743BFDB1312";
paths = (
{
closed = 1;
nodes = (
"906 630 OFFCURVE",
"737 400 OFFCURVE",
"325 374 CURVE",
"317 345 OFFCURVE",
"315 319 OFFCURVE",
"315 280 CURVE SMOOTH",
"315 171 OFFCURVE",
"366 102 OFFCURVE",
"481 102 CURVE SMOOTH",
"567 102 OFFCURVE",
"678 162 OFFCURVE",
"780 258 CURVE",
"810 227 LINE",
"634 26 OFFCURVE",
"491 -30 OFFCURVE",
"343 -30 CURVE SMOOTH",
"195 -30 OFFCURVE",
"49 32 OFFCURVE",
"49 240 CURVE SMOOTH",
"49 650 OFFCURVE",
"445 928 OFFCURVE",
"737 928 CURVE SMOOTH",
"849 928 OFFCURVE",
"906 867 OFFCURVE",
"906 782 CURVE SMOOTH",
"906 782 LINE SMOOTH"
);
},
{
closed = 1;
nodes = (
"680 833 OFFCURVE",
"666 859 OFFCURVE",
"627 859 CURVE SMOOTH {name = hr01;}",
"542 859 OFFCURVE",
"433 741 OFFCURVE",
"335 428 CURVE",
"562 449 OFFCURVE",
"680 648 OFFCURVE",
"680 800 CURVE SMOOTH",
"680 800 LINE SMOOTH"
);
}
);
userData = {
com.adobe.type.autohint = "b''";
};
width = 910;
}
);
unicode = 0065;
},
{
glyphname = f;
layers = (
{
layerId = "450B03F6-B4AD-41C0-900A-B61992C84FEB";
paths = (
{
closed = 1;
nodes = (
"969 1255 OFFCURVE",
"939 1218 OFFCURVE",
"887 1218 CURVE SMOOTH",
"843 1218 OFFCURVE",
"820 1247 OFFCURVE",
"820 1277 CURVE SMOOTH",
"820 1318 OFFCURVE",
"843 1334 OFFCURVE",
"843 1352 CURVE SMOOTH {name = hr01;}",
"843 1359 OFFCURVE",
"839 1381 OFFCURVE",
"796 1381 CURVE SMOOTH",
"640 1381 OFFCURVE",
"544 1178 OFFCURVE",
"465 881 CURVE",
"613 881 LINE",
"595 816 LINE",
"447 816 LINE",
"335 370 LINE SMOOTH",
"245 14 OFFCURVE",
"73 -443 OFFCURVE",
"-221 -443 CURVE SMOOTH",
"-307 -443 OFFCURVE",
"-353 -388 OFFCURVE",
"-353 -345 CURVE SMOOTH",
"-353 -301 OFFCURVE",
"-321 -262 OFFCURVE",
"-264 -262 CURVE SMOOTH",
"-229 -262 OFFCURVE",
"-201 -288 OFFCURVE",
"-201 -317 CURVE SMOOTH",
"-201 -359 OFFCURVE",
"-238 -364 OFFCURVE",
"-238 -382 CURVE SMOOTH {name = hr02;}",
"-238 -390 OFFCURVE",
"-227 -402 OFFCURVE",
"-201 -402 CURVE SMOOTH {name = hr03;}",
"-71 -402 OFFCURVE",
"13 -255 OFFCURVE",
"57 -85 CURVE SMOOTH",
"292 816 LINE",
"116 816 LINE",
"132 881 LINE {name = hr04;}",
"276 881 OFFCURVE",
"304 899 OFFCURVE",
"378 1060 CURVE SMOOTH",
"443 1200 OFFCURVE",
"598 1422 OFFCURVE",
"804 1422 CURVE SMOOTH",
"891 1422 OFFCURVE",
"969 1370 OFFCURVE",
"969 1298 CURVE SMOOTH",
"969 1298 LINE SMOOTH"
);
}
);
userData = {
com.adobe.type.autohint = "b''";
};
width = 569;
},
{
layerId = "B00507B9-787D-4BFE-8F64-5743BFDB1312";
paths = (
{
closed = 1;
nodes = (
"1038 1198 OFFCURVE",
"1009 1141 OFFCURVE",
"938 1141 CURVE SMOOTH",
"879 1141 OFFCURVE",
"847 1184 OFFCURVE",
"847 1227 CURVE SMOOTH",
"847 1271 OFFCURVE",
"879 1292 OFFCURVE",
"879 1318 CURVE SMOOTH {name = hr01;}",
"879 1330 OFFCURVE",
"875 1342 OFFCURVE",
"853 1342 CURVE SMOOTH",
"755 1342 OFFCURVE",
"634 1178 OFFCURVE",
"567 900 CURVE",
"711 900 LINE",
"678 782 LINE",
"536 782 LINE",
"404 256 LINE SMOOTH",
"313 -108 OFFCURVE",
"173 -443 OFFCURVE",
"-162 -443 CURVE SMOOTH",
"-260 -443 OFFCURVE",
"-327 -400 OFFCURVE",
"-327 -335 CURVE SMOOTH",
"-327 -264 OFFCURVE",
"-266 -232 OFFCURVE",
"-203 -232 CURVE SMOOTH",
"-144 -232 OFFCURVE",
"-114 -270 OFFCURVE",
"-114 -315 CURVE SMOOTH",
"-114 -361 OFFCURVE",
"-146 -370 OFFCURVE",
"-146 -380 CURVE SMOOTH",
"-146 -386 OFFCURVE",
"-140 -394 OFFCURVE",
"-118 -394 CURVE SMOOTH {name = hr02;}",
"-95 -394 OFFCURVE",
"-16 -362 OFFCURVE",
"35 -162 CURVE SMOOTH",
"276 782 LINE",
"138 782 LINE",
"169 900 LINE",
"274 900 OFFCURVE",
"295 908 OFFCURVE",
"353 1009 CURVE SMOOTH",
"471 1216 OFFCURVE",
"607 1387 OFFCURVE",
"855 1387 CURVE SMOOTH",
"1007 1387 OFFCURVE",
"1038 1314 OFFCURVE",
"1038 1253 CURVE SMOOTH",
"1038 1253 LINE SMOOTH"
);
}
);
userData = {
com.adobe.type.autohint = "b''";
};
width = 682;
}
);
unicode = 0066;
},
{
glyphname = g;
layers = (
{
layerId = "450B03F6-B4AD-41C0-900A-B61992C84FEB";
paths = (
{
closed = 1;
nodes = (
"1038 739 LINE",
"873 739 LINE",
"884 708 OFFCURVE",
"891 674 OFFCURVE",
"891 636 CURVE SMOOTH",
"891 482 OFFCURVE",
"759 305 OFFCURVE",
"463 288 CURVE",
"381 263 OFFCURVE",
"290 212 OFFCURVE",
"290 177 CURVE SMOOTH",
"290 139 OFFCURVE",
"323 121 OFFCURVE",
"546 77 CURVE SMOOTH",
"743 37 OFFCURVE",
"857 -16 OFFCURVE",
"857 -148 CURVE SMOOTH {name = hr01;}",
"857 -357 OFFCURVE",
"577 -443 OFFCURVE",
"357 -443 CURVE SMOOTH",
"136 -443 OFFCURVE",
"-55 -364 OFFCURVE",
"-55 -227 CURVE SMOOTH",
"-55 -119 OFFCURVE",
"33 -60 OFFCURVE",
"201 28 CURVE",
"162 53 OFFCURVE",
"152 78 OFFCURVE",
"152 106 CURVE SMOOTH",
"152 174 OFFCURVE",
"234 241 OFFCURVE",
"364 290 CURVE",
"229 312 OFFCURVE",
"124 408 OFFCURVE",
"124 538 CURVE SMOOTH {name = hr02;}",
"124 729 OFFCURVE",
"307 906 OFFCURVE",
"585 906 CURVE SMOOTH",
"672 906 OFFCURVE",
"743 884 OFFCURVE",
"796 843 CURVE",
"1068 843 LINE"
);
},
{
closed = 1;
nodes = (
"719 806 OFFCURVE",
"643 859 OFFCURVE",
"558 859 CURVE SMOOTH",
"420 859 OFFCURVE",
"299 693 OFFCURVE",
"299 506 CURVE SMOOTH",
"299 402 OFFCURVE",
"368 335 OFFCURVE",
"461 335 CURVE SMOOTH",
"608 335 OFFCURVE",
"719 506 OFFCURVE",
"719 684 CURVE SMOOTH"
);
},
{
closed = 1;
nodes = (
"735 -132 OFFCURVE",
"670 -95 OFFCURVE",
"431 -47 CURVE SMOOTH",
"348 -31 OFFCURVE",
"286 -15 OFFCURVE",
"244 2 CURVE",
"122 -50 OFFCURVE",
"75 -152 OFFCURVE",
"75 -211 CURVE SMOOTH",
"75 -286 OFFCURVE",
"158 -380 OFFCURVE",
"388 -380 CURVE SMOOTH",
"619 -380 OFFCURVE",
"735 -288 OFFCURVE",
"735 -209 CURVE SMOOTH {name = hr03;}"
);
}
);
userData = {
com.adobe.type.autohint = "b''";
};
width = 1024;
},
{
layerId = "B00507B9-787D-4BFE-8F64-5743BFDB1312";
paths = (
{
closed = 1;
nodes = (
"1026 757 LINE",
"887 757 LINE",
"904 733 OFFCURVE",
"920 686 OFFCURVE",
"920 636 CURVE SMOOTH",
"920 455 OFFCURVE",
"757 307 OFFCURVE",
"510 307 CURVE SMOOTH",
"455 307 OFFCURVE",
"405 312 OFFCURVE",
"361 323 CURVE",
"304 297 OFFCURVE",
"264 270 OFFCURVE",
"264 242 CURVE SMOOTH",
"264 195 OFFCURVE",
"325 180 OFFCURVE",
"477 148 CURVE SMOOTH",
"709 99 OFFCURVE",
"808 16 OFFCURVE",
"808 -136 CURVE SMOOTH {name = hr01;}",
"808 -232 OFFCURVE",
"735 -443 OFFCURVE",
"319 -443 CURVE SMOOTH",
"-2 -443 OFFCURVE",
"-106 -317 OFFCURVE",
"-106 -223 CURVE SMOOTH",
"-106 -129 OFFCURVE",
"-25 -65 OFFCURVE",
"185 -18 CURVE",
"102 22 OFFCURVE",
"71 67 OFFCURVE",
"71 122 CURVE SMOOTH",
"71 201 OFFCURVE",
"125 270 OFFCURVE",
"303 341 CURVE",
"185 386 OFFCURVE",
"118 475 OFFCURVE",
"118 585 CURVE SMOOTH",
"118 731 OFFCURVE",
"240 928 OFFCURVE",
"573 928 CURVE SMOOTH",
"676 928 OFFCURVE",
"737 908 OFFCURVE",
"792 867 CURVE",
"1060 867 LINE"
);
},
{
closed = 1;
nodes = (
"676 845 OFFCURVE",
"630 879 OFFCURVE",
"583 879 CURVE SMOOTH",
"429 879 OFFCURVE",
"364 567 OFFCURVE",
"364 463 CURVE SMOOTH",
"364 402 OFFCURVE",
"406 359 OFFCURVE",
"465 359 CURVE SMOOTH",
"579 359 OFFCURVE",
"676 607 OFFCURVE",
"676 784 CURVE SMOOTH {name = hr02;}"
);
},
{
closed = 1;
nodes = (
"599 -162 OFFCURVE",
"548 -124 OFFCURVE",
"341 -71 CURVE SMOOTH",
"304 -61 OFFCURVE",
"269 -53 OFFCURVE",
"240 -43 CURVE",
"159 -69 OFFCURVE",
"73 -125 OFFCURVE",
"73 -215 CURVE SMOOTH",
"73 -288 OFFCURVE",
"140 -386 OFFCURVE",
"376 -386 CURVE SMOOTH",
"526 -386 OFFCURVE",
"599 -311 OFFCURVE",
"599 -236 CURVE SMOOTH {name = hr03;}"
);
}
);
userData = {
com.adobe.type.autohint = "b''";
};
width = 1024;
}
);
unicode = 0067;
},
{
glyphname = h;
layers = (
{
layerId = "450B03F6-B4AD-41C0-900A-B61992C84FEB";
paths = (
{
closed = 1;
nodes = (
"835 59 OFFCURVE",
"740 -24 OFFCURVE",
"666 -24 CURVE SMOOTH",
"569 -24 OFFCURVE",
"564 54 OFFCURVE",
"607 201 CURVE SMOOTH",
"735 642 LINE SMOOTH",
"744 674 OFFCURVE",
"782 786 OFFCURVE",
"707 786 CURVE SMOOTH",
"562 786 OFFCURVE",
"295 351 OFFCURVE",
"236 154 CURVE SMOOTH",
"191 0 LINE",
"41 0 LINE",
"378 1172 LINE SMOOTH",
"408 1274 OFFCURVE",
"421 1336 OFFCURVE",
"325 1336 CURVE SMOOTH",
"292 1336 OFFCURVE",
"254 1328 OFFCURVE",
"254 1328 CURVE",
"254 1365 LINE",
"601 1424 LINE",
"319 451 LINE",
"512 739 OFFCURVE",
"645 906 OFFCURVE",
"804 906 CURVE SMOOTH",
"941 906 OFFCURVE",
"915 740 OFFCURVE",
"894 668 CURVE SMOOTH",
"760 201 LINE SMOOTH",
"739 127 OFFCURVE",
"719 91 OFFCURVE",
"768 91 CURVE SMOOTH",
"801 91 OFFCURVE",
"863 158 OFFCURVE",
"910 225 CURVE",
"940 203 LINE"
);
}
);
userData = {
com.adobe.type.autohint = "b''";
};
width = 1024;
},
{
layerId = "B00507B9-787D-4BFE-8F64-5743BFDB1312";
paths = (
{
closed = 1;
nodes = (
"934 69 OFFCURVE",
"829 -12 OFFCURVE",
"725 -12 CURVE SMOOTH",
"627 -12 OFFCURVE",
"583 37 OFFCURVE",
"583 102 CURVE SMOOTH",
"583 133 OFFCURVE",
"593 174 OFFCURVE",
"607 221 CURVE SMOOTH",
"737 666 LINE SMOOTH",
"752 717 OFFCURVE",
"745 743 OFFCURVE",
"717 743 CURVE SMOOTH",
"666 743 OFFCURVE",
"474 576 OFFCURVE",
"351 266 CURVE",
"274 0 LINE",
"20 0 LINE",
"345 1125 LINE SMOOTH",
"375 1230 OFFCURVE",
"384 1294 OFFCURVE",
"260 1289 CURVE",
"272 1332 LINE",
"613 1387 LINE",
"672 1387 LINE",
"414 491 LINE",
"518 640 LINE SMOOTH",
"623 791 OFFCURVE",
"749 928 OFFCURVE",
"889 928 CURVE SMOOTH",
"987 928 OFFCURVE",
"1013 824 OFFCURVE",
"1013 782 CURVE SMOOTH",
"1013 741 OFFCURVE",
"979 627 OFFCURVE",
"979 627 CURVE",
"857 207 LINE SMOOTH",
"840 150 OFFCURVE",
"841 124 OFFCURVE",
"871 124 CURVE SMOOTH",
"892 124 OFFCURVE",
"944 169 OFFCURVE",
"991 246 CURVE",
"1026 229 LINE"
);
}
);
userData = {
com.adobe.type.autohint = "b''";
};
width = 1139;
}
);
unicode = 0068;
},
{
glyphname = i;
layers = (
{
layerId = "450B03F6-B4AD-41C0-900A-B61992C84FEB";
paths = (
{
closed = 1;
nodes = (
"575 1148 OFFCURVE",
"533 1103 OFFCURVE",
"477 1103 CURVE SMOOTH",
"421 1103 OFFCURVE",
"376 1148 OFFCURVE",
"376 1204 CURVE SMOOTH",
"376 1260 OFFCURVE",
"421 1302 OFFCURVE",
"477 1302 CURVE SMOOTH",
"533 1302 OFFCURVE",
"575 1260 OFFCURVE",
"575 1204 CURVE SMOOTH",
"575 1204 LINE SMOOTH"
);
},
{
closed = 1;
nodes = (
"416 91 OFFCURVE",
"300 -24 OFFCURVE",
"199 -24 CURVE SMOOTH",
"127 -24 OFFCURVE",
"106 17 OFFCURVE",
"106 67 CURVE SMOOTH",
"106 112 OFFCURVE",
"123 165 OFFCURVE",
"134 201 CURVE SMOOTH",
"268 654 LINE SMOOTH",
"283 704 OFFCURVE",
"292 740 OFFCURVE",
"292 766 CURVE SMOOTH",
"292 804 OFFCURVE",
"274 822 OFFCURVE",
"234 822 CURVE SMOOTH",
"201 822 OFFCURVE",
"144 812 OFFCURVE",
"144 812 CURVE",
"144 849 LINE",
"489 906 LINE",
"288 201 LINE SMOOTH",
"279 169 OFFCURVE",
"272 141 OFFCURVE",
"272 120 CURVE SMOOTH",
"272 98 OFFCURVE",
"279 85 OFFCURVE",
"301 85 CURVE SMOOTH",
"334 85 OFFCURVE",
"410 158 OFFCURVE",
"455 227 CURVE",
"489 205 LINE"
);
}
);
userData = {
com.adobe.type.autohint = "b''";
};
width = 569;
},
{
layerId = "B00507B9-787D-4BFE-8F64-5743BFDB1312";
paths = (
{
closed = 1;
nodes = (
"615 1187 OFFCURVE",
"551 1123 OFFCURVE",
"469 1123 CURVE SMOOTH",
"387 1123 OFFCURVE",
"321 1187 OFFCURVE",
"321 1269 CURVE SMOOTH",
"321 1350 OFFCURVE",
"387 1417 OFFCURVE",
"469 1417 CURVE SMOOTH",
"551 1417 OFFCURVE",
"615 1350 OFFCURVE",
"615 1269 CURVE SMOOTH",
"615 1269 LINE SMOOTH"
);
},
{
closed = 1;
nodes = (
"319 207 LINE SMOOTH",
"300 141 OFFCURVE",
"299 106 OFFCURVE",
"333 106 CURVE SMOOTH",
"364 106 OFFCURVE",
"426 169 OFFCURVE",
"473 246 CURVE",
"508 229 LINE",
"416 69 OFFCURVE",
"313 -30 OFFCURVE",
"187 -30 CURVE SMOOTH",
"89 -30 OFFCURVE",
"45 37 OFFCURVE",
"45 102 CURVE SMOOTH",
"45 133 OFFCURVE",
"55 174 OFFCURVE",
"69 221 CURVE SMOOTH",
"199 666 LINE SMOOTH",
"234 786 OFFCURVE",
"231 833 OFFCURVE",
"142 833 CURVE SMOOTH",
"126 833 OFFCURVE",
"114 829 OFFCURVE",
"114 829 CURVE",
"126 873 LINE",
"467 928 LINE",
"526 928 LINE"
);
}
);
userData = {
com.adobe.type.autohint = "b''";
};
width = 569;
}
);
unicode = 0069;
},
{
glyphname = j;
layers = (
{
layerId = "450B03F6-B4AD-41C0-900A-B61992C84FEB";
paths = (
{
closed = 1;
nodes = (
"573 1148 OFFCURVE",
"531 1103 OFFCURVE",
"475 1103 CURVE SMOOTH",
"419 1103 OFFCURVE",
"374 1148 OFFCURVE",
"374 1204 CURVE SMOOTH",
"374 1260 OFFCURVE",
"419 1302 OFFCURVE",
"475 1302 CURVE SMOOTH",
"531 1302 OFFCURVE",
"573 1260 OFFCURVE",
"573 1204 CURVE SMOOTH",
"573 1204 LINE SMOOTH"
);
},
{
closed = 1;
nodes = (
"244 63 LINE SMOOTH",
"187 -134 OFFCURVE",
"75 -443 OFFCURVE",
"-221 -443 CURVE SMOOTH",
"-307 -443 OFFCURVE",
"-349 -388 OFFCURVE",
"-349 -345 CURVE SMOOTH",
"-349 -301 OFFCURVE",
"-303 -266 OFFCURVE",
"-268 -266 CURVE SMOOTH",
"-232 -266 OFFCURVE",
"-199 -288 OFFCURVE",
"-199 -317 CURVE SMOOTH",
"-199 -359 OFFCURVE",
"-238 -366 OFFCURVE",
"-238 -384 CURVE SMOOTH {name = hr01;}",
"-238 -392 OFFCURVE",
"-227 -396 OFFCURVE",
"-209 -396 CURVE SMOOTH",
"-45 -396 OFFCURVE",
"2 -245 OFFCURVE",
"35 -130 CURVE SMOOTH",
"266 654 LINE SMOOTH",
"301 775 OFFCURVE",
"299 822 OFFCURVE",
"232 822 CURVE SMOOTH",
"199 822 OFFCURVE",
"142 812 OFFCURVE",
"142 812 CURVE",
"142 849 LINE",
"491 906 LINE"
);
}
);
userData = {
com.adobe.type.autohint = "b''";
};
width = 569;
},
{
layerId = "B00507B9-787D-4BFE-8F64-5743BFDB1312";
paths = (
{
closed = 1;
nodes = (
"623 1187 OFFCURVE",
"558 1123 OFFCURVE",
"477 1123 CURVE SMOOTH",
"395 1123 OFFCURVE",
"329 1187 OFFCURVE",
"329 1269 CURVE SMOOTH",
"329 1350 OFFCURVE",
"395 1417 OFFCURVE",
"477 1417 CURVE SMOOTH",
"558 1417 OFFCURVE",
"623 1350 OFFCURVE",
"623 1269 CURVE SMOOTH",
"623 1269 LINE SMOOTH"
);
},
{
closed = 1;
nodes = (
"335 134 LINE SMOOTH",
"278 -78 OFFCURVE",
"173 -443 OFFCURVE",
"-162 -443 CURVE SMOOTH",
"-260 -443 OFFCURVE",
"-325 -400 OFFCURVE",
"-325 -335 CURVE SMOOTH",
"-325 -270 OFFCURVE",
"-266 -227 OFFCURVE",
"-207 -227 CURVE SMOOTH",
"-148 -227 OFFCURVE",
"-120 -262 OFFCURVE",
"-120 -301 CURVE SMOOTH",
"-120 -341 OFFCURVE",
"-160 -366 OFFCURVE",
"-160 -376 CURVE SMOOTH",
"-160 -382 OFFCURVE",
"-156 -394 OFFCURVE",
"-134 -394 CURVE SMOOTH {name = hr01;}",
"-71 -394 OFFCURVE",
"-41 -334 OFFCURVE",
"-8 -209 CURVE SMOOTH",
"223 666 LINE SMOOTH",
"255 787 OFFCURVE",
"254 833 OFFCURVE",
"165 833 CURVE SMOOTH",
"150 833 OFFCURVE",
"138 829 OFFCURVE",
"138 829 CURVE",
"150 873 LINE",
"491 928 LINE",
"550 928 LINE"
);
}
);
userData = {
com.adobe.type.autohint = "b''";
};
width = 569;
}
);
unicode = 006A;
},
{
glyphname = k;
layers = (
{
layerId = "450B03F6-B4AD-41C0-900A-B61992C84FEB";
paths = (
{
closed = 1;
nodes = (
"993 843 LINE",
"860 843 OFFCURVE",
"770 792 OFFCURVE",
"540 581 CURVE",
"628 254 LINE SMOOTH",
"666 116 OFFCURVE",
"676 87 OFFCURVE",
"709 87 CURVE SMOOTH",
"742 87 OFFCURVE",
"810 158 OFFCURVE",
"857 225 CURVE",
"891 199 LINE",
"786 55 OFFCURVE",
"696 -24 OFFCURVE",
"623 -24 CURVE SMOOTH",
"569 -24 OFFCURVE",
"537 -1 OFFCURVE",
"500 148 CURVE SMOOTH",
"420 471 LINE",
"278 347 LINE",
"177 0 LINE",
"28 0 LINE",
"364 1172 LINE SMOOTH",
"394 1274 OFFCURVE",
"407 1336 OFFCURVE",
"311 1336 CURVE SMOOTH",
"278 1336 OFFCURVE",
"240 1328 OFFCURVE",
"240 1328 CURVE",
"240 1365 LINE",
"587 1424 LINE",
"301 433 LINE",
"571 670 LINE SMOOTH",
"640 730 OFFCURVE",
"680 782 OFFCURVE",
"680 810 CURVE SMOOTH",
"680 834 OFFCURVE",
"669 843 OFFCURVE",
"556 843 CURVE",
"563 881 LINE",
"1005 881 LINE"
);
}
);
userData = {
com.adobe.type.autohint = "b''";
};
width = 910;
},
{
layerId = "B00507B9-787D-4BFE-8F64-5743BFDB1312";
paths = (
{
closed = 1;
nodes = (
"1040 861 LINE",
"950 849 OFFCURVE",
"849 796 OFFCURVE",
"686 636 CURVE",
"774 244 LINE SMOOTH",
"787 189 OFFCURVE",
"800 158 OFFCURVE",
"826 158 CURVE SMOOTH",
"851 158 OFFCURVE",
"887 201 OFFCURVE",
"928 270 CURVE",
"928 270 OFFCURVE",
"965 244 OFFCURVE",
"963 248 CURVE",
"837 12 OFFCURVE",
"729 -12 OFFCURVE",
"676 -12 CURVE SMOOTH",
"615 -12 OFFCURVE",
"572 13 OFFCURVE",
"532 193 CURVE SMOOTH",
"477 441 LINE",
"366 345 LINE",
"268 0 LINE",
"14 0 LINE",
"339 1125 LINE SMOOTH",
"369 1230 OFFCURVE",
"378 1294 OFFCURVE",
"254 1289 CURVE",
"266 1332 LINE",
"607 1387 LINE",
"666 1387 LINE",
"394 445 LINE",
"695 721 LINE SMOOTH",
"726 749 OFFCURVE",
"751 780 OFFCURVE",
"751 806 CURVE SMOOTH",
"751 843 OFFCURVE",
"709 857 OFFCURVE",
"632 861 CURVE",
"644 900 LINE",
"1052 900 LINE"
);
}
);
userData = {
com.adobe.type.autohint = "b''";
};
width = 1024;
}
);
unicode = 006B;
},
{
glyphname = l;
layers = (
{
layerId = "450B03F6-B4AD-41C0-900A-B61992C84FEB";
paths = (
{
closed = 1;
nodes = (
"260 201 LINE SMOOTH",
"250 167 OFFCURVE",
"244 140 OFFCURVE",
"244 120 CURVE SMOOTH",
"244 98 OFFCURVE",
"252 85 OFFCURVE",
"274 85 CURVE SMOOTH",
"306 85 OFFCURVE",
"382 158 OFFCURVE",
"428 227 CURVE",
"461 205 LINE",
"388 91 OFFCURVE",
"273 -24 OFFCURVE",
"171 -24 CURVE SMOOTH",
"105 -24 OFFCURVE",
"83 11 OFFCURVE",
"83 65 CURVE SMOOTH",
"83 103 OFFCURVE",
"94 151 OFFCURVE",
"108 201 CURVE SMOOTH",
"390 1172 LINE SMOOTH",
"402 1213 OFFCURVE",
"416 1250 OFFCURVE",
"416 1279 CURVE SMOOTH",
"416 1313 OFFCURVE",
"396 1336 OFFCURVE",
"335 1336 CURVE SMOOTH",
"302 1336 OFFCURVE",
"268 1330 OFFCURVE",
"268 1330 CURVE",
"268 1367 LINE",
"611 1424 LINE"
);
}
);
userData = {
com.adobe.type.autohint = "b''";
};
width = 569;
},
{
layerId = "B00507B9-787D-4BFE-8F64-5743BFDB1312";
paths = (
{
closed = 1;
nodes = (
"319 207 LINE SMOOTH",
"300 141 OFFCURVE",
"299 106 OFFCURVE",
"333 106 CURVE SMOOTH",
"364 106 OFFCURVE",
"426 169 OFFCURVE",
"473 246 CURVE",
"508 229 LINE",
"416 69 OFFCURVE",
"313 -30 OFFCURVE",
"187 -30 CURVE SMOOTH",
"89 -30 OFFCURVE",
"45 37 OFFCURVE",
"45 102 CURVE SMOOTH",
"45 133 OFFCURVE",
"55 174 OFFCURVE",
"69 221 CURVE SMOOTH",
"331 1125 LINE SMOOTH",
"361 1230 OFFCURVE",
"370 1294 OFFCURVE",
"246 1289 CURVE",
"258 1332 LINE",
"599 1387 LINE",
"658 1387 LINE"
);
}
);
userData = {
com.adobe.type.autohint = "b''";
};
width = 569;
}
);
unicode = 006C;
},
{
glyphname = m;
layers = (
{
layerId = "450B03F6-B4AD-41C0-900A-B61992C84FEB";
paths = (
{
closed = 1;
nodes = (
"1285 59 OFFCURVE",
"1187 -24 OFFCURVE",
"1113 -24 CURVE SMOOTH",
"1017 -24 OFFCURVE",
"1011 54 OFFCURVE",
"1054 201 CURVE SMOOTH",
"1182 642 LINE SMOOTH",
"1191 674 OFFCURVE",
"1222 786 OFFCURVE",
"1155 786 CURVE SMOOTH",
"1052 786 OFFCURVE",
"808 506 OFFCURVE",
"662 0 CURVE",
"512 0 LINE",
"686 615 LINE SMOOTH",
"695 649 OFFCURVE",
"747 786 OFFCURVE",
"672 786 CURVE SMOOTH",
"573 786 OFFCURVE",
"329 556 OFFCURVE",
"185 0 CURVE",
"35 0 LINE",
"223 654 LINE SMOOTH",
"252 756 OFFCURVE",
"267 818 OFFCURVE",
"171 818 CURVE SMOOTH",
"138 818 OFFCURVE",
"100 810 OFFCURVE",
"100 810 CURVE",
"100 847 LINE",
"447 906 LINE",
"311 451 LINE",
"477 743 OFFCURVE",
"610 906 OFFCURVE",
"768 906 CURVE SMOOTH",
"881 906 OFFCURVE",
"876 759 OFFCURVE",
"841 630 CURVE SMOOTH",
"841 630 OFFCURVE",
"807 497 OFFCURVE",
"780 408 CURVE",
"912 668 OFFCURVE",
"1092 906 OFFCURVE",
"1251 906 CURVE SMOOTH",
"1373 906 OFFCURVE",
"1362 740 OFFCURVE",
"1342 668 CURVE SMOOTH",
"1210 201 LINE SMOOTH",
"1189 127 OFFCURVE",
"1168 91 OFFCURVE",
"1218 91 CURVE SMOOTH",
"1250 91 OFFCURVE",
"1312 158 OFFCURVE",
"1359 225 CURVE",
"1389 203 LINE"
);
}
);
userData = {
com.adobe.type.autohint = "b''";
};
width = 1480;
},
{
layerId = "B00507B9-787D-4BFE-8F64-5743BFDB1312";
paths = (
{
closed = 1;
nodes = (
"1395 69 OFFCURVE",
"1290 -12 OFFCURVE",
"1186 -12 CURVE SMOOTH",
"1088 -12 OFFCURVE",
"1044 37 OFFCURVE",
"1044 102 CURVE SMOOTH",
"1044 133 OFFCURVE",
"1054 174 OFFCURVE",
"1068 221 CURVE SMOOTH",
"1198 666 LINE SMOOTH",
"1213 717 OFFCURVE",
"1210 741 OFFCURVE",
"1186 741 CURVE SMOOTH",
"1135 741 OFFCURVE",
"911 483 OFFCURVE",
"833 217 CURVE SMOOTH",
"770 0 LINE",
"516 0 LINE",
"707 666 LINE SMOOTH",
"721 712 OFFCURVE",
"721 741 OFFCURVE",
"697 741 CURVE SMOOTH",
"646 741 OFFCURVE",
"421 492 OFFCURVE",
"343 223 CURVE SMOOTH",
"278 0 LINE",
"24 0 LINE",
"219 666 LINE SMOOTH",
"249 771 OFFCURVE",
"254 835 OFFCURVE",
"130 829 CURVE",
"142 873 LINE",
"483 928 LINE",
"542 928 LINE",
"418 491 LINE",
"514 640 LINE SMOOTH",
"614 795 OFFCURVE",
"751 928 OFFCURVE",
"861 928 CURVE SMOOTH",
"963 928 OFFCURVE",
"985 841 OFFCURVE",
"985 798 CURVE SMOOTH",
"985 735 OFFCURVE",
"965 659 OFFCURVE",
"910 491 CURVE",
"1011 640 LINE SMOOTH",
"1113 793 OFFCURVE",
"1239 928 OFFCURVE",
"1350 928 CURVE SMOOTH",
"1452 928 OFFCURVE",
"1474 841 OFFCURVE",
"1474 798 CURVE SMOOTH",
"1474 757 OFFCURVE",
"1456 679 OFFCURVE",
"1440 627 CURVE SMOOTH",
"1318 207 LINE SMOOTH",
"1301 150 OFFCURVE",
"1302 124 OFFCURVE",
"1332 124 CURVE SMOOTH",
"1354 124 OFFCURVE",
"1405 169 OFFCURVE",
"1452 246 CURVE",
"1487 229 LINE"
);
}
);
userData = {
com.adobe.type.autohint = "b''";
};
width = 1594;
}
);
unicode = 006D;
},
